<?xml version="1.0" encoding="utf-8"?>
<!-- Generator: Adobe Illustrator 26.0.3, SVG Export Plug-In . SVG Version: 6.00 Build 0)  -->
<svg version="1.1"
	 id="Layer_1" xmlns:ev="http://www.w3.org/2001/xml-events" xmlns:v="http://schemas.microsoft.com/visio/2003/SVGExtensions/"
	 xmlns="http://www.w3.org/2000/svg" xmlns:xlink="http://www.w3.org/1999/xlink" x="0px" y="0px" viewBox="0 0 278.8 301.2"
	 style="enable-background:new 0 0 278.8 301.2;" xml:space="preserve">
<style type="text/css">
	
		.st0{fill-rule:evenodd;clip-rule:evenodd;fill:#7F7F7F;stroke:#7F7F7F;stroke-width:0.75;stroke-linecap:round;stroke-linejoin:round;stroke-miterlimit:3;}
	.st1{fill-rule:evenodd;clip-rule:evenodd;fill:#DBEEF3;}
	.st2{fill-rule:evenodd;clip-rule:evenodd;fill:url(#SVGID_1_);}
	.st3{fill-rule:evenodd;clip-rule:evenodd;fill:url(#SVGID_00000035527290228076259350000003210404640763341184_);}
	.st4{fill-rule:evenodd;clip-rule:evenodd;}
	.st5{fill-rule:evenodd;clip-rule:evenodd;fill:url(#SVGID_00000090997922151434317610000001897859236232699561_);}
	.st6{fill-rule:evenodd;clip-rule:evenodd;fill:url(#SVGID_00000063604227090895094150000008414587379275023240_);}
	
		.st7{fill-rule:evenodd;clip-rule:evenodd;fill:#D8D8D8;stroke:#D8D8D8;stroke-width:0.75;stroke-linecap:round;stroke-linejoin:round;stroke-miterlimit:3;}
	.st8{fill-rule:evenodd;clip-rule:evenodd;fill:#7F7F7F;}
	.st9{fill-rule:evenodd;clip-rule:evenodd;fill:#BFBFBF;}
	.st10{fill:none;stroke:#7F7F7F;stroke-width:0.75;stroke-linecap:round;stroke-linejoin:round;stroke-miterlimit:3;}
	.st11{fill:none;stroke:#000000;stroke-width:0.75;stroke-linecap:round;stroke-linejoin:round;stroke-miterlimit:3;}
	
		.st12{fill-rule:evenodd;clip-rule:evenodd;fill:#A5A5A5;stroke:#A5A5A5;stroke-width:0.75;stroke-linecap:round;stroke-linejoin:round;stroke-miterlimit:3;}
	
		.st13{fill-rule:evenodd;clip-rule:evenodd;stroke:#000000;stroke-width:0.75;stroke-linecap:round;stroke-linejoin:round;stroke-miterlimit:3;}
	
		.st14{fill-rule:evenodd;clip-rule:evenodd;fill:#3F3F3F;stroke:#3F3F3F;stroke-width:0.75;stroke-linecap:round;stroke-linejoin:round;stroke-miterlimit:3;}
	.st15{fill:none;stroke:#000000;stroke-width:0.75;stroke-miterlimit:10;}
</style>
<v:documentProperties  v:langID="1030" v:metric="true" v:viewMarkup="false">
	<v:userDefs>
		<v:ud  v:nameU="msvNoAutoConnect" v:val="VT0(1):26"></v:ud>
	</v:userDefs>
</v:documentProperties>
<g>
	
		<v:pageProperties  v:drawingScale="0.0393701" v:drawingUnits="24" v:pageScale="0.0393701" v:shadowOffsetX="8.50394" v:shadowOffsetY="-8.50394">
		</v:pageProperties>
	<v:layer  v:index="0" v:name="Callout"></v:layer>
	<g id="shape404-1" transform="translate(120.472,-81.3771)">
		<path class="st0" d="M38.3,301.2l-7.1-49H6l-6,24.2L38.3,301.2z"/>
	</g>
	<g id="shape394-3" transform="translate(145.257,-254.248)">
		<path class="st1" d="M1,276.9H0v24.3l1,0L1,276.9z"/>
	</g>
	<g id="shape207-5" transform="translate(222.097,-65.7954) scale(-1,1)">
		<path class="st1" d="M7.1,202.4l43.1-50.2v-12.4h11.5v-3h-7.4v-7.5l-3.7-2.2V119h3.7h-3.7v8.2l-5.2,10.5h-3.1l0.7-24.9l4.7,0.3
			v-10.4h9.7v4.5h14.4V88.4h4.2V113H55.7h13v10.4h-4l0.1,53.7l-12,74.5l-9.7,6L12.2,297l-4.4,4.2L0,286.9v-70.6L7.1,202.4z"/>
	</g>
	<g id="shape211-7" transform="translate(204.893,-60.2493)">
		
			<linearGradient id="SVGID_1_" gradientUnits="userSpaceOnUse" x1="-353.8021" y1="642.5358" x2="-352.8021" y2="642.5358" gradientTransform="matrix(8.878690e-16 29.7 14.5 -1.818601e-15 -9309.5195 10779.3867)">
			<stop  offset="0.38" style="stop-color:#DBEEF3"/>
			<stop  offset="0.81" style="stop-color:#D8D8D8"/>
		</linearGradient>
		<path class="st2" d="M2.9,292.5v8.6h2.9l8.7-15.7l-8.2-14L0,284.4l4.3,5.5l0,4.1L2.9,292.5z"/>
	</g>
	<g id="shape208-11" transform="translate(233.493,-80.0297) scale(-1,1)">
		
			<linearGradient id="SVGID_00000083081316727769844850000016984689880863192207_" gradientUnits="userSpaceOnUse" x1="404.7037" y1="647.5927" x2="405.7037" y2="647.5927" gradientTransform="matrix(-11.96 0 0 -70.55 4840.2563 45953.5469)">
			<stop  offset="7.000000e-02" style="stop-color:#000000"/>
			<stop  offset="1" style="stop-color:#DBEEF3"/>
		</linearGradient>
		<path style="fill-rule:evenodd;clip-rule:evenodd;fill:url(#SVGID_00000083081316727769844850000016984689880863192207_);" d="
			M12,301.2L0,279.6V254l12-23.4V301.2z"/>
	</g>
	<g id="shape209-15" transform="translate(240.28,-101.564) scale(-1,1)">
		<path class="st4" d="M6.8,275.5L0,288.9l6.8,12.3V275.5z"/>
	</g>
	<g id="shape200-17" transform="translate(57.1049,-66.2923)">
		<path class="st1" d="M7.1,202.4l43.1-50.2v-12.4h11.5v-3h-7.4v-7.5l-3.7-2.2V119h3.7h-3.7v8.2l-5.2,10.5h-3.1V113h5.4v-10.4h9.7
			v4.5h14.4V88.4h4.2V113H55.7h13v10.4h-4l0.1,53.7l-12,74.5l-9.7,6L12.2,297l-4.4,4.2L0,286.9v-70.6L7.1,202.4z"/>
	</g>
	<g id="shape205-19" transform="translate(57.1049,-65.2064)">
		
			<linearGradient id="SVGID_00000130617395723749168680000005154890704148280474_" gradientUnits="userSpaceOnUse" x1="-205.0265" y1="646.6345" x2="-204.0265" y2="646.6345" gradientTransform="matrix(9.637971e-16 26.79 15.74 -1.640415e-15 -10170.1572 5767.0322)">
			<stop  offset="0.34" style="stop-color:#DBEEF3"/>
			<stop  offset="0.84" style="stop-color:#D8D8D8"/>
		</linearGradient>
		<path style="fill-rule:evenodd;clip-rule:evenodd;fill:url(#SVGID_00000130617395723749168680000005154890704148280474_);" d="
			M8.5,301.2l4.1-4.1l-0.3-1.2l3.5-4.5L11,274.4L0,285.8L8.5,301.2z"/>
	</g>
	<g id="shape202-23" transform="translate(45.1416,-80.5266)">
		
			<linearGradient id="SVGID_00000143595044191728630190000008959622484693014194_" gradientUnits="userSpaceOnUse" x1="-189.9309" y1="648.0895" x2="-188.9309" y2="648.0895" gradientTransform="matrix(11.96 0 0 -70.55 2271.5735 45988.6055)">
			<stop  offset="7.000000e-02" style="stop-color:#000000"/>
			<stop  offset="1" style="stop-color:#DBEEF3"/>
		</linearGradient>
		<path style="fill-rule:evenodd;clip-rule:evenodd;fill:url(#SVGID_00000143595044191728630190000008959622484693014194_);" d="
			M12,301.2L0,279.6V254l12-23.4V301.2z"/>
	</g>
	<g id="shape203-26" transform="translate(38.3109,-102.06)">
		<path class="st4" d="M6.8,275.5L0,288.9l6.8,12.3V275.5z"/>
	</g>
	<g id="shape195-28" transform="translate(64.9099,-60.2493)">
		<path class="st7" d="M68.1,78.6h12.3v137.9c7.8,8.2,16-3.7,16.2-20.7l8,49.7l-0.8,3l41,46.3l2.9,2.9l-2,3.5H142l-43.1-51.8
			l-2.2-15.7l-2.6-0.8v-4.3c-10.9,0-19.7-3.8-19.8-8.4c0,4.5-8.4,8.2-18.7,8.2v4.4l-2.5,0.8l-2.2,15.6l-44,51.4H3.2L0,295.1l4.4-4.2
			l0.8,3l40.4-45.4l-0.7-3l8-49.5c-0.5,22.7,5.4,24.2,15.1,20.4V78.6z"/>
	</g>
	<g id="shape190-30" transform="translate(20.2442,-114.356)">
		<path class="st0" d="M79.1,164.6h-7.8v20.3h4.2v16.5l-35,41.6l-9.7,13.8H0.2L0,301.1l18.1,0L44,250.5l38.2-45.6v-19.2h-3.1V164.6z
			"/>
	</g>
	<g id="shape186-32" transform="translate(102.404,-210.644)">
		<path class="st0" d="M5.2,271.5l3.7,2.2v7.5h7.5v3H4.9v12.4L0,301.2V282L5.2,271.5z"/>
	</g>
	<g id="shape185-34" transform="translate(159.723,-210.427)">
		<path class="st0" d="M11.2,271.5l5.2,10.5v19.2l-4.9-4.6v-12.4H0v-3h7.4v-7.5L11.2,271.5z"/>
	</g>
	<g id="shape181-36" transform="translate(145.55,-250.718)">
		<rect x="0" y="297.6" class="st8" width="7.2" height="3.5"/>
	</g>
	<g id="shape180-38" transform="translate(125.782,-250.936)">
		<rect x="0" y="297.6" class="st0" width="7.2" height="3.5"/>
	</g>
	<g id="shape179-40" transform="translate(99.3175,-254.466)">
		<path class="st0" d="M0,276.6h29.5v14.2H5.4v10.4H0V276.6z"/>
	</g>
	<g id="shape178-42" transform="translate(149.76,-254.248)">
		<path class="st0" d="M0.3,276.4h29.4l-0.2,24.8h-5.4v-10.4H0L0.3,276.4z"/>
	</g>
	<g id="shape174-44" transform="translate(120.604,-128.398)">
		<path class="st8" d="M0,296.6c10.3,0,18.7-3.7,18.7-8.2c0,0,0,0,0,0c0,4.7,8.8,8.4,19.7,8.4c0,0,0,0,0,0v4.4L0,301V296.6z"/>
	</g>
	<g id="shape173-46" transform="translate(139.388,-20.4506)">
		<path class="st9" d="M0,297.4c1.7,3.4,5.9,4.7,9.2,3c1.3-0.7,2.3-1.7,3-3c-1.7-3.4-5.9-4.7-9.2-3C1.7,295.1,0.7,296.2,0,297.4z"/>
	</g>
	<g id="shape170-48" transform="translate(146.971,-37.9658)">
		<path class="st0" d="M0,210.6L4.6,271v30.2h64.5L82,284.8l24.5-16v-7.4h7v-35.8l-20.1-0.2l-29.6,53.6H60l-43.1-51.8l-2.2-15.6
			l-2.6-0.7L0,210.6z"/>
	</g>
	<g id="shape171-50" transform="translate(18.375,-37.9658)">
		<path class="st0" d="M113.4,210.6l-4.6,60.4v30.2H44.3l-12.9-16.4L7,268.7v-7.4H0l0.1-36.6l19.9,0l29.8,53.7h3.7l44-51.4l2.2-15.6
			l2.6-0.8H113.4z"/>
	</g>
	<g id="shape69-52" transform="translate(446.418,18.375) rotate(90)">
		<path class="st10" d="M0,301.2h137.9"/>
	</g>
	<g id="shape70-55" transform="translate(434.121,18.375) rotate(90)">
		<path class="st10" d="M0,301.2h137.9"/>
	</g>
	<g id="shape81-58" transform="translate(132.96,364.252) rotate(180)">
		<path class="st11" d="M0,301.2h6"/>
	</g>
	<g id="shape82-61" transform="translate(427.301,85.0404) rotate(94.1796)">
		<path class="st11" d="M0,301.2h29.9"/>
	</g>
	<g id="shape83-64" transform="translate(124.762,-208.259)">
		<path class="st11" d="M0,301.2h8.2"/>
	</g>
	<g id="shape84-67" transform="translate(422.081,140.856) rotate(99.1623)">
		<path class="st10" d="M0,301.2l93.6,0"/>
	</g>
	<g id="shape85-70" transform="translate(267.694,441.801) rotate(148.393)">
		<path class="st11" d="M0,301.2h11.4"/>
	</g>
	<g id="shape86-73" transform="translate(337.425,376.769) rotate(128.019)">
		<path class="st11" d="M0,301.2h50"/>
	</g>
	<g id="shape87-76" transform="translate(359.312,149.31) rotate(74.3228)">
		<path class="st11" d="M0,301.2h3.1"/>
	</g>
	<g id="shape88-79" transform="translate(-154.706,33.371) rotate(-48.311)">
		<path class="st11" d="M0,301.2h60.8"/>
	</g>
	<g id="shape89-82" transform="translate(-181.568,261.335) rotate(-104.036)">
		<path class="st11" d="M0,301.2h3.1"/>
	</g>
	<g id="shape103-85" transform="translate(146.375,364.177) scale(1,-1)">
		<path class="st11" d="M0,301.2h6"/>
	</g>
	<g id="shape105-88" transform="translate(154.573,-208.335) scale(-1,1)">
		<path class="st11" d="M0,301.2h8.2"/>
	</g>
	<g id="shape106-91" transform="translate(-142.746,140.781) rotate(80.8377) scale(1,-1)">
		<path class="st10" d="M0,301.2l93.6,0"/>
	</g>
	<g id="shape107-94" transform="translate(11.6407,441.726) rotate(31.6074) scale(1,-1)">
		<path class="st11" d="M0,301.2h11.4"/>
	</g>
	<g id="shape108-97" transform="translate(-58.0905,376.693) rotate(51.9811) scale(1,-1)">
		<path class="st11" d="M0,301.2l48.8,0"/>
	</g>
	<g id="shape109-100" transform="translate(-91.9359,231.042) rotate(89.7343) scale(1,-1)">
		<path class="st11" d="M0,301.2h4.1"/>
	</g>
	<g id="shape110-103" transform="translate(434.137,33.405) rotate(48.311) scale(-1,1)">
		<path class="st11" d="M0,301.2h60.9"/>
	</g>
	<g id="shape111-106" transform="translate(460.903,261.26) rotate(-75.9644) scale(1,-1)">
		<path class="st11" d="M0,301.2h3.1"/>
	</g>
	<g id="shape122-109" transform="translate(111.347,-227.636)">
		<path class="st10" d="M7.4,301.2v-3H0v-7.4h8.2"/>
	</g>
	<g id="shape123-112" transform="translate(117.309,-244.032)">
		<path class="st10" d="M0,301.2h15.6"/>
	</g>
	<g id="shape124-115" transform="translate(112.838,-247.013)">
		<path class="st10" d="M14.9,301.2h-2v-3.9v-3.5H0"/>
	</g>
	<g id="shape131-118" transform="translate(109.857,-260.428)">
		<path class="st10" d="M18.9,282.5v18.6H0"/>
	</g>
	<g id="shape132-121" transform="translate(102.404,-229.822)">
		<path class="st10" d="M0,301.2l5.2-10.5v-8.2h13.4"/>
	</g>
	<g id="shape138-124" transform="translate(341.081,362.404) rotate(129.094)">
		<path class="st10" d="M0,301.2h61.5"/>
	</g>
	<g id="shape141-127" transform="translate(341.081,350.48) rotate(129.094)">
		<path class="st10" d="M0,301.2h61.5"/>
	</g>
	<g id="shape142-130" transform="translate(341.081,340.605) rotate(129.094)">
		<path class="st10" d="M0,301.2h61.5"/>
	</g>
	<g id="shape143-133" transform="translate(341.081,329.612) rotate(129.094)">
		<path class="st10" d="M0,301.2h61.5"/>
	</g>
	<g id="shape144-136" transform="translate(341.081,319.179) rotate(129.094)">
		<path class="st10" d="M0,301.2h61.5"/>
	</g>
	<g id="shape145-139" transform="translate(341.081,308.745) rotate(129.094)">
		<path class="st10" d="M0,301.2h61.5"/>
	</g>
	<g id="shape146-142" transform="translate(341.081,298.311) rotate(129.094)">
		<path class="st10" d="M0,301.2h61.5"/>
	</g>
	<g id="shape147-145" transform="translate(341.081,286.387) rotate(129.094)">
		<path class="st10" d="M0,301.2h61.5"/>
	</g>
	<g id="shape148-148" transform="translate(-62.2392,361.997) rotate(50.9061) scale(1,-1)">
		<path class="st10" d="M0,301.2l61.5,0"/>
	</g>
	<g id="shape149-151" transform="translate(-62.2392,352.122) rotate(50.9061) scale(1,-1)">
		<path class="st10" d="M0,301.2l61.5,0"/>
	</g>
	<g id="shape150-154" transform="translate(-62.2392,341.129) rotate(50.9061) scale(1,-1)">
		<path class="st10" d="M0,301.2l61.5,0"/>
	</g>
	<g id="shape151-157" transform="translate(-62.2392,330.696) rotate(50.9061) scale(1,-1)">
		<path class="st10" d="M0,301.2l61.5,0"/>
	</g>
	<g id="shape152-160" transform="translate(-62.2392,320.262) rotate(50.9061) scale(1,-1)">
		<path class="st10" d="M0,301.2l61.5,0"/>
	</g>
	<g id="shape153-163" transform="translate(-62.2392,309.828) rotate(50.9061) scale(1,-1)">
		<path class="st10" d="M0,301.2l61.5,0"/>
	</g>
	<g id="shape154-166" transform="translate(-62.2392,297.904) rotate(50.9061) scale(1,-1)">
		<path class="st10" d="M0,301.2l61.5,0"/>
	</g>
	<g id="shape156-169" transform="translate(176.119,372.717) scale(1,-1)">
		<path class="st11" d="M0,301.2h3.1"/>
	</g>
	<g id="shape159-172" transform="translate(167.176,-227.419) scale(-1,1)">
		<path class="st10" d="M7.4,301.2v-3H0v-7.4h8.2"/>
	</g>
	<g id="shape160-175" transform="translate(161.214,-243.815) scale(-1,1)">
		<path class="st10" d="M0,301.2h15.6"/>
	</g>
	<g id="shape161-178" transform="translate(165.686,-246.796) scale(-1,1)">
		<path class="st10" d="M14.9,301.2h-2v-3.9v-3.5H0"/>
	</g>
	<g id="shape162-181" transform="translate(152.741,-250.718) scale(-1,1)">
		<path class="st10" d="M0,301.2h7.2"/>
	</g>
	<g id="shape163-184" transform="translate(168.667,-260.211) scale(-1,1)">
		<path class="st10" d="M18.9,282.5v18.6H0"/>
	</g>
	<g id="shape164-187" transform="translate(176.119,-229.605) scale(-1,1)">
		<path class="st10" d="M0,301.2l5.2-10.5v-8.2h13.5"/>
	</g>
	<g id="shape175-190" transform="translate(69.3547,-67.4916)">
		<path class="st0" d="M40.5,252.8l0.8,3L0.8,301.2l-0.8-3l30.8-39.4L40.5,252.8z"/>
	</g>
	<g id="shape176-192" transform="translate(168.733,-67.4576)">
		<path class="st0" d="M0.7,252.7l-0.8,3l40.5,45.5l0-4.1l-30.1-38.4L0.7,252.7z"/>
	</g>
	<g id="shape191-194" transform="translate(257.953,-113.61) scale(-1,1)">
		<path class="st0" d="M79,163.9h-7.8v20.3h4.2v16.5l-35,41.6l-9.7,13.8H0.2L0,301.2l17.7-0.2L44,249.8l38.2-45.6V185H79V163.9z"/>
	</g>
	<g id="shape192-196" transform="translate(124.762,-208.259)">
		<path class="st0" d="M8.2,271.4h-6L0,301.2h8.2V271.4z"/>
	</g>
	<g id="shape194-198" transform="translate(145.257,-208.259)">
		<path class="st0" d="M0,271.4l7.1-0.1l2.2,29.8L0,301.2V271.4z"/>
	</g>
	<g id="group221-200" transform="translate(136.212,-263.361)">
		<g id="shape216-201" transform="translate(0.566927,-3.40158)">
			<ellipse class="st12" cx="0.9" cy="300.3" rx="0.9" ry="0.9"/>
		</g>
		<g id="shape217-203" transform="translate(1.41732,-1.44066)">
			<ellipse class="st13" cx="0.9" cy="300.3" rx="0.9" ry="0.9"/>
		</g>
		<g id="shape218-205" transform="translate(2.55118,-3.40158)">
			<ellipse class="st0" cx="0.9" cy="300.3" rx="0.9" ry="0.9"/>
		</g>
		<g id="shape219-207">
			<ellipse class="st0" cx="0.9" cy="300.3" rx="0.9" ry="0.9"/>
		</g>
		<g id="shape220-209" transform="translate(3.40158,-1.44066)">
			<ellipse class="st14" cx="0.9" cy="300.3" rx="0.9" ry="0.9"/>
		</g>
	</g>
	<g id="group228-211" transform="translate(137.157,-250.936)">
		<g id="shape222-212" transform="translate(0.704447,-1.16141)">
			<ellipse class="st13" cx="0.4" cy="300.8" rx="0.4" ry="0.4"/>
		</g>
		<g id="shape223-214" transform="translate(1.70079,-1.16141)">
			<ellipse class="st0" cx="0.9" cy="300.3" rx="0.9" ry="0.9"/>
		</g>
		<g id="shape224-216" transform="translate(0,-2.46455)">
			<ellipse class="st12" cx="1.2" cy="300" rx="1.2" ry="1.2"/>
		</g>
		<g id="shape225-218" transform="translate(2.97216,-3.31073)">
			<ellipse class="st13" cx="0.4" cy="300.8" rx="0.4" ry="0.4"/>
		</g>
		<g id="shape226-220" transform="translate(3.68504,-2.14932)">
			<ellipse class="st13" cx="0.4" cy="300.8" rx="0.4" ry="0.4"/>
		</g>
		<g id="shape227-222" transform="translate(3.68504,5.68434E-14)">
			<ellipse class="st14" cx="0.9" cy="300.3" rx="0.9" ry="0.9"/>
		</g>
	</g>
	<g id="shape229-224" transform="translate(140.842,-240.382)">
		<ellipse class="st13" cx="0.9" cy="300.3" rx="0.9" ry="0.9"/>
	</g>
	<g id="shape230-226" transform="translate(136.428,-236.369)">
		<ellipse class="st13" cx="0.9" cy="300.3" rx="0.9" ry="0.9"/>
	</g>
	<g id="shape231-228" transform="translate(137.157,-244.634)">
		<ellipse class="st0" cx="0.4" cy="300.7" rx="0.4" ry="0.4"/>
	</g>
	<g id="group232-230" transform="translate(411.726,195.074) rotate(115)">
		<g id="shape233-231" transform="translate(0.704447,-1.16141)">
			
				<ellipse transform="matrix(0.4226 0.9063 -0.9063 0.4226 272.8274 173.3555)" class="st13" cx="0.4" cy="300.8" rx="0.4" ry="0.4"/>
		</g>
		<g id="shape234-233" transform="translate(1.70079,-1.16141)">
			<ellipse class="st0" cx="0.9" cy="300.3" rx="0.9" ry="0.9"/>
		</g>
		<g id="shape235-235" transform="translate(0,-2.46455)">
			<ellipse class="st12" cx="1.2" cy="300" rx="1.2" ry="1.2"/>
		</g>
		<g id="shape236-237" transform="translate(2.97216,-3.31073)">
			
				<ellipse transform="matrix(0.4226 0.9063 -0.9063 0.4226 272.8274 173.3555)" class="st13" cx="0.4" cy="300.8" rx="0.4" ry="0.4"/>
		</g>
		<g id="shape237-239" transform="translate(3.68504,-2.14932)">
			
				<ellipse transform="matrix(0.4226 0.9063 -0.9063 0.4226 272.8274 173.3555)" class="st13" cx="0.4" cy="300.8" rx="0.4" ry="0.4"/>
		</g>
		<g id="shape238-241" transform="translate(3.68504,5.68434E-14)">
			<ellipse class="st14" cx="0.9" cy="300.3" rx="0.9" ry="0.9"/>
		</g>
	</g>
	<g id="shape239-243" transform="translate(137.157,-230.416)">
		<ellipse class="st13" cx="0.9" cy="300.3" rx="0.9" ry="0.9"/>
	</g>
	<g id="group250-245" transform="translate(34.4666,-194.378) rotate(-20)">
		<g id="shape240-246" transform="translate(0.996339,-7.51602)">
			
				<ellipse transform="matrix(-1 2.824252e-06 -2.824252e-06 -1 1.7016 600.6223)" class="st14" cx="0.9" cy="300.3" rx="0.9" ry="0.9"/>
		</g>
		<g id="shape243-248" transform="translate(0,-7.07643)">
			
				<ellipse transform="matrix(-1 2.808169e-06 -2.808169e-06 -1 1.2806 601.0423)" class="st12" cx="0.6" cy="300.5" rx="0.6" ry="0.6"/>
		</g>
		<g id="shape244-250" transform="translate(0.996339,-4.11445)">
			
				<ellipse transform="matrix(-1 2.818776e-06 -2.818776e-06 -1 3.1189 599.2043)" class="st13" cx="1.6" cy="299.6" rx="1.6" ry="1.6"/>
		</g>
		<g id="shape245-252" transform="translate(2.98059,-7.51602)">
			
				<ellipse transform="matrix(-1 2.849249e-06 -2.849249e-06 -1 1.2806 601.0423)" class="st13" cx="0.6" cy="300.5" rx="0.6" ry="0.6"/>
		</g>
		<g id="shape246-254" transform="translate(0.996339,-2.25753)">
			
				<ellipse transform="matrix(-1 2.824252e-06 -2.824252e-06 -1 1.7016 600.6223)" class="st0" cx="0.9" cy="300.3" rx="0.9" ry="0.9"/>
		</g>
		<g id="shape247-256" transform="translate(1.84673,-0.400603)">
			
				<ellipse transform="matrix(-1 2.801241e-06 -2.801241e-06 -1 1.7016 600.6223)" class="st14" cx="0.9" cy="300.3" rx="0.9" ry="0.9"/>
		</g>
		<g id="shape248-258" transform="translate(3.54752,-5.68434E-14)">
			
				<ellipse transform="matrix(-1 2.793224e-06 -2.793224e-06 -1 1.2806 601.0423)" class="st12" cx="0.6" cy="300.5" rx="0.6" ry="0.6"/>
		</g>
		<g id="shape249-260" transform="translate(4.82733,-0.400603)">
			
				<ellipse transform="matrix(-1 2.770530e-06 -2.770530e-06 -1 1.2806 601.0423)" class="st13" cx="0.6" cy="300.5" rx="0.6" ry="0.6"/>
		</g>
	</g>
	<g id="shape251-262" transform="translate(139.061,-203.815)">
		<ellipse class="st13" cx="0.9" cy="300.3" rx="0.9" ry="0.9"/>
	</g>
	<g id="shape252-264" transform="translate(137.927,-198.713)">
		<ellipse class="st12" cx="0.9" cy="300.3" rx="0.9" ry="0.9"/>
	</g>
	<g id="shape253-266" transform="translate(141.896,-191.91)">
		<ellipse class="st13" cx="0.9" cy="300.3" rx="0.9" ry="0.9"/>
	</g>
	<g id="shape254-268" transform="translate(140.762,-186.807)">
		<ellipse class="st12" cx="0.9" cy="300.3" rx="0.9" ry="0.9"/>
	</g>
	<g id="shape255-270" transform="translate(136.226,-187.658)">
		<ellipse class="st13" cx="0.9" cy="300.3" rx="0.9" ry="0.9"/>
	</g>
	<g id="shape256-272" transform="translate(135.093,-182.555)">
		<ellipse class="st12" cx="0.9" cy="300.3" rx="0.9" ry="0.9"/>
	</g>
	<g id="group257-274" transform="translate(438.24,124.036) rotate(90)">
		<g id="shape258-275" transform="translate(0.704447,-1.16141)">
			
				<ellipse transform="matrix(2.535182e-06 1 -1 2.535182e-06 301.1617 300.4475)" class="st13" cx="0.4" cy="300.8" rx="0.4" ry="0.4"/>
		</g>
		<g id="shape259-277" transform="translate(1.70079,-1.16141)">
			
				<ellipse transform="matrix(2.535182e-06 1 -1 2.535182e-06 301.1617 299.4596)" class="st0" cx="0.9" cy="300.3" rx="0.9" ry="0.9"/>
		</g>
		<g id="shape260-279" transform="translate(0,-2.46455)">
			
				<ellipse transform="matrix(2.535182e-06 1 -1 2.535182e-06 301.1609 298.7544)" class="st12" cx="1.2" cy="300" rx="1.2" ry="1.2"/>
		</g>
		<g id="shape261-281" transform="translate(2.97216,-3.31073)">
			
				<ellipse transform="matrix(2.535182e-06 1 -1 2.535182e-06 301.1617 300.4475)" class="st13" cx="0.4" cy="300.8" rx="0.4" ry="0.4"/>
		</g>
		<g id="shape262-283" transform="translate(3.68504,-2.14932)">
			
				<ellipse transform="matrix(2.535182e-06 1 -1 2.535182e-06 301.1617 300.4475)" class="st13" cx="0.4" cy="300.8" rx="0.4" ry="0.4"/>
		</g>
		<g id="shape263-285" transform="translate(3.68504,5.68434E-14)">
			
				<ellipse transform="matrix(2.535182e-06 1 -1 2.535182e-06 301.1617 299.4596)" class="st14" cx="0.9" cy="300.3" rx="0.9" ry="0.9"/>
		</g>
	</g>
	<g id="group267-287" transform="translate(136.089,-191.059)">
		<g id="shape264-288" transform="translate(0,-1.70075)">
			<ellipse class="st13" cx="0.9" cy="300.3" rx="0.9" ry="0.9"/>
		</g>
		<g id="shape265-290" transform="translate(0.850419,1.13687E-13)">
			<ellipse class="st0" cx="0.9" cy="300.3" rx="0.9" ry="0.9"/>
		</g>
		<g id="shape266-292" transform="translate(1.70081,-1.70075)">
			<ellipse class="st12" cx="0.9" cy="300.3" rx="0.9" ry="0.9"/>
		</g>
	</g>
	<g id="group268-294" transform="translate(123.187,-137.784)">
		<g id="shape269-295" transform="translate(0,-1.70075)">
			<ellipse class="st13" cx="0.9" cy="300.3" rx="0.9" ry="0.9"/>
		</g>
		<g id="shape270-297" transform="translate(0.850419,1.13687E-13)">
			<ellipse class="st0" cx="0.9" cy="300.3" rx="0.9" ry="0.9"/>
		</g>
		<g id="shape271-299" transform="translate(1.70081,-1.70075)">
			<ellipse class="st12" cx="0.9" cy="300.3" rx="0.9" ry="0.9"/>
		</g>
	</g>
	<g id="shape272-301" transform="translate(141.329,-158.177)">
		<ellipse class="st13" cx="0.9" cy="300.3" rx="0.9" ry="0.9"/>
	</g>
	<g id="shape273-303" transform="translate(139.467,-158.177)">
		<ellipse class="st12" cx="0.9" cy="300.3" rx="0.9" ry="0.9"/>
	</g>
	<g id="shape274-305" transform="translate(158.904,-142.587)">
		<ellipse class="st13" cx="0.9" cy="300.3" rx="0.9" ry="0.9"/>
	</g>
	<g id="shape275-307" transform="translate(160.321,-142.587)">
		<ellipse class="st13" cx="0.4" cy="300.7" rx="0.4" ry="0.4"/>
	</g>
	<g id="shape276-309" transform="translate(162.446,-137.784)">
		<ellipse class="st13" cx="0.4" cy="300.7" rx="0.4" ry="0.4"/>
	</g>
	<g id="shape277-311" transform="translate(160.321,-136.933)">
		<ellipse class="st13" cx="0.9" cy="300.3" rx="0.9" ry="0.9"/>
	</g>
	<g id="group278-313" transform="translate(48.817,-117.121) rotate(-20)">
		<g id="shape279-314" transform="translate(0.704447,-1.16141)">
			
				<ellipse transform="matrix(-0.9397 -0.342 0.342 -0.9397 -102.1893 583.5917)" class="st13" cx="0.4" cy="300.8" rx="0.4" ry="0.4"/>
		</g>
		<g id="shape280-316" transform="translate(1.70079,-1.16141)">
			
				<ellipse transform="matrix(-1 2.806225e-06 -2.806225e-06 -1 1.7016 600.6223)" class="st0" cx="0.9" cy="300.3" rx="0.9" ry="0.9"/>
		</g>
		<g id="shape281-318" transform="translate(0,-2.46455)">
			
				<ellipse transform="matrix(-1 2.783710e-06 -2.783710e-06 -1 2.4061 599.9163)" class="st12" cx="1.2" cy="300" rx="1.2" ry="1.2"/>
		</g>
		<g id="shape282-320" transform="translate(2.97216,-3.31073)">
			
				<ellipse transform="matrix(-0.9397 -0.342 0.342 -0.9397 -102.1893 583.5917)" class="st13" cx="0.4" cy="300.8" rx="0.4" ry="0.4"/>
		</g>
		<g id="shape283-322" transform="translate(3.68504,-2.14932)">
			
				<ellipse transform="matrix(-0.9397 -0.342 0.342 -0.9397 -102.1893 583.5917)" class="st13" cx="0.4" cy="300.8" rx="0.4" ry="0.4"/>
		</g>
		<g id="shape284-324" transform="translate(3.68504,5.68434E-14)">
			
				<ellipse transform="matrix(-1 2.832336e-06 -2.832336e-06 -1 1.7016 600.6223)" class="st14" cx="0.9" cy="300.3" rx="0.9" ry="0.9"/>
		</g>
	</g>
	<g id="shape285-326" transform="translate(136.361,-142.587)">
		<ellipse class="st13" cx="0.9" cy="300.3" rx="0.9" ry="0.9"/>
	</g>
	<g id="group286-328" transform="translate(63.2729,-76.9012)">
		<g id="shape287-329" transform="translate(0,-1.70075)">
			<ellipse class="st13" cx="0.9" cy="300.3" rx="0.9" ry="0.9"/>
		</g>
		<g id="shape288-331" transform="translate(0.850419,1.13687E-13)">
			<ellipse class="st0" cx="0.9" cy="300.3" rx="0.9" ry="0.9"/>
		</g>
		<g id="shape289-333" transform="translate(1.70081,-1.70075)">
			<ellipse class="st12" cx="0.9" cy="300.3" rx="0.9" ry="0.9"/>
		</g>
	</g>
	<g id="shape290-335" transform="translate(62.5257,-114.145)">
		<ellipse class="st12" cx="0.9" cy="300.3" rx="0.9" ry="0.9"/>
	</g>
	<g id="shape291-337" transform="translate(69.6473,-121.327)">
		<ellipse class="st12" cx="0.9" cy="300.3" rx="0.9" ry="0.9"/>
	</g>
	<g id="shape292-339" transform="translate(74.2395,-114.145)">
		<ellipse class="st12" cx="0.9" cy="300.3" rx="0.9" ry="0.9"/>
	</g>
	<g id="shape293-341" transform="translate(83.2186,-105.169)">
		<ellipse class="st13" cx="0.9" cy="300.3" rx="0.9" ry="0.9"/>
	</g>
	<g id="shape294-343" transform="translate(83.8111,-90.8185)">
		<ellipse class="st13" cx="0.9" cy="300.3" rx="0.9" ry="0.9"/>
	</g>
	<g id="shape295-345" transform="translate(62.5257,-133.516)">
		<ellipse class="st13" cx="0.9" cy="300.3" rx="0.9" ry="0.9"/>
	</g>
	<g id="group296-347" transform="translate(61.8373,-88.2336)">
		<g id="shape297-348" transform="translate(0.704447,-1.16141)">
			<ellipse class="st13" cx="0.4" cy="300.8" rx="0.4" ry="0.4"/>
		</g>
		<g id="shape298-350" transform="translate(1.70079,-1.16141)">
			<ellipse class="st0" cx="0.9" cy="300.3" rx="0.9" ry="0.9"/>
		</g>
		<g id="shape299-352" transform="translate(0,-2.46455)">
			<ellipse class="st12" cx="1.2" cy="300" rx="1.2" ry="1.2"/>
		</g>
		<g id="shape300-354" transform="translate(2.97216,-3.31073)">
			<ellipse class="st13" cx="0.4" cy="300.8" rx="0.4" ry="0.4"/>
		</g>
		<g id="shape301-356" transform="translate(3.68504,-2.14932)">
			<ellipse class="st13" cx="0.4" cy="300.8" rx="0.4" ry="0.4"/>
		</g>
		<g id="shape302-358" transform="translate(3.68504,5.68434E-14)">
			<ellipse class="st14" cx="0.9" cy="300.3" rx="0.9" ry="0.9"/>
		</g>
	</g>
	<g id="group303-360" transform="translate(-127.822,412.193) rotate(-140)">
		<g id="shape304-361" transform="translate(0.996339,-7.51602)">
			
				<ellipse transform="matrix(-3.062702e-06 -1 1 -3.062702e-06 -299.4604 301.1621)" class="st14" cx="0.9" cy="300.3" rx="0.9" ry="0.9"/>
		</g>
		<g id="shape305-363" transform="translate(0,-7.07643)">
			
				<ellipse transform="matrix(-3.133702e-06 -1 1 -3.133702e-06 -299.8809 301.1617)" class="st12" cx="0.6" cy="300.5" rx="0.6" ry="0.6"/>
		</g>
		<g id="shape306-365" transform="translate(0.996339,-4.11445)">
			
				<ellipse transform="matrix(-3.105106e-06 -1 1 -3.105106e-06 -298.0428 301.1618)" class="st13" cx="1.6" cy="299.6" rx="1.6" ry="1.6"/>
		</g>
		<g id="shape307-367" transform="translate(2.98059,-7.51602)">
			
				<ellipse transform="matrix(-3.072983e-06 -1 1 -3.072983e-06 -299.8809 301.1617)" class="st13" cx="0.6" cy="300.5" rx="0.6" ry="0.6"/>
		</g>
		<g id="shape308-369" transform="translate(0.996339,-2.25753)">
			
				<ellipse transform="matrix(-3.025247e-06 -1 1 -3.025247e-06 -299.4604 301.1621)" class="st0" cx="0.9" cy="300.3" rx="0.9" ry="0.9"/>
		</g>
		<g id="shape309-371" transform="translate(1.84673,-0.400603)">
			
				<ellipse transform="matrix(-3.043985e-06 -1 1 -3.043985e-06 -299.4604 301.1621)" class="st14" cx="0.9" cy="300.3" rx="0.9" ry="0.9"/>
		</g>
		<g id="shape310-373" transform="translate(3.54752,-5.68434E-14)">
			
				<ellipse transform="matrix(-3.041949e-06 -1 1 -3.041949e-06 -299.8809 301.1617)" class="st12" cx="0.6" cy="300.5" rx="0.6" ry="0.6"/>
		</g>
		<g id="shape311-375" transform="translate(4.82733,-0.400603)">
			
				<ellipse transform="matrix(-3.155484e-06 -1 1 -3.155484e-06 -299.8809 301.1617)" class="st13" cx="0.6" cy="300.5" rx="0.6" ry="0.6"/>
		</g>
	</g>
	<g id="shape312-377" transform="translate(58.5572,-125.862)">
		<ellipse class="st13" cx="1.7" cy="299.5" rx="1.7" ry="1.7"/>
	</g>
	<g id="shape314-379" transform="translate(64.2523,-105.169)">
		<ellipse class="st13" cx="1.7" cy="299.5" rx="1.7" ry="1.7"/>
	</g>
	<g id="shape315-381" transform="translate(100.793,-127.563)">
		<ellipse class="st13" cx="0.4" cy="300.7" rx="0.4" ry="0.4"/>
	</g>
	<g id="shape316-383" transform="translate(69.6123,-153.075)">
		<ellipse class="st13" cx="0.9" cy="300.3" rx="0.9" ry="0.9"/>
	</g>
	<g id="shape317-385" transform="translate(65.3604,-144.004)">
		<ellipse class="st13" cx="0.9" cy="300.3" rx="0.9" ry="0.9"/>
	</g>
	<g id="group318-387" transform="translate(356.277,58.0907) rotate(75)">
		<g id="shape319-388" transform="translate(0.704447,-1.16141)">
			
				<ellipse transform="matrix(-0.2588 0.9659 -0.9659 -0.2588 291.0046 378.3138)" class="st13" cx="0.4" cy="300.8" rx="0.4" ry="0.4"/>
		</g>
		<g id="shape320-390" transform="translate(1.70079,-1.16141)">
			
				<ellipse transform="matrix(2.645781e-06 1 -1 2.645781e-06 301.1617 299.4596)" class="st0" cx="0.9" cy="300.3" rx="0.9" ry="0.9"/>
		</g>
		<g id="shape321-392" transform="translate(0,-2.46455)">
			
				<ellipse transform="matrix(2.620147e-06 1 -1 2.620147e-06 301.1609 298.7543)" class="st12" cx="1.2" cy="300" rx="1.2" ry="1.2"/>
		</g>
		<g id="shape322-394" transform="translate(2.97216,-3.31073)">
			
				<ellipse transform="matrix(-0.2588 0.9659 -0.9659 -0.2588 291.0046 378.3138)" class="st13" cx="0.4" cy="300.8" rx="0.4" ry="0.4"/>
		</g>
		<g id="shape323-396" transform="translate(3.68504,-2.14932)">
			
				<ellipse transform="matrix(-0.2588 0.9659 -0.9659 -0.2588 291.0046 378.3138)" class="st13" cx="0.4" cy="300.8" rx="0.4" ry="0.4"/>
		</g>
		<g id="shape324-398" transform="translate(3.68504,5.68434E-14)">
			
				<ellipse transform="matrix(2.587328e-06 1 -1 2.587328e-06 301.1617 299.4596)" class="st14" cx="0.9" cy="300.3" rx="0.9" ry="0.9"/>
		</g>
	</g>
	<g id="shape325-400" transform="translate(97.3918,-131.673)">
		<ellipse class="st13" cx="0.4" cy="300.7" rx="0.4" ry="0.4"/>
	</g>
	<g id="shape326-402" transform="translate(86.4785,-127.138)">
		<ellipse class="st13" cx="0.4" cy="300.7" rx="0.4" ry="0.4"/>
	</g>
	<g id="shape327-404" transform="translate(83.6438,-134.366)">
		<ellipse class="st13" cx="0.4" cy="300.7" rx="0.4" ry="0.4"/>
	</g>
	<g id="shape328-406" transform="translate(82.7934,-144.004)">
		<ellipse class="st13" cx="0.9" cy="300.3" rx="0.9" ry="0.9"/>
	</g>
	<g id="shape329-408" transform="translate(82.7934,-154.492)">
		<ellipse class="st14" cx="0.9" cy="300.3" rx="0.9" ry="0.9"/>
	</g>
	<g id="shape330-410" transform="translate(74.2395,-133.516)">
		<ellipse class="st14" cx="0.9" cy="300.3" rx="0.9" ry="0.9"/>
	</g>
	<g id="group336-412" transform="translate(216.799,-73.3188) scale(-1,1)">
		<g id="shape337-413" transform="translate(0,-1.70075)">
			<ellipse class="st13" cx="0.9" cy="300.3" rx="0.9" ry="-0.9"/>
		</g>
		<g id="shape338-415" transform="translate(0.850419,1.13687E-13)">
			<ellipse class="st0" cx="0.9" cy="300.3" rx="0.9" ry="-0.9"/>
		</g>
		<g id="shape339-417" transform="translate(1.70081,-1.70075)">
			<ellipse class="st12" cx="0.9" cy="300.3" rx="0.9" ry="-0.9"/>
		</g>
	</g>
	<g id="shape340-419" transform="translate(217.546,-110.563) scale(-1,1)">
		<ellipse class="st12" cx="0.9" cy="300.3" rx="0.9" ry="-0.9"/>
	</g>
	<g id="shape341-421" transform="translate(210.424,-117.744) scale(-1,1)">
		<ellipse class="st12" cx="0.9" cy="300.3" rx="0.9" ry="-0.9"/>
	</g>
	<g id="shape342-423" transform="translate(205.832,-110.563) scale(-1,1)">
		<ellipse class="st12" cx="0.9" cy="300.3" rx="0.9" ry="-0.9"/>
	</g>
	<g id="shape343-425" transform="translate(196.853,-101.587) scale(-1,1)">
		<ellipse class="st13" cx="0.9" cy="300.3" rx="0.9" ry="-0.9"/>
	</g>
	<g id="shape344-427" transform="translate(199.507,-88.2474) scale(-1,1)">
		<ellipse class="st13" cx="0.9" cy="300.3" rx="0.9" ry="-0.9"/>
	</g>
	<g id="shape345-429" transform="translate(217.546,-129.933) scale(-1,1)">
		<ellipse class="st13" cx="0.9" cy="300.3" rx="0.9" ry="-0.9"/>
	</g>
	<g id="group346-431" transform="translate(218.234,-84.6511) scale(-1,1)">
		<g id="shape347-432" transform="translate(0.704447,-1.16141)">
			<ellipse class="st13" cx="0.4" cy="300.8" rx="0.4" ry="-0.4"/>
		</g>
		<g id="shape348-434" transform="translate(1.70079,-1.16141)">
			<ellipse class="st0" cx="0.9" cy="300.3" rx="0.9" ry="-0.9"/>
		</g>
		<g id="shape349-436" transform="translate(0,-2.46455)">
			<ellipse class="st12" cx="1.2" cy="300" rx="1.2" ry="-1.2"/>
		</g>
		<g id="shape350-438" transform="translate(2.97216,-3.31073)">
			<ellipse class="st13" cx="0.4" cy="300.8" rx="0.4" ry="-0.4"/>
		</g>
		<g id="shape351-440" transform="translate(3.68504,-2.14932)">
			<ellipse class="st13" cx="0.4" cy="300.8" rx="0.4" ry="-0.4"/>
		</g>
		<g id="shape352-442" transform="translate(3.68504,5.68434E-14)">
			<ellipse class="st14" cx="0.9" cy="300.3" rx="0.9" ry="-0.9"/>
		</g>
	</g>
	<g id="group353-444" transform="translate(407.893,415.776) rotate(-40) scale(1,-1)">
		<g id="shape354-445" transform="translate(0.996339,-7.51602)">
			
				<ellipse transform="matrix(-1 2.041553e-06 -2.041553e-06 -1 1.7014 600.6216)" class="st14" cx="0.9" cy="300.3" rx="0.9" ry="-0.9"/>
		</g>
		<g id="shape355-447" transform="translate(0,-7.07643)">
			
				<ellipse transform="matrix(-1 1.964408e-06 -1.964408e-06 -1 1.2804 601.0416)" class="st12" cx="0.6" cy="300.5" rx="0.6" ry="-0.6"/>
		</g>
		<g id="shape356-449" transform="translate(0.996339,-4.11445)">
			
				<ellipse transform="matrix(-1 1.944301e-06 -1.944301e-06 -1 3.1187 599.2036)" class="st13" cx="1.6" cy="299.6" rx="1.6" ry="-1.6"/>
		</g>
		<g id="shape357-451" transform="translate(2.98059,-7.51602)">
			
				<ellipse transform="matrix(-1 1.997373e-06 -1.997373e-06 -1 1.2804 601.0416)" class="st13" cx="0.6" cy="300.5" rx="0.6" ry="-0.6"/>
		</g>
		<g id="shape358-453" transform="translate(0.996339,-2.25753)">
			
				<ellipse transform="matrix(-1 2.056684e-06 -2.056684e-06 -1 1.7014 600.6216)" class="st0" cx="0.9" cy="300.3" rx="0.9" ry="-0.9"/>
		</g>
		<g id="shape359-455" transform="translate(1.84673,-0.400603)">
			
				<ellipse transform="matrix(-1 2.014790e-06 -2.014790e-06 -1 1.7014 600.6216)" class="st14" cx="0.9" cy="300.3" rx="0.9" ry="-0.9"/>
		</g>
		<g id="shape360-457" transform="translate(3.54752,-5.68434E-14)">
			
				<ellipse transform="matrix(-1 2.009924e-06 -2.009924e-06 -1 1.2804 601.0416)" class="st12" cx="0.6" cy="300.5" rx="0.6" ry="-0.6"/>
		</g>
		<g id="shape361-459" transform="translate(4.82733,-0.400603)">
			
				<ellipse transform="matrix(-1 1.933358e-06 -1.933358e-06 -1 1.2804 601.0416)" class="st13" cx="0.6" cy="300.5" rx="0.6" ry="-0.6"/>
		</g>
	</g>
	<g id="shape362-461" transform="translate(221.514,-122.28) scale(-1,1)">
		<ellipse class="st13" cx="1.7" cy="299.5" rx="1.7" ry="-1.7"/>
	</g>
	<g id="shape363-463" transform="translate(215.819,-101.587) scale(-1,1)">
		<ellipse class="st13" cx="1.7" cy="299.5" rx="1.7" ry="-1.7"/>
	</g>
	<g id="shape364-465" transform="translate(179.278,-123.981) scale(-1,1)">
		<ellipse class="st13" cx="0.4" cy="300.7" rx="0.4" ry="-0.4"/>
	</g>
	<g id="shape365-467" transform="translate(210.459,-149.492) scale(-1,1)">
		<ellipse class="st13" cx="0.9" cy="300.3" rx="0.9" ry="-0.9"/>
	</g>
	<g id="shape366-469" transform="translate(214.711,-140.422) scale(-1,1)">
		<ellipse class="st13" cx="0.9" cy="300.3" rx="0.9" ry="-0.9"/>
	</g>
	<g id="group367-471" transform="translate(-76.2057,61.6731) rotate(-75) scale(-1,1)">
		<g id="shape368-472" transform="translate(0.704447,-1.16141)">
			
				<ellipse transform="matrix(0.2588 0.9659 -0.9659 0.2588 290.8195 222.6057)" class="st13" cx="0.4" cy="300.8" rx="0.4" ry="-0.4"/>
		</g>
		<g id="shape369-474" transform="translate(1.70079,-1.16141)">
			<ellipse class="st0" cx="0.9" cy="300.3" rx="0.9" ry="-0.9"/>
		</g>
		<g id="shape370-476" transform="translate(0,-2.46455)">
			<ellipse class="st12" cx="1.2" cy="300" rx="1.2" ry="-1.2"/>
		</g>
		<g id="shape371-478" transform="translate(2.97216,-3.31073)">
			
				<ellipse transform="matrix(0.2588 0.9659 -0.9659 0.2588 290.8195 222.6057)" class="st13" cx="0.4" cy="300.8" rx="0.4" ry="-0.4"/>
		</g>
		<g id="shape372-480" transform="translate(3.68504,-2.14932)">
			
				<ellipse transform="matrix(0.2588 0.9659 -0.9659 0.2588 290.8195 222.6057)" class="st13" cx="0.4" cy="300.8" rx="0.4" ry="-0.4"/>
		</g>
		<g id="shape373-482" transform="translate(3.68504,5.68434E-14)">
			<ellipse class="st14" cx="0.9" cy="300.3" rx="0.9" ry="-0.9"/>
		</g>
	</g>
	<g id="shape374-484" transform="translate(182.68,-128.091) scale(-1,1)">
		<ellipse class="st13" cx="0.4" cy="300.7" rx="0.4" ry="-0.4"/>
	</g>
	<g id="shape375-486" transform="translate(193.89,-124.393) scale(-1,1)">
		<ellipse class="st13" cx="0.4" cy="300.7" rx="0.4" ry="-0.4"/>
	</g>
	<g id="shape376-488" transform="translate(196.724,-131.621) scale(-1,1)">
		<ellipse class="st13" cx="0.4" cy="300.7" rx="0.4" ry="-0.4"/>
	</g>
	<g id="shape377-490" transform="translate(197.278,-142.038) scale(-1,1)">
		<ellipse class="st13" cx="0.9" cy="300.3" rx="0.9" ry="-0.9"/>
	</g>
	<g id="shape378-492" transform="translate(197.291,-152.243) scale(-1,1)">
		<ellipse class="st14" cx="0.9" cy="300.3" rx="0.9" ry="-0.9"/>
	</g>
	<g id="shape379-494" transform="translate(207.213,-129.933) scale(-1,1)">
		<ellipse class="st14" cx="0.9" cy="300.3" rx="0.9" ry="-0.9"/>
	</g>
	<g id="shape395-496" transform="translate(-193.838,172.97) rotate(-90)">
		<path class="st10" d="M0,301.2h87.1"/>
	</g>
	<g id="shape396-499" transform="translate(-129.665,172.087) rotate(-90)">
		<path class="st10" d="M0,301.2h85.7"/>
	</g>
	<g id="shape399-502" transform="translate(480.367,46.9126) rotate(90)">
		<path class="st10" d="M0,301.2h3.4"/>
	</g>
	<g id="shape400-505" transform="translate(400.479,46.6951) rotate(90)">
		<path class="st10" d="M0,301.2h3.4"/>
	</g>
	<g id="shape403-508" transform="translate(125.617,-18.375)">
		<path class="st12" d="M23,205.3l4.6,58.1v37.7H14.3H0v-37.3l4.7-58.6h1.4v-6.1l0.8-0.8V193l7-4.1l7,3.8v5.8l0.9,0.9v5.9H23z"/>
	</g>
</g>
<g>
	<g>
		<path class="st15" d="M155.1,274.6c4.7,2.1,8.5,3.8,8.5,7.2c0,3.8-11.3,7.4-24.1,7.4s-26.2-1.2-26.2-7.4c0-2,2.8-3.7,5.9-5.2"/>
		<g>
			<polygon points="124,274.3 118.6,280.3 118.9,276.8 116,274.8 			"/>
		</g>
	</g>
</g>
<g>
	<g>
		<line class="st15" x1="139.2" y1="9.3" x2="139.2" y2="23.3"/>
		<g>
			<polygon points="139.2,27.4 136.8,21.6 139.2,23 141.6,21.6 			"/>
		</g>
	</g>
</g>
<g>
	<g>
		<line class="st15" x1="148.2" y1="23.4" x2="148.2" y2="9.5"/>
		<g>
			<polygon points="148.2,5.4 150.6,11.2 148.2,9.8 145.8,11.2 			"/>
		</g>
	</g>
</g>
<g>
	<g>
		<line class="st15" x1="130.7" y1="23.4" x2="130.7" y2="9.5"/>
		<g>
			<polygon points="130.7,5.4 133.1,11.2 130.7,9.8 128.3,11.2 			"/>
		</g>
	</g>
</g>
<g>
	<g>
		<line class="st15" x1="241.6" y1="187.4" x2="263.7" y2="187.4"/>
		<g>
			<polygon points="269,187.4 261.5,190.5 263.3,187.4 261.5,184.4 			"/>
		</g>
	</g>
</g>
<g>
	<g>
		<line class="st15" x1="38.3" y1="187.1" x2="14.4" y2="187.1"/>
		<g>
			<polygon points="9.1,187.1 16.6,184.1 14.8,187.1 16.6,190.2 			"/>
		</g>
	</g>
</g>
</svg>
