<svg id="Layer_1" data-name="Layer 1" xmlns="http://www.w3.org/2000/svg" xmlns:xlink="http://www.w3.org/1999/xlink" viewBox="0 0 259.9 284.18"><defs><style>.cls-1,.cls-10,.cls-31,.cls-38,.cls-43,.cls-50,.cls-55,.cls-8,.cls-9{fill:#7f7f7f;}.cls-1,.cls-12,.cls-15,.cls-25,.cls-26,.cls-31,.cls-38,.cls-43,.cls-50,.cls-55,.cls-9{stroke:#7f7f7f;}.cls-1,.cls-12,.cls-13,.cls-14,.cls-15,.cls-16,.cls-17,.cls-18,.cls-19,.cls-20,.cls-21,.cls-22,.cls-23,.cls-24,.cls-25,.cls-26,.cls-27,.cls-28,.cls-29,.cls-30,.cls-31,.cls-32,.cls-33,.cls-34,.cls-35,.cls-36,.cls-37,.cls-38,.cls-39,.cls-40,.cls-41,.cls-42,.cls-43,.cls-44,.cls-45,.cls-46,.cls-47,.cls-48,.cls-49,.cls-50,.cls-51,.cls-52,.cls-53,.cls-54,.cls-55,.cls-56,.cls-57,.cls-58,.cls-7,.cls-9{stroke-linecap:round;stroke-linejoin:round;}.cls-1,.cls-12,.cls-13,.cls-27,.cls-28,.cls-29,.cls-58,.cls-59,.cls-7,.cls-9{stroke-width:0.75px;}.cls-1,.cls-10,.cls-11,.cls-2,.cls-3,.cls-4,.cls-5,.cls-58,.cls-6,.cls-60,.cls-7{fill-rule:evenodd;}.cls-2{fill:#dbeef3;}.cls-3{fill:url(#linear-gradient);}.cls-5{fill:url(#linear-gradient-2);}.cls-6{fill:url(#linear-gradient-3);}.cls-7{fill:#d8d8d8;stroke:#d8d8d8;}.cls-11{fill:#bfbfbf;}.cls-12,.cls-13,.cls-14,.cls-15,.cls-16,.cls-17,.cls-18,.cls-19,.cls-20,.cls-21,.cls-22,.cls-23,.cls-24,.cls-25,.cls-26,.cls-59{fill:none;}.cls-13,.cls-14,.cls-16,.cls-17,.cls-18,.cls-19,.cls-20,.cls-21,.cls-22,.cls-23,.cls-24,.cls-28,.cls-30,.cls-36,.cls-37,.cls-41,.cls-42,.cls-48,.cls-49,.cls-53,.cls-54,.cls-59{stroke:#000;}.cls-14{stroke-width:0.75px;}.cls-15{stroke-width:0.75px;}.cls-16{stroke-width:0.75px;}.cls-17{stroke-width:0.75px;}.cls-18{stroke-width:0.75px;}.cls-19{stroke-width:0.75px;}.cls-20{stroke-width:0.75px;}.cls-21{stroke-width:0.75px;}.cls-22{stroke-width:0.75px;}.cls-23{stroke-width:0.75px;}.cls-24{stroke-width:0.75px;}.cls-25{stroke-width:0.75px;}.cls-26{stroke-width:0.75px;}.cls-27,.cls-32,.cls-35,.cls-40,.cls-44,.cls-47,.cls-52,.cls-56,.cls-58{fill:#a5a5a5;stroke:#a5a5a5;}.cls-29,.cls-33,.cls-34,.cls-39,.cls-45,.cls-46,.cls-51,.cls-57{fill:#3f3f3f;stroke:#3f3f3f;}.cls-30{stroke-width:0.75px;}.cls-31,.cls-32,.cls-33{stroke-width:0.75px;}.cls-34,.cls-38{stroke-width:0.75px;}.cls-35{stroke-width:0.75px;}.cls-36{stroke-width:0.75px;}.cls-37{stroke-width:0.75px;}.cls-39{stroke-width:0.75px;}.cls-40{stroke-width:0.75px;}.cls-41{stroke-width:0.75px;}.cls-42{stroke-width:0.75px;}.cls-43{stroke-width:0.75px;}.cls-44{stroke-width:0.75px;}.cls-45{stroke-width:0.75px;}.cls-46{stroke-width:0.75px;}.cls-47{stroke-width:0.75px;}.cls-48{stroke-width:0.75px;}.cls-49{stroke-width:0.75px;}.cls-50{stroke-width:0.75px;}.cls-51{stroke-width:0.75px;}.cls-52{stroke-width:0.75px;}.cls-53{stroke-width:0.75px;}.cls-54{stroke-width:0.75px;}.cls-55{stroke-width:0.75px;}.cls-56{stroke-width:0.75px;}.cls-57{stroke-width:0.75px;}.cls-59{stroke-miterlimit:10;}.cls-60{fill:url(#linear-gradient-4);}</style><linearGradient id="linear-gradient" x1="-502.71" y1="-81.54" x2="-501.71" y2="-81.54" gradientTransform="matrix(0, 29.7, -14.5, 0, -970.22, 15141.74)" gradientUnits="userSpaceOnUse"><stop offset="0.38" stop-color="#dbeef3"/><stop offset="0.81" stop-color="#d8d8d8"/></linearGradient><linearGradient id="linear-gradient-2" x1="-352.95" y1="-84.78" x2="-351.95" y2="-84.78" gradientTransform="matrix(0, 26.79, -15.74, 0, -1269.5, 9664.65)" gradientUnits="userSpaceOnUse"><stop offset="0.34" stop-color="#dbeef3"/><stop offset="0.84" stop-color="#d8d8d8"/></linearGradient><linearGradient id="linear-gradient-3" x1="-334.72" y1="-72.37" x2="-333.72" y2="-72.37" gradientTransform="translate(4048.4 5291.24) scale(11.96 70.55)" gradientUnits="userSpaceOnUse"><stop offset="0.07"/><stop offset="1" stop-color="#dbeef3"/></linearGradient><linearGradient id="linear-gradient-4" x1="-335.56" y1="-72.28" x2="-334.56" y2="-72.28" gradientTransform="translate(-3779.83 -4912.25) rotate(180) scale(11.96 70.55)" xlink:href="#linear-gradient-3"/></defs><g id="shape404-1"><path class="cls-1" d="M158.77,219.82l-7.1-49h-25.2l-6,24.2Z" transform="translate(-9.1 -5.4)"/></g><g id="shape394-3"><path class="cls-2" d="M146.26,22.65h-1V47h1Z" transform="translate(-9.1 -5.4)"/></g><g id="shape207-5"><path class="cls-2" d="M215,136.6,171.9,86.4V74H160.4V71h7.4V63.5l3.7-2.2V53.2h0v8.2l5.2,10.5h3.1L179.1,47l-4.7.3V36.9h-9.7v4.5H150.3V22.6h-4.2V47.2h7.3V57.6h4l-.1,53.7,12,74.5,9.7,6,30.9,39.4,4.4,4.2,7.8-14.3V150.5Z" transform="translate(-9.1 -5.4)"/></g><g id="shape211-7"><path class="cls-3" d="M207.79,232.25v8.6h2.9l8.7-15.7-8.2-14-6.3,13,4.3,5.5v4.1Z" transform="translate(-9.1 -5.4)"/></g><g id="shape209-15"><path class="cls-4" d="M233.48,173.94l6.8,13.4-6.8,12.3Z" transform="translate(-9.1 -5.4)"/></g><g id="shape200-17"><path class="cls-2" d="M64.2,136.11l43.1-50.2V73.51h11.5v-3h-7.4V63l-3.7-2.2v-8.1h0v8.2l-5.2,10.5H99.4V46.71h5.4V36.31h9.7v4.5h14.4V22.11h4.2v24.6h-7.3v10.4h-4l.1,53.7-12,74.5-9.7,6-30.9,39.4-4.4,4.2-7.8-14.3V150Z" transform="translate(-9.1 -5.4)"/></g><g id="shape205-19"><path class="cls-5" d="M65.6,236l4.1-4.1-.3-1.2,3.5-4.5-4.8-17-11,11.4Z" transform="translate(-9.1 -5.4)"/></g><g id="shape202-23"><path class="cls-6" d="M57.14,220.67l-12-21.6v-25.6l12-23.4Z" transform="translate(-9.1 -5.4)"/></g><g id="shape203-26"><path class="cls-4" d="M45.11,173.44l-6.8,13.4,6.8,12.3Z" transform="translate(-9.1 -5.4)"/></g><g id="shape195-28"><path class="cls-7" d="M133,18.35h12.3v137.9c7.8,8.2,16-3.7,16.2-20.7l8,49.7-.8,3,41,46.3,2.9,2.9-2,3.5h-3.7l-43.1-51.8-2.2-15.7-2.6-.8v-4.3c-10.9,0-19.7-3.8-19.8-8.4,0,4.5-8.4,8.2-18.7,8.2v4.4l-2.5.8-2.2,15.6-44,51.4h-3.7l-3.2-5.5,4.4-4.2.8,3,40.4-45.4-.7-3,8-49.5c-.5,22.7,5.4,24.2,15.1,20.4V18.35Z" transform="translate(-9.1 -5.4)"/></g><g id="shape190-30"><path class="cls-1" d="M99.34,50.24h-7.8v20.3h4.2V87l-35,41.6L51,142.44H20.44l-.2,44.3h18.1l25.9-50.6,38.2-45.6V71.34h-3.1Z" transform="translate(-9.1 -5.4)"/></g><g id="shape186-32"><path class="cls-1" d="M107.6,60.86l3.7,2.2v7.5h7.5v3H107.3V86l-4.9,4.6V71.36Z" transform="translate(-9.1 -5.4)"/></g><g id="shape185-34"><path class="cls-1" d="M170.92,61.07l5.2,10.5v19.2l-4.9-4.6V73.77h-11.5v-3h7.4v-7.5Z" transform="translate(-9.1 -5.4)"/></g><g id="shape181-36"><rect class="cls-8" x="136.45" y="41.48" width="7.2" height="3.5"/></g><g id="shape180-38"><rect class="cls-9" x="116.68" y="41.26" width="7.2" height="3.5"/></g><g id="shape179-40"><path class="cls-1" d="M99.32,22.13h29.5v14.2h-24.1v10.4h-5.4Z" transform="translate(-9.1 -5.4)"/></g><g id="shape178-42"><path class="cls-1" d="M150.06,22.15h29.4l-.2,24.8h-5.4V36.55h-24.1Z" transform="translate(-9.1 -5.4)"/></g><g id="shape174-44"><path class="cls-10" d="M120.6,168.2c10.3,0,18.7-3.7,18.7-8.2h0c0,4.7,8.8,8.4,19.7,8.4h0v4.4l-38.4-.2Z" transform="translate(-9.1 -5.4)"/></g><g id="shape173-46"><path class="cls-11" d="M139.39,277a6.84,6.84,0,0,0,9.2,3,7.23,7.23,0,0,0,3-3,6.84,6.84,0,0,0-9.2-3A7.86,7.86,0,0,0,139.39,277Z" transform="translate(-9.1 -5.4)"/></g><g id="shape171-50"><path class="cls-1" d="M131.78,172.63l-4.6,60.4v30.2H62.67l-12.9-16.4-24.39-16.1v-7.4h-7l.1-36.6h19.9l29.79,53.7h3.71l44-51.4,2.19-15.6,2.6-.8Z" transform="translate(-9.1 -5.4)"/></g><g id="shape69-52"><path class="cls-12" d="M145.22,18.37v137.9" transform="translate(-9.1 -5.4)"/></g><g id="shape70-55"><path class="cls-12" d="M132.92,18.37v137.9" transform="translate(-9.1 -5.4)"/></g><g id="shape81-58"><path class="cls-13" d="M133,63.05h-6" transform="translate(-9.1 -5.4)"/></g><g id="shape82-61"><path class="cls-14" d="M126.9,63.09l-2.18,29.82" transform="translate(-9.1 -5.4)"/></g><g id="shape83-64"><path class="cls-13" d="M124.76,92.94H133" transform="translate(-9.1 -5.4)"/></g><g id="shape84-67"><path class="cls-15" d="M124.72,92.9l-14.9,92.4" transform="translate(-9.1 -5.4)"/></g><g id="shape85-70"><path class="cls-16" d="M109.84,185.28l-9.71,6" transform="translate(-9.1 -5.4)"/></g><g id="shape86-73"><path class="cls-17" d="M100.14,191.25l-30.8,39.39" transform="translate(-9.1 -5.4)"/></g><g id="shape87-76"><path class="cls-18" d="M69.32,230.7l.83,3" transform="translate(-9.1 -5.4)"/></g><g id="shape88-79"><path class="cls-19" d="M70.22,233.7l40.44-45.41" transform="translate(-9.1 -5.4)"/></g><g id="shape89-82"><path class="cls-20" d="M110.64,188.28l-.75-3" transform="translate(-9.1 -5.4)"/></g><g id="shape103-85"><path class="cls-13" d="M146.38,63h6" transform="translate(-9.1 -5.4)"/></g><g id="shape105-88"><path class="cls-13" d="M154.57,92.86h-8.2" transform="translate(-9.1 -5.4)"/></g><g id="shape106-91"><path class="cls-15" d="M154.61,92.82l14.91,92.41" transform="translate(-9.1 -5.4)"/></g><g id="shape107-94"><path class="cls-21" d="M169.5,185.21l9.71,6" transform="translate(-9.1 -5.4)"/></g><g id="shape108-97"><path class="cls-22" d="M179.2,191.18l30.05,38.44" transform="translate(-9.1 -5.4)"/></g><g id="shape109-100"><path class="cls-23" d="M209.26,229.65l0,4.1" transform="translate(-9.1 -5.4)"/></g><g id="shape110-103"><path class="cls-19" d="M209.21,233.73l-40.5-45.48" transform="translate(-9.1 -5.4)"/></g><g id="shape111-106"><path class="cls-24" d="M168.7,188.21l.75-3" transform="translate(-9.1 -5.4)"/></g><g id="shape122-109"><path class="cls-12" d="M118.75,73.56v-3h-7.4v-7.4h8.2" transform="translate(-9.1 -5.4)"/></g><g id="shape123-112"><path class="cls-12" d="M117.31,57.17h15.6" transform="translate(-9.1 -5.4)"/></g><g id="shape124-115"><path class="cls-12" d="M127.74,54.19h-2v-7.4h-12.9" transform="translate(-9.1 -5.4)"/></g><g id="shape131-118"><path class="cls-12" d="M128.76,22.07v18.6h-18.9" transform="translate(-9.1 -5.4)"/></g><g id="shape132-121"><path class="cls-12" d="M102.4,71.38l5.2-10.5v-8.2H121" transform="translate(-9.1 -5.4)"/></g><g id="shape138-124"><path class="cls-25" d="M107.32,172.47,68.53,220.2" transform="translate(-9.1 -5.4)"/></g><g id="shape141-127"><path class="cls-25" d="M107.32,160.54,68.53,208.28" transform="translate(-9.1 -5.4)"/></g><g id="shape142-130"><path class="cls-25" d="M107.32,150.67,68.53,198.4" transform="translate(-9.1 -5.4)"/></g><g id="shape143-133"><path class="cls-25" d="M107.32,139.68,68.53,187.41" transform="translate(-9.1 -5.4)"/></g><g id="shape144-136"><path class="cls-25" d="M107.32,129.24,68.53,177" transform="translate(-9.1 -5.4)"/></g><g id="shape145-139"><path class="cls-25" d="M107.32,118.81,68.53,166.54" transform="translate(-9.1 -5.4)"/></g><g id="shape146-142"><path class="cls-25" d="M107.32,108.38,68.53,156.11" transform="translate(-9.1 -5.4)"/></g><g id="shape147-145"><path class="cls-25" d="M107.32,96.45,68.53,144.18" transform="translate(-9.1 -5.4)"/></g><g id="shape148-148"><path class="cls-26" d="M171.53,172.06l38.78,47.73" transform="translate(-9.1 -5.4)"/></g><g id="shape149-151"><path class="cls-26" d="M171.53,162.19l38.78,47.73" transform="translate(-9.1 -5.4)"/></g><g id="shape150-154"><path class="cls-26" d="M171.53,151.19l38.78,47.74" transform="translate(-9.1 -5.4)"/></g><g id="shape151-157"><path class="cls-26" d="M171.53,140.76l38.78,47.73" transform="translate(-9.1 -5.4)"/></g><g id="shape152-160"><path class="cls-26" d="M171.53,130.33l38.78,47.73" transform="translate(-9.1 -5.4)"/></g><g id="shape153-163"><path class="cls-26" d="M171.53,119.89l38.78,47.73" transform="translate(-9.1 -5.4)"/></g><g id="shape154-166"><path class="cls-26" d="M171.53,108l38.78,47.73" transform="translate(-9.1 -5.4)"/></g><g id="shape156-169"><path class="cls-13" d="M176.12,71.52h3.1" transform="translate(-9.1 -5.4)"/></g><g id="shape159-172"><path class="cls-12" d="M159.78,73.78v-3h7.4v-7.4H159" transform="translate(-9.1 -5.4)"/></g><g id="shape160-175"><path class="cls-12" d="M161.21,57.38h-15.6" transform="translate(-9.1 -5.4)"/></g><g id="shape161-178"><path class="cls-12" d="M150.79,54.4h2V47h12.9" transform="translate(-9.1 -5.4)"/></g><g id="shape162-181"><path class="cls-12" d="M152.74,50.48h-7.2" transform="translate(-9.1 -5.4)"/></g><g id="shape163-184"><path class="cls-12" d="M149.77,22.29v18.6h18.9" transform="translate(-9.1 -5.4)"/></g><g id="shape164-187"><path class="cls-12" d="M176.12,71.6l-5.2-10.5V52.89h-13.5" transform="translate(-9.1 -5.4)"/></g><g id="shape175-190"><path class="cls-1" d="M109.85,185.31l.8,3-40.5,45.4-.8-3,30.8-39.4Z" transform="translate(-9.1 -5.4)"/></g><g id="shape176-192"><path class="cls-1" d="M169.43,185.24l-.8,3,40.5,45.5v-4.1L179,191.24Z" transform="translate(-9.1 -5.4)"/></g><g id="shape192-196"><path class="cls-1" d="M133,63.14h-6l-2.2,29.8H133Z" transform="translate(-9.1 -5.4)"/></g><g id="shape194-198"><path class="cls-1" d="M145.26,63.14l7.1-.1,2.2,29.8-9.3.1Z" transform="translate(-9.1 -5.4)"/></g><g id="group221-200"><g id="shape216-201"><circle class="cls-27" cx="128.58" cy="28.14" r="0.9"/></g><g id="shape217-203"><circle class="cls-28" cx="129.43" cy="30.1" r="0.9"/></g><g id="shape218-205"><circle class="cls-9" cx="130.56" cy="28.14" r="0.9"/></g><g id="shape219-207"><circle class="cls-9" cx="128.01" cy="31.54" r="0.9"/></g><g id="shape220-209"><circle class="cls-29" cx="131.41" cy="30.1" r="0.9"/></g></g><g id="group228-211"><g id="shape222-212"><circle class="cls-28" cx="129.16" cy="43.3" r="0.4"/></g><g id="shape223-214"><circle class="cls-9" cx="130.66" cy="42.8" r="0.9"/></g><g id="shape224-216"><circle class="cls-27" cx="129.26" cy="41.2" r="1.2"/></g><g id="shape225-218"><circle class="cls-28" cx="131.43" cy="41.15" r="0.4"/></g><g id="shape226-220"><circle class="cls-28" cx="132.14" cy="42.31" r="0.4"/></g><g id="shape227-222"><circle class="cls-29" cx="128.96" cy="43.96" r="0.9"/></g></g><g id="shape229-224"><circle class="cls-28" cx="132.64" cy="54.52" r="0.9"/></g><g id="shape230-226"><circle class="cls-28" cx="128.23" cy="58.53" r="0.9"/></g><g id="shape231-228"><circle class="cls-9" cx="128.46" cy="50.67" r="0.4"/></g><g id="group232-230"><g id="shape233-231"><circle class="cls-30" cx="130.57" cy="64.01" r="0.4"/></g><g id="shape234-233"><circle class="cls-31" cx="130.42" cy="65.61" r="0.9"/></g><g id="shape235-235"><circle class="cls-32" cx="141.56" cy="70.42" r="1.2" transform="translate(8.81 163.55) rotate(-65)"/></g><g id="shape236-237"><circle class="cls-30" cx="131.56" cy="66.97" r="0.4"/></g><g id="shape237-239"><circle class="cls-30" cx="130.21" cy="67.13" r="0.4"/></g><g id="shape238-241"><circle class="cls-33" cx="130.08" cy="63.58" r="0.9"/></g></g><g id="shape239-243"><circle class="cls-28" cx="128.96" cy="64.48" r="0.9"/></g><g id="group250-245"><g id="shape240-246"><circle class="cls-34" cx="127.2" cy="74.76" r="0.9"/></g><g id="shape243-248"><circle class="cls-35" cx="126.38" cy="75.76" r="0.6"/></g><g id="shape244-250"><circle class="cls-36" cx="128.79" cy="77.03" r="1.6"/></g><g id="shape245-252"><circle class="cls-37" cx="129.03" cy="74.32" r="0.6"/></g><g id="shape246-254"><circle class="cls-38" cx="129" cy="79.7" r="0.9"/></g><g id="shape247-256"><circle class="cls-39" cx="130.43" cy="81.15" r="0.9"/></g><g id="shape248-258"><circle class="cls-40" cx="128.8" cy="82.41" r="0.6"/></g><g id="shape249-260"><circle class="cls-41" cx="133.2" cy="80.38" r="0.6"/></g></g><g id="shape251-262"><circle class="cls-28" cx="130.86" cy="91.08" r="0.9"/></g><g id="shape252-264"><circle class="cls-27" cx="129.73" cy="96.19" r="0.9"/></g><g id="shape253-266"><circle class="cls-28" cx="133.7" cy="102.99" r="0.9"/></g><g id="shape254-268"><circle class="cls-27" cx="132.56" cy="108.09" r="0.9"/></g><g id="shape255-270"><circle class="cls-28" cx="128.03" cy="107.24" r="0.9"/></g><g id="shape256-272"><circle class="cls-27" cx="126.89" cy="112.34" r="0.9"/></g><g id="group257-274"><g id="shape258-275"><circle class="cls-28" cx="129.45" cy="119.7" r="0.4"/></g><g id="shape259-277"><circle class="cls-9" cx="129.94" cy="121.2" r="0.9"/></g><g id="shape260-279"><circle class="cls-27" cx="131.65" cy="119.8" r="1.2"/></g><g id="shape261-281"><circle class="cls-28" cx="131.6" cy="121.97" r="0.4"/></g><g id="shape262-283"><circle class="cls-28" cx="130.44" cy="122.68" r="0.4"/></g><g id="shape263-285"><circle class="cls-29" cx="128.78" cy="119.5" r="0.9"/></g></g><g id="group267-287"><g id="shape264-288"><circle class="cls-28" cx="127.89" cy="102.14" r="0.9"/></g><g id="shape265-290"><circle class="cls-9" cx="127.89" cy="103.84" r="0.9"/></g><g id="shape266-292"><circle class="cls-27" cx="129.59" cy="102.14" r="0.9"/></g></g><g id="group268-294"><g id="shape269-295"><circle class="cls-28" cx="114.99" cy="155.42" r="0.9"/></g><g id="shape270-297"><circle class="cls-9" cx="114.99" cy="157.12" r="0.9"/></g><g id="shape271-299"><circle class="cls-27" cx="116.69" cy="155.42" r="0.9"/></g></g><g id="shape272-301"><circle class="cls-28" cx="133.13" cy="136.72" r="0.9"/></g><g id="shape273-303"><circle class="cls-27" cx="131.27" cy="136.72" r="0.9"/></g><g id="shape274-305"><circle class="cls-28" cx="150.7" cy="152.31" r="0.9"/></g><g id="shape275-307"><circle class="cls-28" cx="151.62" cy="152.71" r="0.4"/></g><g id="shape276-309"><circle class="cls-28" cx="153.75" cy="157.52" r="0.4"/></g><g id="shape277-311"><circle class="cls-28" cx="152.12" cy="157.97" r="0.9"/></g><g id="group278-313"><g id="shape279-314"><circle class="cls-42" cx="143.15" cy="158.69" r="0.4"/></g><g id="shape280-316"><circle class="cls-43" cx="144.39" cy="157.74" r="0.9"/></g><g id="shape281-318"><circle class="cls-44" cx="151.68" cy="161.98" r="1.2" transform="translate(-55.35 56.25) rotate(-20)"/></g><g id="shape282-320"><circle class="cls-42" cx="144.54" cy="155.9" r="0.4"/></g><g id="shape283-322"><circle class="cls-42" cx="145.61" cy="156.75" r="0.4"/></g><g id="shape284-324"><circle class="cls-45" cx="143.19" cy="159.42" r="0.9"/></g></g><g id="shape285-326"><circle class="cls-28" cx="128.16" cy="152.31" r="0.9"/></g><g id="group286-328"><g id="shape287-329"><circle class="cls-28" cx="55.07" cy="216.3" r="0.9"/></g><g id="shape288-331"><circle class="cls-9" cx="55.07" cy="218" r="0.9"/></g><g id="shape289-333"><circle class="cls-27" cx="56.77" cy="216.3" r="0.9"/></g></g><g id="shape290-335"><circle class="cls-27" cx="54.33" cy="180.75" r="0.9"/></g><g id="shape291-337"><circle class="cls-27" cx="61.45" cy="173.57" r="0.9"/></g><g id="shape292-339"><circle class="cls-27" cx="66.04" cy="180.75" r="0.9"/></g><g id="shape293-341"><circle class="cls-28" cx="75.02" cy="189.73" r="0.9"/></g><g id="shape294-343"><circle class="cls-28" cx="75.61" cy="204.08" r="0.9"/></g><g id="shape295-345"><circle class="cls-28" cx="54.33" cy="161.38" r="0.9"/></g><g id="group296-347"><g id="shape297-348"><circle class="cls-28" cx="53.84" cy="206" r="0.4"/></g><g id="shape298-350"><circle class="cls-9" cx="55.34" cy="205.5" r="0.9"/></g><g id="shape299-352"><circle class="cls-27" cx="53.94" cy="203.9" r="1.2"/></g><g id="shape300-354"><circle class="cls-28" cx="56.11" cy="203.86" r="0.4"/></g><g id="shape301-356"><circle class="cls-28" cx="56.82" cy="205.02" r="0.4"/></g><g id="shape302-358"><circle class="cls-29" cx="53.64" cy="206.67" r="0.9"/></g></g><g id="group303-360"><g id="shape304-361"><circle class="cls-46" cx="49.84" cy="181.36" r="0.9"/></g><g id="shape305-363"><circle class="cls-47" cx="51.25" cy="181.57" r="0.6"/></g><g id="shape306-365"><circle class="cls-48" cx="51.03" cy="178.83" r="1.6"/></g><g id="shape307-367"><circle class="cls-49" cx="48.69" cy="179.99" r="0.6"/></g><g id="shape308-369"><circle class="cls-50" cx="53.22" cy="177.33" r="0.9"/></g><g id="shape309-371"><circle class="cls-51" cx="53.77" cy="175.36" r="0.9"/></g><g id="shape310-373"><circle class="cls-52" cx="55.8" cy="176.15" r="0.6"/></g><g id="shape311-375"><circle class="cls-53" cx="51.85" cy="173.36" r="0.6"/></g></g><g id="shape312-377"><circle class="cls-28" cx="51.16" cy="168.24" r="1.7"/></g><g id="shape314-379"><circle class="cls-28" cx="56.85" cy="188.93" r="1.7"/></g><g id="shape315-381"><circle class="cls-28" cx="92.09" cy="167.74" r="0.4"/></g><g id="shape316-383"><circle class="cls-28" cx="61.41" cy="141.82" r="0.9"/></g><g id="shape317-385"><circle class="cls-28" cx="57.16" cy="150.9" r="0.9"/></g><g id="group318-387"><g id="shape319-388"><circle class="cls-54" cx="57.97" cy="131.28" r="0.4"/></g><g id="shape320-390"><circle class="cls-55" cx="58.84" cy="132.6" r="0.9"/></g><g id="shape321-392"><circle class="cls-56" cx="69.22" cy="136.21" r="1.2" transform="translate(-41.99 17.16) rotate(-15)"/></g><g id="shape322-394"><circle class="cls-54" cx="60.64" cy="132.92" r="0.4"/></g><g id="shape323-396"><circle class="cls-54" cx="59.7" cy="133.91" r="0.4"/></g><g id="shape324-398"><circle class="cls-57" cx="57.27" cy="131.26" r="0.9"/></g></g><g id="shape325-400"><circle class="cls-28" cx="88.69" cy="163.63" r="0.4"/></g><g id="shape326-402"><circle class="cls-28" cx="77.78" cy="168.16" r="0.4"/></g><g id="shape327-404"><circle class="cls-28" cx="74.94" cy="160.93" r="0.4"/></g><g id="shape328-406"><circle class="cls-28" cx="74.59" cy="150.9" r="0.9"/></g><g id="shape329-408"><circle class="cls-29" cx="74.59" cy="140.41" r="0.9"/></g><g id="shape330-410"><circle class="cls-29" cx="66.04" cy="161.38" r="0.9"/></g><g id="shape395-496"><path class="cls-12" d="M107.36,173V85.87" transform="translate(-9.1 -5.4)"/></g><g id="shape396-499"><path class="cls-12" d="M171.54,172.09V86.39" transform="translate(-9.1 -5.4)"/></g><g id="shape399-502"><path class="cls-12" d="M179.17,46.91v3.4" transform="translate(-9.1 -5.4)"/></g><g id="shape400-505"><path class="cls-12" d="M99.28,46.7v3.4" transform="translate(-9.1 -5.4)"/></g><g id="shape403-508"><path class="cls-58" d="M148.62,186.92l4.6,58.1v37.7h-27.6V245.43l4.7-58.61h1.4v-6.1l.8-.8v-5.3l7-4.1,7,3.8v5.8l.9.9v5.9Z" transform="translate(-9.1 -5.4)"/></g><path class="cls-59" d="M155.1,274.6c4.7,2.1,8.5,3.8,8.5,7.2,0,3.8-11.3,7.4-24.1,7.4s-26.2-1.2-26.2-7.4c0-2,2.8-3.7,5.9-5.2" transform="translate(-9.1 -5.4)"/><polygon points="114.9 268.9 109.5 274.9 109.8 271.4 106.9 269.4 114.9 268.9"/><line class="cls-59" x1="130.1" y1="3.9" x2="130.1" y2="17.9"/><polygon points="130.1 22 127.7 16.2 130.1 17.6 132.5 16.2 130.1 22"/><line class="cls-59" x1="139.1" y1="18" x2="139.1" y2="4.1"/><polygon points="139.1 0 141.5 5.8 139.1 4.4 136.7 5.8 139.1 0"/><line class="cls-59" x1="121.6" y1="18" x2="121.6" y2="4.1"/><polygon points="121.6 0 124 5.8 121.6 4.4 119.2 5.8 121.6 0"/><line class="cls-59" x1="29.2" y1="181.7" x2="5.3" y2="181.7"/><polygon points="0 181.7 7.5 178.7 5.7 181.7 7.5 184.8 0 181.7"/><g id="group303-360-2" data-name="group303-360"><g id="shape304-361-2" data-name="shape304-361"><circle class="cls-46" cx="207.3" cy="177.17" r="0.9"/></g><g id="shape305-363-2" data-name="shape305-363"><circle class="cls-47" cx="208.54" cy="176.47" r="0.6"/></g><g id="shape306-365-2" data-name="shape306-365"><circle class="cls-48" cx="206.67" cy="174.45" r="1.6"/></g><g id="shape307-367-2" data-name="shape307-367"><circle class="cls-49" cx="205.55" cy="176.81" r="0.6"/></g><g id="shape308-369-2" data-name="shape308-369"><circle class="cls-50" cx="207.46" cy="171.91" r="0.9"/></g><g id="shape309-371-2" data-name="shape309-371"><circle class="cls-51" cx="206.67" cy="170.03" r="0.9"/></g><g id="shape310-373-2" data-name="shape310-373"><circle class="cls-52" cx="208.76" cy="169.39" r="0.6"/></g><g id="shape311-375-2" data-name="shape311-375"><circle class="cls-53" cx="203.92" cy="169.65" r="0.6"/></g></g><g id="shape202-23-2" data-name="shape202-23"><path class="cls-60" d="M221.48,152.1l12,21.6v25.6l-12,23.4Z" transform="translate(-9.1 -5.4)"/></g><g id="shape170-48"><path class="cls-1" d="M147,172.63l4.6,60.4v30.2h64.5l12.9-16.4,24.5-16v-7.4h7v-35.8l-20.1-.2L210.77,241H207l-43.1-51.8-2.2-15.6-2.6-.7Z" transform="translate(-9.1 -5.4)"/></g><g id="shape191-194"><path class="cls-1" d="M179,50.29h7.8v20.3h-4.2v16.5l35,41.6,9.7,13.8h30.5l.2,45.1-17.7-.2L214,136.19l-38.2-45.6V71.39H179Z" transform="translate(-9.1 -5.4)"/></g><line class="cls-59" x1="232.5" y1="182" x2="254.6" y2="182"/><polygon points="259.9 182 252.4 185.1 254.2 182 252.4 179 259.9 182"/><g id="group278-313-2" data-name="group278-313"><g id="shape279-314-2" data-name="shape279-314"><circle class="cls-42" cx="206.44" cy="147.24" r="0.4"/></g><g id="shape280-316-2" data-name="shape280-316"><circle class="cls-43" cx="205.47" cy="146.01" r="0.9"/></g><g id="shape281-318-2" data-name="shape281-318"><circle class="cls-44" cx="213.44" cy="153.23" r="1.2" transform="translate(-49.75 80.93) rotate(-20.92)"/></g><g id="shape282-320-2" data-name="shape282-320"><circle class="cls-42" cx="203.63" cy="145.88" r="0.4"/></g><g id="shape283-322-2" data-name="shape283-322"><circle class="cls-42" cx="204.46" cy="144.8" r="0.4"/></g><g id="shape284-324-2" data-name="shape284-324"><circle class="cls-45" cx="207.16" cy="147.19" r="0.9"/></g></g><g id="shape274-305-2" data-name="shape274-305"><circle class="cls-28" cx="190.2" cy="154.6" r="0.9"/></g><g id="shape274-305-3" data-name="shape274-305"><circle class="cls-28" cx="171.36" cy="152.31" r="0.9"/></g><g id="shape276-309-2" data-name="shape276-309"><circle class="cls-28" cx="177.5" cy="137.12" r="0.4"/></g><g id="shape276-309-3" data-name="shape276-309"><circle class="cls-28" cx="177.1" cy="148.44" r="0.4"/></g><g id="group278-313-3" data-name="group278-313"><g id="shape279-314-3" data-name="shape279-314"><circle class="cls-42" cx="183.26" cy="122.04" r="0.4"/></g><g id="shape280-316-3" data-name="shape280-316"><circle class="cls-43" cx="184.49" cy="121.09" r="0.9"/></g><g id="shape281-318-3" data-name="shape281-318"><circle class="cls-44" cx="191.79" cy="125.33" r="1.2" transform="translate(-40.4 67.76) rotate(-20)"/></g><g id="shape282-320-3" data-name="shape282-320"><circle class="cls-42" cx="184.65" cy="119.25" r="0.4"/></g><g id="shape283-322-3" data-name="shape283-322"><circle class="cls-42" cx="185.72" cy="120.1" r="0.4"/></g><g id="shape284-324-3" data-name="shape284-324"><circle class="cls-45" cx="183.29" cy="122.77" r="0.9"/></g></g><g id="group250-245-2" data-name="group250-245"><g id="shape240-246-2" data-name="shape240-246"><circle class="cls-34" cx="196.91" cy="131.75" r="0.9"/></g><g id="shape243-248-2" data-name="shape243-248"><circle class="cls-35" cx="196.09" cy="132.75" r="0.6"/></g><g id="shape244-250-2" data-name="shape244-250"><circle class="cls-36" cx="198.51" cy="134.03" r="1.6"/></g><g id="shape245-252-2" data-name="shape245-252"><circle class="cls-37" cx="198.74" cy="131.32" r="0.6"/></g><g id="shape246-254-2" data-name="shape246-254"><circle class="cls-38" cx="198.71" cy="136.69" r="0.9"/></g><g id="shape247-256-2" data-name="shape247-256"><circle class="cls-39" cx="200.15" cy="138.15" r="0.9"/></g><g id="shape248-258-2" data-name="shape248-258"><circle class="cls-40" cx="198.51" cy="139.4" r="0.6"/></g><g id="shape249-260-2" data-name="shape249-260"><circle class="cls-41" cx="202.91" cy="137.37" r="0.6"/></g></g><g id="group250-245-3" data-name="group250-245"><g id="shape240-246-3" data-name="shape240-246"><circle class="cls-34" cx="51.61" cy="190.63" r="0.9"/></g><g id="shape243-248-3" data-name="shape243-248"><circle class="cls-35" cx="50.32" cy="190.71" r="0.6"/></g><g id="shape244-250-3" data-name="shape244-250"><circle class="cls-36" cx="51.02" cy="193.35" r="1.6"/></g><g id="shape245-252-3" data-name="shape245-252"><circle class="cls-37" cx="53.17" cy="191.68" r="0.6"/></g><g id="shape246-254-3" data-name="shape246-254"><circle class="cls-38" cx="49.2" cy="195.31" r="0.9"/></g><g id="shape247-256-3" data-name="shape247-256"><circle class="cls-39" cx="49.11" cy="197.35" r="0.9"/></g><g id="shape248-258-3" data-name="shape248-258"><circle class="cls-40" cx="47.08" cy="197" r="0.6"/></g><g id="shape249-260-3" data-name="shape249-260"><circle class="cls-41" cx="51.55" cy="198.85" r="0.6"/></g></g><g id="shape328-406-2" data-name="shape328-406"><circle class="cls-28" cx="157.51" cy="131.87" r="0.9"/></g><g id="shape272-301-2" data-name="shape272-301"><circle class="cls-28" cx="210.82" cy="160.67" r="0.9"/></g><g id="shape273-303-2" data-name="shape273-303"><circle class="cls-27" cx="210.36" cy="158.86" r="0.9"/></g><g id="shape273-303-3" data-name="shape273-303"><circle class="cls-27" cx="186.96" cy="180.74" r="0.9"/></g><g id="shape273-303-4" data-name="shape273-303"><circle class="cls-27" cx="173.16" cy="174.45" r="0.9"/></g><g id="shape272-301-3" data-name="shape272-301"><circle class="cls-28" cx="188.4" cy="182" r="0.9"/></g><g id="group257-274-2" data-name="group257-274"><g id="shape258-275-2" data-name="shape258-275"><circle class="cls-28" cx="208.13" cy="201.98" r="0.4"/></g><g id="shape259-277-2" data-name="shape259-277"><circle class="cls-9" cx="208.62" cy="203.47" r="0.9"/></g><g id="shape260-279-2" data-name="shape260-279"><circle class="cls-27" cx="210.33" cy="202.07" r="1.2"/></g><g id="shape261-281-2" data-name="shape261-281"><circle class="cls-28" cx="210.28" cy="204.25" r="0.4"/></g><g id="shape262-283-2" data-name="shape262-283"><circle class="cls-28" cx="209.12" cy="204.96" r="0.4"/></g><g id="shape263-285-2" data-name="shape263-285"><circle class="cls-29" cx="207.46" cy="201.77" r="0.9"/></g></g><g id="shape325-400-2" data-name="shape325-400"><circle class="cls-28" cx="100.72" cy="161.54" r="0.4"/></g><g id="shape325-400-3" data-name="shape325-400"><circle class="cls-28" cx="101.12" cy="127.03" r="0.4"/></g><g id="shape325-400-4" data-name="shape325-400"><circle class="cls-28" cx="151.37" cy="110.35" r="0.4"/></g></svg>