<svg id="Layer_1" data-name="Layer 1" xmlns="http://www.w3.org/2000/svg" viewBox="0 0 78.1 79.79"><defs><style>.cls-1{fill:#211a52;}</style></defs><path class="cls-1" d="M12.62,55.91a.1.1,0,0,1,.09.06l.38,1.11a.09.09,0,0,1,0,.11l-3.5,2.94s-.07,0-.08,0L9.1,59a.08.08,0,0,1,0-.11l.56-.43-.51-1.51H8.46a.1.1,0,0,1-.09-.06L8,55.75a.05.05,0,0,1,0-.07Zm-2.14,1.92L11.64,57v0H10.18Z" transform="translate(-6.4 -5.31)"/><path class="cls-1" d="M14.9,61.41a.09.09,0,0,1,.1.05l.56,1a.09.09,0,0,1,0,.11l-3,3.49s-.06,0-.08,0l-.57-1a.13.13,0,0,1,0-.12l.49-.52L11.69,63l-.71.12a.08.08,0,0,1-.1,0l-.56-1s0-.07,0-.07Zm-1.78,2.26,1-1.05v0l-1.43.23Z" transform="translate(-6.4 -5.31)"/><path class="cls-1" d="M17.27,65.39a.05.05,0,0,1,.09,0l.68.89a.06.06,0,0,1,0,.09l-2.62,2a0,0,0,0,0,0,.06l1.25,1.65a.07.07,0,0,1,0,.1l-.7.53a.08.08,0,0,1-.1,0l-2-2.63a.07.07,0,0,1,0-.1Z" transform="translate(-6.4 -5.31)"/><path class="cls-1" d="M20.5,69.4a.08.08,0,0,1,.1,0L22,70.79c.78.76.82,1.45.33,1.95a1,1,0,0,1-1.09.26h0a1.07,1.07,0,0,1-.21,1.2c-.6.62-1.37.44-2.11-.28l-1.41-1.37s0-.06,0-.09ZM19,72.81l.42.4c.28.27.55.29.77.05s.2-.49-.08-.76l-.42-.4a0,0,0,0,0-.06,0l-.63.66A0,0,0,0,0,19,72.81Zm1.6-.92c.28.26.53.3.74.08s.17-.46-.11-.73l-.36-.36a0,0,0,0,0-.06,0l-.58.6s0,0,0,0Z" transform="translate(-6.4 -5.31)"/><path class="cls-1" d="M22.72,75.92a3.25,3.25,0,0,1,.58-1.06,3.14,3.14,0,0,1,.8-.89,1.79,1.79,0,0,1,2.12.17,1.79,1.79,0,0,1,.88,1.93,3.1,3.1,0,0,1-.57,1.06,3.21,3.21,0,0,1-.81.9,1.82,1.82,0,0,1-2.12-.17A1.81,1.81,0,0,1,22.72,75.92Zm2.2,1.15a2.63,2.63,0,0,0,.56-.67,2.75,2.75,0,0,0,.45-.76.6.6,0,0,0-.29-.67.62.62,0,0,0-.74,0,5.53,5.53,0,0,0-1,1.43.61.61,0,0,0,.29.68A.6.6,0,0,0,24.92,77.07Z" transform="translate(-6.4 -5.31)"/><path class="cls-1" d="M29.77,81.35c-.05,0-.07,0-.07-.1V79.57l-.42-.2s-.05,0-.06,0l-.64,1.32s0,0-.09,0l-1-.49a.06.06,0,0,1,0-.09l1.87-3.84a.06.06,0,0,1,.09,0l1.79.87c1,.5,1.32,1.31,1,2A1.3,1.3,0,0,1,30.9,80l.07,1.9a.05.05,0,0,1-.08.05ZM31,78.66c.12-.26,0-.52-.32-.68l-.6-.29s-.05,0-.06,0l-.37.77s0,0,0,0l.61.3A.49.49,0,0,0,31,78.66Z" transform="translate(-6.4 -5.31)"/><path class="cls-1" d="M33.74,80.66a3.1,3.1,0,0,1,.48-1.1,2.12,2.12,0,0,1,3.5.91.08.08,0,0,1-.07.09l-1,.07a.09.09,0,0,1-.1-.06A.77.77,0,0,0,36,80a.6.6,0,0,0-.72.19A2.57,2.57,0,0,0,35,81a3.21,3.21,0,0,0-.19.86.78.78,0,0,0,1.25.42.79.79,0,0,0,.12-.26s0,0,0,0l-.51-.16a.06.06,0,0,1-.05-.08l.22-.7a.06.06,0,0,1,.08,0l1.67.51a.06.06,0,0,1,0,.08l-.1.32a2.84,2.84,0,0,1-.42.94,1.78,1.78,0,0,1-2.08.54,1.8,1.8,0,0,1-1.45-1.56A3.24,3.24,0,0,1,33.74,80.66Z" transform="translate(-6.4 -5.31)"/><path class="cls-1" d="M42.75,83.22l.13-2.62a.07.07,0,0,1,.07-.07l1.12.06a.07.07,0,0,1,.07.07L44,83.36a.63.63,0,0,0,.64.72.61.61,0,0,0,.71-.65l.14-2.7s0-.06.07-.06l1.12,0s.07,0,.07.07l-.13,2.63a1.71,1.71,0,0,1-2,1.68A1.71,1.71,0,0,1,42.75,83.22Z" transform="translate(-6.4 -5.31)"/><path class="cls-1" d="M48.68,80.73s0-.06.06-.07l1-.11a.13.13,0,0,1,.13,0l1.73,2.32h0l-.27-2.47a.08.08,0,0,1,.07-.08l1-.11s.07,0,.07.06L53,84.56a.07.07,0,0,1-.06.07l-1.06.11a.11.11,0,0,1-.12,0l-1.73-2.31h0l.27,2.47s0,.07-.06.08l-1,.11s-.08,0-.08-.06Z" transform="translate(-6.4 -5.31)"/><path class="cls-1" d="M54.52,79.88a.06.06,0,0,1,0-.08l1.09-.26s.08,0,.08,0l1,4.15a.06.06,0,0,1,0,.08l-1.1.27a.06.06,0,0,1-.08,0Z" transform="translate(-6.4 -5.31)"/><path class="cls-1" d="M60.46,82.64a.08.08,0,0,1-.11,0l-3-3.42a.06.06,0,0,1,0-.09l1.1-.42a.09.09,0,0,1,.11,0l1.76,2.17h0l-.16-2.77a.1.1,0,0,1,.07-.1l1.09-.42s.08,0,.08.05l.06,4.54a.07.07,0,0,1-.06.09Z" transform="translate(-6.4 -5.31)"/><path class="cls-1" d="M62.94,76.88a.07.07,0,0,1,0-.09l2.78-1.58a.08.08,0,0,1,.1,0l.41.72a.06.06,0,0,1,0,.09l-1.7,1s0,0,0,.06l.33.58s0,0,0,0l1.4-.8a.08.08,0,0,1,.1,0l.4.71a.06.06,0,0,1,0,.09l-1.4.8a0,0,0,0,0,0,.06l.35.61s0,0,.06,0l1.7-1a.08.08,0,0,1,.1,0l.41.72a.07.07,0,0,1,0,.1l-2.78,1.58a.06.06,0,0,1-.09,0Z" transform="translate(-6.4 -5.31)"/><path class="cls-1" d="M72.1,76A.1.1,0,0,1,72,76l-1.51-.72-.37.29a0,0,0,0,0,0,.06L71,76.77a.07.07,0,0,1,0,.1l-.88.69a.06.06,0,0,1-.09,0l-2.65-3.35a.07.07,0,0,1,0-.1l1.56-1.23c.88-.7,1.74-.63,2.26,0a1.3,1.3,0,0,1,.13,1.46l1.74.76a0,0,0,0,1,0,.09Zm-1.89-2.29c-.17-.22-.45-.23-.74,0l-.53.42a0,0,0,0,0,0,.06l.53.67a0,0,0,0,0,.06,0l.53-.42C70.33,74.19,70.39,73.92,70.21,73.69Z" transform="translate(-6.4 -5.31)"/><path class="cls-1" d="M74.34,73.29a.06.06,0,0,1-.08-.06l-.06-.94s0-.07.06-.08a2.06,2.06,0,0,0,1.16-.61c.31-.33.35-.62.17-.79s-.32-.11-.69.21l-.2.16c-.82.69-1.52.82-2.12.26s-.53-1.45.22-2.26a3.16,3.16,0,0,1,1.55-1,.06.06,0,0,1,.08,0l.15.88a.08.08,0,0,1-.06.08,2.12,2.12,0,0,0-1,.58c-.25.27-.25.5-.1.65s.34.1.7-.21l.19-.17c.83-.69,1.51-.8,2.13-.23s.56,1.46-.33,2.42A3.2,3.2,0,0,1,74.34,73.29Z" transform="translate(-6.4 -5.31)"/><path class="cls-1" d="M75.34,66.36a.07.07,0,0,1,0-.1l.65-.91a.07.07,0,0,1,.1,0l3.46,2.49s0,.06,0,.1l-.65.91a.07.07,0,0,1-.09,0Z" transform="translate(-6.4 -5.31)"/><path class="cls-1" d="M81.52,64.81v0l0,0s0,0,0,0h0l-2.88-1.59s0,0,0,0h0l-.58,1v0l0,0h0a0,0,0,0,0,0,0h0l-.77-.43a.07.07,0,0,1,0-.08v0l1.81-3.28,0,0h0l.77.42a.05.05,0,0,1,0,.05s0,0,0,0h0l-.58,1.05v0h0L82,63.74h0s0,0,0,0a0,0,0,0,1,0,0Z" transform="translate(-6.4 -5.31)"/><path class="cls-1" d="M84.1,59.36a.05.05,0,0,1-.08,0l-1.54-.56-3,.49s-.06,0,0-.08l.38-1.06a.13.13,0,0,1,.1-.09l1.69-.25v0l-1.13-1.27a.13.13,0,0,1,0-.13l.38-1s.06-.06.09,0l2,2.29,1.53.57s0,.05,0,.09Z" transform="translate(-6.4 -5.31)"/><path class="cls-1" d="M6.47,47.26a.07.07,0,0,1-.07-.07V45.55c0-.93.44-1.42,1.13-1.43a1,1,0,0,1,1,.75h0a1,1,0,0,1,1-.84c.76,0,1.21.54,1.22,1.5v1.63c0,.05,0,.08-.06.08Zm1.91-1.71c0-.66-.34-1-.82-1s-.82.37-.81,1V46.8s0,.05,0,.05H8.34s0,0,0-.05Zm2.06,1.24V45.5c0-.7-.34-1.06-.86-1.06s-.86.37-.85,1.07v1.28a0,0,0,0,0,0,.05h1.64S10.44,46.81,10.44,46.79Z" transform="translate(-6.4 -5.31)"/><path class="cls-1" d="M11.32,39.28s0,.06-.07.07l-2,.76v.07L9,41.42s0,0,0,0l1.84.26a.06.06,0,0,1,.06.08l0,.26a.06.06,0,0,1-.07.06l-4.23-.58a.06.06,0,0,1,0-.08l.22-1.62c.13-.91.67-1.41,1.41-1.31a1.15,1.15,0,0,1,1,1.15l2.07-.79s.08,0,.07.05ZM8.16,39c-.55-.08-.91.26-1,.95L7,41.14s0,0,0,0l1.64.22s0,0,0,0l.18-1.24C9,39.45,8.71,39,8.16,39Z" transform="translate(-6.4 -5.31)"/><path class="cls-1" d="M7.64,35.81a.06.06,0,0,1,0-.08L8.37,33a.07.07,0,0,1,.09,0l.21.06s.05,0,0,.09L8,35.46s0,0,0,0l1.5.43s0,0,0,0l.57-2a.08.08,0,0,1,.09,0l.21.06a.08.08,0,0,1,0,.09L10,36a0,0,0,0,0,0,.06l1.57.44s0,0,0,0l.66-2.32a.07.07,0,0,1,.08,0l.21.06a.07.07,0,0,1,0,.09l-.77,2.69a.08.08,0,0,1-.09.05Z" transform="translate(-6.4 -5.31)"/><path class="cls-1" d="M9.79,29.57a.08.08,0,0,1,0-.1l.1-.24a.08.08,0,0,1,.1-.05l4.58.18s.06,0,0,.07l-.11.25a.08.08,0,0,1-.1.06l-1.16,0-.86,1.94.81.83a.11.11,0,0,1,0,.12l-.12.25a0,0,0,0,1-.08,0Zm3.05.11-2.47-.1v0l1.73,1.77Z" transform="translate(-6.4 -5.31)"/><path class="cls-1" d="M11.76,25.62s0-.06,0-.1l.14-.22a.06.06,0,0,1,.09,0l2.15,1.34-.92-3.32a.18.18,0,0,1,0-.13l.18-.29s.07,0,.08,0l.59,2.19,3.08,0c.05,0,.07,0,0,.06l-.17.28a.13.13,0,0,1-.1.06l-2.74,0,.38,1.41,1,.65s0,.06,0,.1l-.14.22a.06.06,0,0,1-.09,0Z" transform="translate(-6.4 -5.31)"/><path class="cls-1" d="M14.87,21a.07.07,0,0,1,0-.1l.16-.21a.08.08,0,0,1,.1,0l3.36,2.63a.06.06,0,0,1,0,.09l-.17.21a.06.06,0,0,1-.09,0Z" transform="translate(-6.4 -5.31)"/><path class="cls-1" d="M16.81,18.64s0-.06,0-.09l.18-.19a.11.11,0,0,1,.13,0l4.29.79v0l-2.58-2.52a.08.08,0,0,1,0-.1l.18-.19a.08.08,0,0,1,.1,0l3,3a.07.07,0,0,1,0,.1l-.2.2a.14.14,0,0,1-.13,0l-4.27-.81,0,0,2.58,2.53a.07.07,0,0,1,0,.1l-.19.19a.08.08,0,0,1-.1,0Z" transform="translate(-6.4 -5.31)"/><path class="cls-1" d="M22.33,16.28a3.73,3.73,0,0,1-.66-1.1,1.54,1.54,0,0,1,.67-1.75,1.59,1.59,0,0,1,1.71-.27.05.05,0,0,1,0,.08l-.12.22a.09.09,0,0,1-.09,0,1.26,1.26,0,0,0-1.33.21A1.19,1.19,0,0,0,22,15a3.81,3.81,0,0,0,.62,1,3.34,3.34,0,0,0,.8.86,1.16,1.16,0,0,0,1.4-.12,1.18,1.18,0,0,0,.51-1.31,2.57,2.57,0,0,0-.42-.74,0,0,0,0,0-.06,0l-.88.67a.08.08,0,0,1-.1,0l-.12-.17a.07.07,0,0,1,0-.1l1.19-.9a.06.06,0,0,1,.09,0l.16.21a2.94,2.94,0,0,1,.49.86A1.52,1.52,0,0,1,25.07,17a1.52,1.52,0,0,1-1.86.17A3.37,3.37,0,0,1,22.33,16.28Z" transform="translate(-6.4 -5.31)"/><path class="cls-1" d="M28.49,9.7s0-.07,0-.09l.24-.11a.12.12,0,0,1,.14,0l3.71,2.27h0l-1.5-3.29a.07.07,0,0,1,0-.09l.24-.11a.07.07,0,0,1,.1,0l1.76,3.88a.06.06,0,0,1,0,.09L33,12.4a.14.14,0,0,1-.14,0l-3.69-2.29h0l1.5,3.29s0,.07,0,.09l-.24.11a.06.06,0,0,1-.09,0Z" transform="translate(-6.4 -5.31)"/><path class="cls-1" d="M34.12,7.38a.08.08,0,0,1,.05-.09l2.68-.78s.08,0,.09,0l.06.21a.06.06,0,0,1,0,.08l-2.32.68s0,0,0,.05L35,9.07s0,0,.05,0l2-.59a.07.07,0,0,1,.09.05l.06.21a.07.07,0,0,1,0,.08l-2,.58s0,0,0,.05L35.61,11a0,0,0,0,0,.06,0L38,10.39a.08.08,0,0,1,.09,0l.06.21a.08.08,0,0,1-.05.09l-2.68.78s-.08,0-.09,0Z" transform="translate(-6.4 -5.31)"/><path class="cls-1" d="M43.38,9.85a.08.08,0,0,1-.09,0L41.71,6.37h0L41,10.09a.06.06,0,0,1-.07.07l-.22,0a.11.11,0,0,1-.1,0L38.93,6.06s0-.08,0-.08l.26,0s.09,0,.1.06l1.41,3.47h0l.67-3.74s0-.06.07-.07l.22,0a.08.08,0,0,1,.09.06L43.4,9.13h0l.48-3.71s0-.07.09-.07l.25,0c.05,0,.08,0,.07.07l-.62,4.37a.06.06,0,0,1-.07.07Z" transform="translate(-6.4 -5.31)"/><path class="cls-1" d="M49,7.55A3.66,3.66,0,0,1,49.3,6.3,1.54,1.54,0,0,1,51,5.48a1.6,1.6,0,0,1,1.43,1s0,.07,0,.08l-.24.08s-.08,0-.09,0a1.26,1.26,0,0,0-1.12-.75,1.15,1.15,0,0,0-1.26.61,3.57,3.57,0,0,0-.24,1.16,3.36,3.36,0,0,0,0,1.17,1.13,1.13,0,0,0,1.1.86A1.17,1.17,0,0,0,51.81,9a2.51,2.51,0,0,0,.2-.82s0,0,0-.05l-1.1-.11A.07.07,0,0,1,50.8,8l0-.21a.06.06,0,0,1,.07-.06l1.48.15a.08.08,0,0,1,.07.08l0,.26a3,3,0,0,1-.23,1A1.77,1.77,0,0,1,49,8.83,3.83,3.83,0,0,1,49,7.55Z" transform="translate(-6.4 -5.31)"/><path class="cls-1" d="M56.91,11.16s-.06,0-.07-.07L56.31,9h-.07L55,8.65a.06.06,0,0,0-.06,0l-.45,1.81a.08.08,0,0,1-.09,0l-.26-.06s-.06-.05-.05-.08l1.05-4.14s0-.06.09,0l1.58.4c.89.23,1.33.82,1.14,1.55A1.14,1.14,0,0,1,56.73,9l.55,2.15s0,.07-.05.06Zm.68-3.1c.13-.54-.16-.94-.84-1.11l-1.21-.31s0,0,0,0l-.41,1.61s0,0,0,.05l1.21.31C57,8.8,57.45,8.59,57.59,8.06Z" transform="translate(-6.4 -5.31)"/><path class="cls-1" d="M59.38,11a3.43,3.43,0,0,1,.35-1.23,3.42,3.42,0,0,1,.62-1.12,1.53,1.53,0,0,1,1.84-.31,1.53,1.53,0,0,1,1.07,1.52,3.43,3.43,0,0,1-.35,1.23,3.42,3.42,0,0,1-.62,1.12A1.75,1.75,0,0,1,59.38,11Zm3.48-1.2a1.15,1.15,0,0,0-.8-1.14,1.14,1.14,0,0,0-1.38.24,3.14,3.14,0,0,0-.56,1,3.35,3.35,0,0,0-.34,1.12,1.14,1.14,0,0,0,.81,1.14A1.11,1.11,0,0,0,62,12a3.41,3.41,0,0,0,.56-1A3.37,3.37,0,0,0,62.86,9.8Z" transform="translate(-6.4 -5.31)"/><path class="cls-1" d="M64.86,12.88a1.1,1.1,0,0,0,.43,1.69,1.11,1.11,0,0,0,1.7-.41l1.45-2.42a.07.07,0,0,1,.09,0l.23.14a.06.06,0,0,1,0,.09l-1.45,2.41a1.46,1.46,0,0,1-2.23.51,1.47,1.47,0,0,1-.6-2.21L66,10.25a.08.08,0,0,1,.1,0l.22.14a.06.06,0,0,1,0,.09Z" transform="translate(-6.4 -5.31)"/><path class="cls-1" d="M71,13.52s.06,0,.1,0l.2.17a.12.12,0,0,1,.06.12L71,18.15l0,0,2.29-2.79a.08.08,0,0,1,.1,0l.2.17a.07.07,0,0,1,0,.1l-2.71,3.29a.08.08,0,0,1-.1,0l-.22-.18a.17.17,0,0,1,0-.13L71,14.3l0,0-2.3,2.8a.07.07,0,0,1-.1,0l-.21-.17a.06.06,0,0,1,0-.09Z" transform="translate(-6.4 -5.31)"/><path class="cls-1" d="M75.58,17.55a.08.08,0,0,1,.1,0l1,1.14a1.45,1.45,0,0,1,.38,1.75,3.41,3.41,0,0,1-.88,1,3.25,3.25,0,0,1-1.06.77,1.45,1.45,0,0,1-1.71-.55l-1-1.14a.07.07,0,0,1,0-.1Zm-2.66,3,.74.81a1.14,1.14,0,0,0,1.31.46,3.38,3.38,0,0,0,1-.71,3.35,3.35,0,0,0,.81-.88,1.13,1.13,0,0,0-.33-1.35l-.73-.81a0,0,0,0,0-.06,0L72.92,20.5S72.91,20.54,72.92,20.56Z" transform="translate(-6.4 -5.31)"/><path class="cls-1" d="M65.35,58a28.83,28.83,0,0,1-4.1-2c-5.22-3.18-6.81-7.93-3.88-16.2,1.7-4.79,2.52-8.82,2.1-13.18l-.18-.12C59,32,57,35.38,53.39,41.14c-7.66,12.2.11,21.14,3.81,23.92A22.39,22.39,0,0,0,65.35,58Z" transform="translate(-6.4 -5.31)"/><path class="cls-1" d="M49.84,40.69c5.9-6.95,7.82-10.15,8.22-14.93a1.18,1.18,0,0,0-.19-.11C56.5,31.37,53.07,34.4,44,40.42,34.3,46.9,34.74,58.05,37.22,65A22,22,0,0,0,49.57,67.3C42.54,56.63,43,48.71,49.84,40.69Z" transform="translate(-6.4 -5.31)"/><path class="cls-1" d="M46.23,35.56c6.52-2.83,9.61-7.12,10.51-10.49L56.56,25c-2.84,5.94-8.5,6.93-18.19,8.23a18.39,18.39,0,0,0-12.91,8.13,23,23,0,0,0-.33,3.83,22.24,22.24,0,0,0,4.92,14C29.78,42.52,38.42,39,46.23,35.56Z" transform="translate(-6.4 -5.31)"/></svg>