<?xml version="1.0" encoding="utf-8"?>
<!-- Generator: Adobe Illustrator 25.1.0, SVG Export Plug-In . SVG Version: 6.00 Build 0)  -->
<svg version="1.1" id="Layer_1" xmlns="http://www.w3.org/2000/svg" xmlns:xlink="http://www.w3.org/1999/xlink" x="0px" y="0px"
	 viewBox="0 0 376.43 128.35" style="enable-background:new 0 0 376.43 128.35;" xml:space="preserve">
<style type="text/css">
	.st0{fill:#003F88;}
	.st1{fill:none;stroke:#003F88;stroke-miterlimit:10;}
</style>
<g>
	<path class="st0" d="M41.27,66.45l0,22.25l0,2.78v1.39c0,0.23,0.02,0.48,0,0.68l-0.03,0.56l-0.08,1.13l0.02,1.13
		c-0.04,0.77,0.12,1.51,0.16,2.3c0.44,3.04,1.75,6.17,4.09,8.41c1.12,1.15,2.48,2.05,3.9,2.76c0.73,0.31,1.45,0.64,2.23,0.82
		c0.74,0.25,1.53,0.35,2.29,0.49c0.37,0.09,0.77,0.07,1.15,0.11c0.39,0.01,0.75,0.09,1.14,0.07c0.77-0.03,1.51,0.03,2.26-0.06
		l0.56-0.04c0.2-0.01,0.46-0.03,0.68-0.02c0.46,0.01,0.93,0.02,1.39,0.02l2.78,0l22.25,0l0,9l-22.25,0l-2.78,0
		c-0.46,0-0.93,0-1.39,0.02c-0.24,0-0.45,0-0.71-0.03l-0.83-0.09c-2.21-0.22-4.37-0.81-6.4-1.62c-4.05-1.7-7.54-4.21-10.51-7.18
		c-0.79-0.7-1.42-1.55-2.14-2.32l-0.97-1.25c-0.33-0.42-0.65-0.84-0.93-1.29c-1.25-1.73-2.24-3.65-3.12-5.65
		c-0.35-1.03-0.8-2.05-1.02-3.13c-0.13-0.54-0.27-1.08-0.38-1.62l-0.22-1.65l-0.1-0.83c-0.04-0.26,0-0.47-0.01-0.71v-1.39l0-2.78
		l0-22.25L41.27,66.45z"/>
</g>
<path class="st1" d="M3.86,4.54C45,18.61,107.47,34.74,184.73,35.2c80.67,0.48,145.71-16.3,187.68-30.66"/>
<line class="st1" x1="3.86" y1="83.19" x2="372.41" y2="83.19"/>
<g>
	<path class="st0" d="M143.67,10.57l0,22.25v2.78v1.39c0,0.23,0.02,0.48,0,0.68l-0.03,0.56l-0.08,1.13l0.02,1.13
		c-0.04,0.77,0.12,1.51,0.16,2.3c0.44,3.04,1.75,6.17,4.09,8.41c1.12,1.15,2.48,2.05,3.9,2.76c0.73,0.31,1.45,0.64,2.23,0.82
		c0.74,0.25,1.53,0.35,2.29,0.49c0.37,0.09,0.77,0.07,1.15,0.11c0.39,0.01,0.75,0.09,1.14,0.07c0.77-0.03,1.51,0.03,2.26-0.06
		l0.56-0.04c0.2-0.01,0.46-0.03,0.68-0.02c0.46,0.01,0.93,0.02,1.39,0.02l2.78,0l22.25,0l0,9l-22.25,0l-2.78,0
		c-0.46,0-0.93,0-1.39,0.02c-0.24,0-0.45,0-0.71-0.03l-0.83-0.09c-2.21-0.22-4.37-0.81-6.4-1.62c-4.05-1.7-7.54-4.21-10.51-7.18
		c-0.79-0.7-1.42-1.55-2.14-2.32l-0.97-1.25c-0.33-0.42-0.65-0.84-0.93-1.29c-1.25-1.73-2.24-3.65-3.12-5.65
		c-0.35-1.03-0.8-2.05-1.02-3.13c-0.13-0.54-0.27-1.08-0.38-1.62l-0.21-1.65l-0.1-0.83c-0.04-0.26,0-0.47-0.01-0.71V35.6v-2.78
		l0-22.25L143.67,10.57z"/>
</g>
<g>
	<path class="st0" d="M122.39,43.34L106.66,27.6l-1.97-1.97l-0.98-0.98c-0.16-0.16-0.35-0.33-0.48-0.48l-0.37-0.42l-0.74-0.86
		l-0.81-0.79c-0.52-0.57-1.16-0.99-1.74-1.51c-2.46-1.84-5.6-3.13-8.83-3.05c-1.61-0.03-3.2,0.3-4.71,0.81
		c-0.74,0.3-1.48,0.58-2.15,0.99c-0.7,0.35-1.33,0.83-1.96,1.27c-0.33,0.2-0.6,0.49-0.89,0.73c-0.28,0.26-0.6,0.47-0.86,0.75
		c-0.52,0.56-1.09,1.05-1.56,1.64l-0.37,0.42c-0.14,0.15-0.3,0.34-0.47,0.5c-0.34,0.32-0.67,0.64-1,0.97l-1.97,1.97L59.08,43.34
		l-6.36-6.36l15.73-15.73l1.97-1.97c0.33-0.32,0.65-0.66,0.97-1c0.17-0.17,0.32-0.32,0.52-0.48l0.65-0.52
		c1.72-1.41,3.67-2.52,5.67-3.38c4.07-1.66,8.31-2.36,12.51-2.35c1.05-0.07,2.1,0.09,3.15,0.12l1.57,0.19
		c0.53,0.06,1.05,0.13,1.57,0.25c2.11,0.34,4.17,1,6.21,1.79c0.97,0.48,2.02,0.88,2.93,1.49c0.47,0.29,0.95,0.57,1.41,0.88
		l1.32,1.01l0.66,0.52c0.21,0.16,0.34,0.33,0.51,0.49l0.98,0.98l1.97,1.97l15.73,15.73L122.39,43.34z"/>
</g>
<g>
	<path class="st0" d="M310.09,43.34L294.36,27.6l-1.97-1.97l-0.98-0.98c-0.16-0.16-0.35-0.33-0.48-0.48l-0.37-0.42l-0.74-0.86
		l-0.81-0.79c-0.52-0.57-1.16-0.99-1.74-1.51c-2.46-1.84-5.6-3.13-8.83-3.05c-1.61-0.03-3.2,0.3-4.71,0.81
		c-0.74,0.3-1.48,0.58-2.15,0.99c-0.7,0.35-1.33,0.83-1.96,1.27c-0.33,0.2-0.6,0.49-0.89,0.73c-0.28,0.26-0.6,0.47-0.86,0.75
		c-0.52,0.56-1.09,1.05-1.56,1.64l-0.37,0.42c-0.14,0.15-0.3,0.34-0.47,0.5c-0.34,0.32-0.67,0.64-1,0.97l-1.97,1.97l-15.73,15.73
		l-6.36-6.36l15.73-15.73l1.97-1.97c0.33-0.32,0.65-0.66,0.97-1c0.17-0.17,0.32-0.32,0.52-0.48l0.65-0.52
		c1.72-1.41,3.67-2.52,5.67-3.38c4.07-1.66,8.31-2.36,12.51-2.35c1.05-0.07,2.1,0.09,3.15,0.12l1.57,0.19
		c0.53,0.06,1.05,0.13,1.57,0.25c2.11,0.34,4.17,1,6.21,1.79c0.97,0.48,2.02,0.88,2.93,1.49c0.47,0.29,0.95,0.57,1.41,0.88
		l1.32,1.01l0.66,0.52c0.21,0.16,0.34,0.33,0.51,0.49l0.98,0.98l1.97,1.97l15.73,15.73L310.09,43.34z"/>
</g>
<g>
	<path class="st0" d="M249.31,19.02l-22.25,0l-2.78,0h-1.39c-0.23,0-0.48,0.02-0.68,0l-0.56-0.03l-1.13-0.08l-1.13,0.02
		c-0.77-0.04-1.51,0.12-2.3,0.16c-3.04,0.44-6.17,1.75-8.41,4.09c-1.15,1.12-2.05,2.48-2.76,3.9c-0.31,0.73-0.64,1.45-0.82,2.23
		c-0.25,0.74-0.35,1.53-0.49,2.29c-0.09,0.37-0.07,0.77-0.11,1.15c-0.01,0.39-0.09,0.75-0.07,1.14c0.03,0.77-0.03,1.51,0.06,2.26
		l0.04,0.56c0.01,0.2,0.03,0.46,0.02,0.68c-0.01,0.46-0.02,0.93-0.02,1.39v2.78l0,22.25l-9,0l0-22.25v-2.78c0-0.46,0-0.93-0.02-1.39
		c0-0.24,0-0.45,0.03-0.71l0.09-0.83c0.22-2.21,0.81-4.37,1.62-6.4c1.7-4.05,4.21-7.54,7.18-10.51c0.7-0.79,1.55-1.42,2.32-2.14
		l1.25-0.97c0.42-0.33,0.84-0.65,1.29-0.93c1.73-1.25,3.65-2.24,5.65-3.12c1.03-0.35,2.05-0.8,3.13-1.02
		c0.54-0.13,1.08-0.27,1.62-0.38l1.65-0.22l0.83-0.1c0.26-0.04,0.47,0,0.71-0.01h1.39l2.78,0l22.25,0L249.31,19.02z"/>
</g>
<g>
	<path class="st0" d="M134.75,99.18l-15.73-15.73l-1.97-1.97l-0.98-0.98c-0.16-0.16-0.35-0.33-0.48-0.48l-0.37-0.42l-0.74-0.86
		l-0.81-0.79c-0.52-0.57-1.16-0.99-1.74-1.51c-2.46-1.84-5.6-3.13-8.83-3.05c-1.61-0.03-3.2,0.3-4.71,0.81
		c-0.74,0.3-1.48,0.58-2.15,0.99c-0.7,0.35-1.33,0.83-1.96,1.27c-0.33,0.2-0.6,0.49-0.89,0.73c-0.28,0.26-0.6,0.47-0.86,0.75
		C92,78.52,91.43,79,90.96,79.59l-0.37,0.42c-0.14,0.15-0.3,0.34-0.47,0.5c-0.34,0.32-0.67,0.64-1,0.97l-1.97,1.97L71.43,99.18
		l-6.36-6.36L80.8,77.09l1.97-1.97c0.33-0.32,0.65-0.66,0.97-1c0.17-0.17,0.32-0.32,0.52-0.48l0.65-0.52
		c1.72-1.41,3.67-2.52,5.67-3.38c4.07-1.66,8.31-2.36,12.51-2.35c1.05-0.07,2.1,0.09,3.15,0.12l1.57,0.19
		c0.53,0.06,1.05,0.13,1.57,0.25c2.11,0.34,4.17,1,6.21,1.79c0.97,0.48,2.02,0.88,2.93,1.49c0.47,0.29,0.95,0.57,1.41,0.88
		l1.32,1.01l0.66,0.52c0.21,0.16,0.34,0.33,0.51,0.49l0.98,0.98l1.97,1.97l15.73,15.73L134.75,99.18z"/>
</g>
<g>
	<path class="st0" d="M295,99.18l-15.73-15.73l-1.97-1.97l-0.98-0.98c-0.16-0.16-0.35-0.33-0.48-0.48l-0.37-0.42l-0.74-0.86
		l-0.81-0.79c-0.52-0.57-1.16-0.99-1.74-1.51c-2.46-1.84-5.6-3.13-8.83-3.05c-1.61-0.03-3.2,0.3-4.71,0.81
		c-0.74,0.3-1.48,0.58-2.15,0.99c-0.7,0.35-1.33,0.83-1.96,1.27c-0.33,0.2-0.6,0.49-0.89,0.73c-0.28,0.26-0.6,0.47-0.86,0.75
		c-0.52,0.56-1.09,1.05-1.56,1.64l-0.37,0.42c-0.14,0.15-0.3,0.34-0.47,0.5c-0.34,0.32-0.67,0.64-1,0.97l-1.97,1.97l-15.73,15.73
		l-6.36-6.36l15.73-15.73l1.97-1.97c0.33-0.32,0.65-0.66,0.97-1c0.17-0.17,0.32-0.32,0.52-0.48l0.65-0.52
		c1.72-1.41,3.67-2.52,5.67-3.38c4.07-1.66,8.31-2.36,12.51-2.35c1.05-0.07,2.1,0.09,3.15,0.12l1.57,0.19
		c0.53,0.06,1.05,0.13,1.57,0.25c2.11,0.34,4.17,1,6.21,1.79c0.97,0.48,2.02,0.88,2.93,1.49c0.47,0.29,0.95,0.57,1.41,0.88
		l1.32,1.01l0.66,0.52c0.21,0.16,0.34,0.33,0.51,0.49l0.98,0.98l1.97,1.97l15.73,15.73L295,99.18z"/>
</g>
<g>
	<path class="st0" d="M151.56,88.73l15.73,15.73l1.97,1.97l0.98,0.98c0.16,0.16,0.35,0.33,0.48,0.48l0.37,0.42l0.74,0.86l0.81,0.79
		c0.52,0.57,1.16,0.99,1.74,1.51c2.46,1.84,5.6,3.13,8.83,3.05c1.61,0.03,3.2-0.3,4.71-0.81c0.74-0.3,1.48-0.58,2.15-0.99
		c0.7-0.35,1.33-0.83,1.96-1.27c0.33-0.2,0.6-0.49,0.89-0.73c0.28-0.26,0.6-0.47,0.86-0.75c0.52-0.56,1.09-1.05,1.56-1.64l0.37-0.42
		c0.14-0.15,0.3-0.34,0.47-0.5c0.34-0.32,0.67-0.64,1-0.97l1.97-1.97l15.73-15.73l6.36,6.36l-15.73,15.73l-1.97,1.97
		c-0.33,0.32-0.65,0.66-0.97,1c-0.17,0.17-0.32,0.32-0.52,0.48l-0.65,0.52c-1.72,1.41-3.67,2.52-5.67,3.38
		c-4.07,1.66-8.31,2.36-12.51,2.35c-1.05,0.07-2.1-0.09-3.15-0.12l-1.57-0.19c-0.53-0.06-1.05-0.13-1.57-0.25
		c-2.11-0.34-4.17-1-6.21-1.79c-0.97-0.48-2.02-0.88-2.93-1.49c-0.47-0.29-0.95-0.57-1.41-0.88l-1.32-1.01l-0.66-0.52
		c-0.21-0.16-0.34-0.33-0.51-0.49l-0.98-0.98l-1.97-1.97L145.19,95.1L151.56,88.73z"/>
</g>
<g>
	<path class="st0" d="M317.78,66.45l0,22.25l0,2.78v1.39c0,0.23,0.02,0.48,0,0.68l-0.03,0.56l-0.08,1.13l0.02,1.13
		c-0.04,0.77,0.12,1.51,0.16,2.3c0.44,3.04,1.75,6.17,4.09,8.41c1.12,1.15,2.48,2.05,3.9,2.76c0.73,0.31,1.45,0.64,2.23,0.82
		c0.74,0.25,1.53,0.35,2.29,0.49c0.37,0.09,0.77,0.07,1.15,0.11c0.39,0.01,0.75,0.09,1.14,0.07c0.77-0.03,1.51,0.03,2.26-0.06
		l0.56-0.04c0.2-0.01,0.46-0.03,0.68-0.02c0.46,0.01,0.93,0.02,1.39,0.02h2.78l22.25,0l0,9l-22.25,0h-2.78c-0.46,0-0.93,0-1.39,0.02
		c-0.24,0-0.45,0-0.71-0.03l-0.83-0.09c-2.21-0.22-4.37-0.81-6.4-1.62c-4.05-1.7-7.54-4.21-10.51-7.18
		c-0.79-0.7-1.42-1.55-2.14-2.32l-0.97-1.25c-0.33-0.42-0.65-0.84-0.93-1.29c-1.25-1.73-2.24-3.65-3.12-5.65
		c-0.35-1.03-0.8-2.05-1.02-3.13c-0.13-0.54-0.27-1.08-0.38-1.62l-0.22-1.65l-0.1-0.83c-0.04-0.26,0-0.47-0.01-0.71v-1.39l0-2.78
		l0-22.25H317.78z"/>
</g>
</svg>
