<svg id="Layer_1" data-name="Layer 1" xmlns="http://www.w3.org/2000/svg" viewBox="0 0 794.92 291"><defs><style>.cls-1,.cls-3,.cls-5,.cls-8{fill:#1d1d1b;}.cls-1{stroke:#99988f;}.cls-1,.cls-2,.cls-4{stroke-miterlimit:10;stroke-width:0.5px;}.cls-2{fill:none;}.cls-2,.cls-4{stroke:#1d1d1b;}.cls-4{fill:#f6f6f6;}.cls-5{font-size:22px;font-family:Calibri;}.cls-6{letter-spacing:-0.03em;}.cls-7{letter-spacing:-0.02em;}.cls-8{font-size:12px;font-family:MyriadPro-Regular, Myriad Pro;}.cls-9{letter-spacing:-0.01em;}.cls-10{letter-spacing:0em;}.cls-11{letter-spacing:-0.01em;}</style></defs><line class="cls-1" y1="46.16" x2="353.22" y2="46.16"/><line class="cls-1" y1="79.49" x2="353.22" y2="79.49"/><line class="cls-1" y1="112.82" x2="353.22" y2="112.82"/><line class="cls-1" y1="146.16" x2="353.22" y2="146.16"/><line class="cls-1" y1="179.49" x2="353.22" y2="179.49"/><line class="cls-1" y1="212.82" x2="353.22" y2="212.82"/><line class="cls-1" y1="246.16" x2="353.22" y2="246.16"/><line class="cls-1" x1="14.09" y1="257.46" x2="14.09" y2="34.2"/><line class="cls-1" x1="46.59" y1="257.46" x2="46.59" y2="34.2"/><line class="cls-1" x1="79.09" y1="257.46" x2="79.09" y2="34.2"/><line class="cls-1" x1="111.59" y1="257.46" x2="111.59" y2="34.2"/><line class="cls-1" x1="144.09" y1="257.46" x2="144.09" y2="34.2"/><line class="cls-1" x1="176.59" y1="257.46" x2="176.59" y2="34.2"/><line class="cls-1" x1="209.09" y1="257.46" x2="209.09" y2="34.2"/><line class="cls-1" x1="241.59" y1="257.46" x2="241.59" y2="34.2"/><line class="cls-1" x1="274.09" y1="257.46" x2="274.09" y2="34.2"/><line class="cls-1" x1="306.59" y1="257.46" x2="306.59" y2="34.2"/><line class="cls-1" x1="339.09" y1="257.46" x2="339.09" y2="34.2"/><line class="cls-1" x1="435.52" y1="46.81" x2="788.74" y2="46.81"/><line class="cls-1" x1="435.52" y1="80.14" x2="788.74" y2="80.14"/><line class="cls-1" x1="435.52" y1="113.47" x2="788.74" y2="113.47"/><line class="cls-1" x1="435.52" y1="146.81" x2="788.74" y2="146.81"/><line class="cls-1" x1="435.52" y1="180.14" x2="788.74" y2="180.14"/><line class="cls-1" x1="435.52" y1="213.47" x2="788.74" y2="213.47"/><line class="cls-1" x1="435.52" y1="246.81" x2="788.74" y2="246.81"/><line class="cls-1" x1="449.61" y1="258.11" x2="449.61" y2="34.85"/><line class="cls-1" x1="482.11" y1="258.11" x2="482.11" y2="34.85"/><line class="cls-1" x1="514.61" y1="258.11" x2="514.61" y2="34.85"/><line class="cls-1" x1="547.11" y1="258.11" x2="547.11" y2="34.85"/><line class="cls-1" x1="579.61" y1="258.11" x2="579.61" y2="34.85"/><line class="cls-1" x1="612.11" y1="258.11" x2="612.11" y2="34.85"/><line class="cls-1" x1="644.61" y1="258.11" x2="644.61" y2="34.85"/><line class="cls-1" x1="677.11" y1="258.11" x2="677.11" y2="34.85"/><line class="cls-1" x1="709.61" y1="258.11" x2="709.61" y2="34.85"/><line class="cls-1" x1="742.11" y1="258.11" x2="742.11" y2="34.85"/><line class="cls-1" x1="774.61" y1="258.11" x2="774.61" y2="34.85"/><polyline class="cls-2" points="453.35 53.3 453.35 76.68 476.53 76.68"/><polygon class="cls-3" points="453.35 50.66 451.82 54.39 453.35 53.5 454.87 54.39 453.35 50.66"/><polygon class="cls-3" points="479.17 76.68 475.44 78.2 476.33 76.68 475.44 75.15 479.17 76.68"/><polyline class="cls-2" points="485.9 53.3 485.9 76.68 509.08 76.68"/><polygon class="cls-3" points="485.9 50.66 484.38 54.39 485.9 53.5 487.43 54.39 485.9 50.66"/><polygon class="cls-3" points="511.73 76.68 508 78.2 508.88 76.68 508 75.15 511.73 76.68"/><polyline class="cls-2" points="518.46 53.3 518.46 76.68 541.64 76.68"/><polygon class="cls-3" points="518.46 50.66 516.93 54.39 518.46 53.5 519.98 54.39 518.46 50.66"/><polygon class="cls-3" points="544.28 76.68 540.55 78.2 541.44 76.68 540.55 75.15 544.28 76.68"/><polyline class="cls-2" points="551.01 53.3 551.01 76.68 574.19 76.68"/><polygon class="cls-3" points="551.01 50.66 549.49 54.39 551.01 53.5 552.54 54.39 551.01 50.66"/><polygon class="cls-3" points="576.84 76.68 573.11 78.2 574 76.68 573.11 75.15 576.84 76.68"/><polyline class="cls-2" points="583.57 53.3 583.57 76.68 606.75 76.68"/><polygon class="cls-3" points="583.57 50.66 582.05 54.39 583.57 53.5 585.09 54.39 583.57 50.66"/><polygon class="cls-3" points="609.4 76.68 605.66 78.2 606.55 76.68 605.66 75.15 609.4 76.68"/><polyline class="cls-2" points="616.13 53.3 616.13 76.68 639.3 76.68"/><polygon class="cls-3" points="616.13 50.66 614.6 54.39 616.13 53.5 617.65 54.39 616.13 50.66"/><polygon class="cls-3" points="641.95 76.68 638.22 78.2 639.11 76.68 638.22 75.15 641.95 76.68"/><polyline class="cls-2" points="648.68 53.3 648.68 76.68 671.86 76.68"/><polygon class="cls-3" points="648.68 50.66 647.16 54.39 648.68 53.5 650.21 54.39 648.68 50.66"/><polygon class="cls-3" points="674.51 76.68 670.78 78.2 671.66 76.68 670.78 75.15 674.51 76.68"/><polyline class="cls-2" points="681.24 53.3 681.24 76.68 704.41 76.68"/><polygon class="cls-3" points="681.24 50.66 679.71 54.39 681.24 53.5 682.76 54.39 681.24 50.66"/><polygon class="cls-3" points="707.06 76.68 703.33 78.2 704.22 76.68 703.33 75.15 707.06 76.68"/><polyline class="cls-2" points="713.79 53.3 713.79 76.68 736.97 76.68"/><polygon class="cls-3" points="713.79 50.66 712.27 54.39 713.79 53.5 715.32 54.39 713.79 50.66"/><polygon class="cls-3" points="739.62 76.68 735.89 78.2 736.77 76.68 735.89 75.15 739.62 76.68"/><polyline class="cls-2" points="746.35 53.3 746.35 76.68 769.53 76.68"/><polygon class="cls-3" points="746.35 50.66 744.82 54.39 746.35 53.5 747.87 54.39 746.35 50.66"/><polygon class="cls-3" points="772.17 76.68 768.44 78.2 769.33 76.68 768.44 75.15 772.17 76.68"/><polyline class="cls-2" points="453.35 86.3 453.35 109.68 476.53 109.68"/><polygon class="cls-3" points="453.35 83.66 451.82 87.39 453.35 86.5 454.87 87.39 453.35 83.66"/><polygon class="cls-3" points="479.17 109.68 475.44 111.2 476.33 109.68 475.44 108.15 479.17 109.68"/><polyline class="cls-2" points="485.9 86.3 485.9 109.68 509.08 109.68"/><polygon class="cls-3" points="485.9 83.66 484.38 87.39 485.9 86.5 487.43 87.39 485.9 83.66"/><polygon class="cls-3" points="511.73 109.68 508 111.2 508.88 109.68 508 108.15 511.73 109.68"/><polyline class="cls-2" points="518.46 86.3 518.46 109.68 541.64 109.68"/><polygon class="cls-3" points="518.46 83.66 516.93 87.39 518.46 86.5 519.98 87.39 518.46 83.66"/><polygon class="cls-3" points="544.28 109.68 540.55 111.2 541.44 109.68 540.55 108.15 544.28 109.68"/><polyline class="cls-2" points="551.01 86.3 551.01 109.68 574.19 109.68"/><polygon class="cls-3" points="551.01 83.66 549.49 87.39 551.01 86.5 552.54 87.39 551.01 83.66"/><polygon class="cls-3" points="576.84 109.68 573.11 111.2 574 109.68 573.11 108.15 576.84 109.68"/><polyline class="cls-2" points="583.57 86.3 583.57 109.68 606.75 109.68"/><polygon class="cls-3" points="583.57 83.66 582.05 87.39 583.57 86.5 585.09 87.39 583.57 83.66"/><polygon class="cls-3" points="609.4 109.68 605.66 111.2 606.55 109.68 605.66 108.15 609.4 109.68"/><polyline class="cls-2" points="616.13 86.3 616.13 109.68 639.3 109.68"/><polygon class="cls-3" points="616.13 83.66 614.6 87.39 616.13 86.5 617.65 87.39 616.13 83.66"/><polygon class="cls-3" points="641.95 109.68 638.22 111.2 639.11 109.68 638.22 108.15 641.95 109.68"/><polyline class="cls-2" points="648.68 86.3 648.68 109.68 671.86 109.68"/><polygon class="cls-3" points="648.68 83.66 647.16 87.39 648.68 86.5 650.21 87.39 648.68 83.66"/><polygon class="cls-3" points="674.51 109.68 670.78 111.2 671.66 109.68 670.78 108.15 674.51 109.68"/><polyline class="cls-2" points="681.24 86.3 681.24 109.68 704.41 109.68"/><polygon class="cls-3" points="681.24 83.66 679.71 87.39 681.24 86.5 682.76 87.39 681.24 83.66"/><polygon class="cls-3" points="707.06 109.68 703.33 111.2 704.22 109.68 703.33 108.15 707.06 109.68"/><polyline class="cls-2" points="713.79 86.3 713.79 109.68 736.97 109.68"/><polygon class="cls-3" points="713.79 83.66 712.27 87.39 713.79 86.5 715.32 87.39 713.79 83.66"/><polygon class="cls-3" points="739.62 109.68 735.89 111.2 736.77 109.68 735.89 108.15 739.62 109.68"/><polyline class="cls-2" points="746.35 86.3 746.35 109.68 769.53 109.68"/><polygon class="cls-3" points="746.35 83.66 744.82 87.39 746.35 86.5 747.87 87.39 746.35 83.66"/><polygon class="cls-3" points="772.17 109.68 768.44 111.2 769.33 109.68 768.44 108.15 772.17 109.68"/><polyline class="cls-2" points="453.35 119.3 453.35 142.68 476.53 142.68"/><polygon class="cls-3" points="453.35 116.66 451.82 120.39 453.35 119.5 454.87 120.39 453.35 116.66"/><polygon class="cls-3" points="479.17 142.68 475.44 144.2 476.33 142.68 475.44 141.15 479.17 142.68"/><polyline class="cls-2" points="485.9 119.3 485.9 142.68 509.08 142.68"/><polygon class="cls-3" points="485.9 116.66 484.38 120.39 485.9 119.5 487.43 120.39 485.9 116.66"/><polygon class="cls-3" points="511.73 142.68 508 144.2 508.88 142.68 508 141.15 511.73 142.68"/><polyline class="cls-2" points="518.46 119.3 518.46 142.68 541.64 142.68"/><polygon class="cls-3" points="518.46 116.66 516.93 120.39 518.46 119.5 519.98 120.39 518.46 116.66"/><polygon class="cls-3" points="544.28 142.68 540.55 144.2 541.44 142.68 540.55 141.15 544.28 142.68"/><polyline class="cls-2" points="551.01 119.3 551.01 142.68 574.19 142.68"/><polygon class="cls-3" points="551.01 116.66 549.49 120.39 551.01 119.5 552.54 120.39 551.01 116.66"/><polygon class="cls-3" points="576.84 142.68 573.11 144.2 574 142.68 573.11 141.15 576.84 142.68"/><polyline class="cls-2" points="583.57 119.3 583.57 142.68 606.75 142.68"/><polygon class="cls-3" points="583.57 116.66 582.05 120.39 583.57 119.5 585.09 120.39 583.57 116.66"/><polygon class="cls-3" points="609.4 142.68 605.66 144.2 606.55 142.68 605.66 141.15 609.4 142.68"/><polyline class="cls-2" points="616.13 119.3 616.13 142.68 639.3 142.68"/><polygon class="cls-3" points="616.13 116.66 614.6 120.39 616.13 119.5 617.65 120.39 616.13 116.66"/><polygon class="cls-3" points="641.95 142.68 638.22 144.2 639.11 142.68 638.22 141.15 641.95 142.68"/><polyline class="cls-2" points="648.68 119.3 648.68 142.68 671.86 142.68"/><polygon class="cls-3" points="648.68 116.66 647.16 120.39 648.68 119.5 650.21 120.39 648.68 116.66"/><polygon class="cls-3" points="674.51 142.68 670.78 144.2 671.66 142.68 670.78 141.15 674.51 142.68"/><polyline class="cls-2" points="681.24 119.3 681.24 142.68 704.41 142.68"/><polygon class="cls-3" points="681.24 116.66 679.71 120.39 681.24 119.5 682.76 120.39 681.24 116.66"/><polygon class="cls-3" points="707.06 142.68 703.33 144.2 704.22 142.68 703.33 141.15 707.06 142.68"/><polyline class="cls-2" points="713.79 119.3 713.79 142.68 736.97 142.68"/><polygon class="cls-3" points="713.79 116.66 712.27 120.39 713.79 119.5 715.32 120.39 713.79 116.66"/><polygon class="cls-3" points="739.62 142.68 735.89 144.2 736.77 142.68 735.89 141.15 739.62 142.68"/><polyline class="cls-2" points="746.35 119.3 746.35 142.68 769.53 142.68"/><polygon class="cls-3" points="746.35 116.66 744.82 120.39 746.35 119.5 747.87 120.39 746.35 116.66"/><polygon class="cls-3" points="772.17 142.68 768.44 144.2 769.33 142.68 768.44 141.15 772.17 142.68"/><polyline class="cls-2" points="453.35 152.3 453.35 175.68 476.53 175.68"/><polygon class="cls-3" points="453.35 149.66 451.82 153.39 453.35 152.5 454.87 153.39 453.35 149.66"/><polygon class="cls-3" points="479.17 175.68 475.44 177.2 476.33 175.68 475.44 174.15 479.17 175.68"/><polyline class="cls-2" points="485.9 152.3 485.9 175.68 509.08 175.68"/><polygon class="cls-3" points="485.9 149.66 484.38 153.39 485.9 152.5 487.43 153.39 485.9 149.66"/><polygon class="cls-3" points="511.73 175.68 508 177.2 508.88 175.68 508 174.15 511.73 175.68"/><polyline class="cls-2" points="518.46 152.3 518.46 175.68 541.64 175.68"/><polygon class="cls-3" points="518.46 149.66 516.93 153.39 518.46 152.5 519.98 153.39 518.46 149.66"/><polygon class="cls-3" points="544.28 175.68 540.55 177.2 541.44 175.68 540.55 174.15 544.28 175.68"/><polyline class="cls-2" points="551.01 152.3 551.01 175.68 574.19 175.68"/><polygon class="cls-3" points="551.01 149.66 549.49 153.39 551.01 152.5 552.54 153.39 551.01 149.66"/><polygon class="cls-3" points="576.84 175.68 573.11 177.2 574 175.68 573.11 174.15 576.84 175.68"/><polyline class="cls-2" points="583.57 152.3 583.57 175.68 606.75 175.68"/><polygon class="cls-3" points="583.57 149.66 582.05 153.39 583.57 152.5 585.09 153.39 583.57 149.66"/><polygon class="cls-3" points="609.4 175.68 605.66 177.2 606.55 175.68 605.66 174.15 609.4 175.68"/><polyline class="cls-2" points="616.13 152.3 616.13 175.68 639.3 175.68"/><polygon class="cls-3" points="616.13 149.66 614.6 153.39 616.13 152.5 617.65 153.39 616.13 149.66"/><polygon class="cls-3" points="641.95 175.68 638.22 177.2 639.11 175.68 638.22 174.15 641.95 175.68"/><polyline class="cls-2" points="648.68 152.3 648.68 175.68 671.86 175.68"/><polygon class="cls-3" points="648.68 149.66 647.16 153.39 648.68 152.5 650.21 153.39 648.68 149.66"/><polygon class="cls-3" points="674.51 175.68 670.78 177.2 671.66 175.68 670.78 174.15 674.51 175.68"/><polyline class="cls-2" points="681.24 152.3 681.24 175.68 704.41 175.68"/><polygon class="cls-3" points="681.24 149.66 679.71 153.39 681.24 152.5 682.76 153.39 681.24 149.66"/><polygon class="cls-3" points="707.06 175.68 703.33 177.2 704.22 175.68 703.33 174.15 707.06 175.68"/><polyline class="cls-2" points="713.79 152.3 713.79 175.68 736.97 175.68"/><polygon class="cls-3" points="713.79 149.66 712.27 153.39 713.79 152.5 715.32 153.39 713.79 149.66"/><polygon class="cls-3" points="739.62 175.68 735.89 177.2 736.77 175.68 735.89 174.15 739.62 175.68"/><polyline class="cls-2" points="746.35 152.3 746.35 175.68 769.53 175.68"/><polygon class="cls-3" points="746.35 149.66 744.82 153.39 746.35 152.5 747.87 153.39 746.35 149.66"/><polygon class="cls-3" points="772.17 175.68 768.44 177.2 769.33 175.68 768.44 174.15 772.17 175.68"/><polyline class="cls-2" points="453.35 185.3 453.35 208.68 476.53 208.68"/><polygon class="cls-3" points="453.35 182.66 451.82 186.39 453.35 185.5 454.87 186.39 453.35 182.66"/><polygon class="cls-3" points="479.17 208.68 475.44 210.2 476.33 208.68 475.44 207.15 479.17 208.68"/><polyline class="cls-2" points="485.9 185.3 485.9 208.68 509.08 208.68"/><polygon class="cls-3" points="485.9 182.66 484.38 186.39 485.9 185.5 487.43 186.39 485.9 182.66"/><polygon class="cls-3" points="511.73 208.68 508 210.2 508.88 208.68 508 207.15 511.73 208.68"/><polyline class="cls-2" points="518.46 185.3 518.46 208.68 541.64 208.68"/><polygon class="cls-3" points="518.46 182.66 516.93 186.39 518.46 185.5 519.98 186.39 518.46 182.66"/><polygon class="cls-3" points="544.28 208.68 540.55 210.2 541.44 208.68 540.55 207.15 544.28 208.68"/><polyline class="cls-2" points="551.01 185.3 551.01 208.68 574.19 208.68"/><polygon class="cls-3" points="551.01 182.66 549.49 186.39 551.01 185.5 552.54 186.39 551.01 182.66"/><polygon class="cls-3" points="576.84 208.68 573.11 210.2 574 208.68 573.11 207.15 576.84 208.68"/><polyline class="cls-2" points="583.57 185.3 583.57 208.68 606.75 208.68"/><polygon class="cls-3" points="583.57 182.66 582.05 186.39 583.57 185.5 585.09 186.39 583.57 182.66"/><polygon class="cls-3" points="609.4 208.68 605.66 210.2 606.55 208.68 605.66 207.15 609.4 208.68"/><polyline class="cls-2" points="616.13 185.3 616.13 208.68 639.3 208.68"/><polygon class="cls-3" points="616.13 182.66 614.6 186.39 616.13 185.5 617.65 186.39 616.13 182.66"/><polygon class="cls-3" points="641.95 208.68 638.22 210.2 639.11 208.68 638.22 207.15 641.95 208.68"/><polyline class="cls-2" points="648.68 185.3 648.68 208.68 671.86 208.68"/><polygon class="cls-3" points="648.68 182.66 647.16 186.39 648.68 185.5 650.21 186.39 648.68 182.66"/><polygon class="cls-3" points="674.51 208.68 670.78 210.2 671.66 208.68 670.78 207.15 674.51 208.68"/><polyline class="cls-2" points="681.24 185.3 681.24 208.68 704.41 208.68"/><polygon class="cls-3" points="681.24 182.66 679.71 186.39 681.24 185.5 682.76 186.39 681.24 182.66"/><polygon class="cls-3" points="707.06 208.68 703.33 210.2 704.22 208.68 703.33 207.15 707.06 208.68"/><polyline class="cls-2" points="713.79 185.3 713.79 208.68 736.97 208.68"/><polygon class="cls-3" points="713.79 182.66 712.27 186.39 713.79 185.5 715.32 186.39 713.79 182.66"/><polygon class="cls-3" points="739.62 208.68 735.89 210.2 736.77 208.68 735.89 207.15 739.62 208.68"/><polyline class="cls-2" points="746.35 185.3 746.35 208.68 769.53 208.68"/><polygon class="cls-3" points="746.35 182.66 744.82 186.39 746.35 185.5 747.87 186.39 746.35 182.66"/><polygon class="cls-3" points="772.17 208.68 768.44 210.2 769.33 208.68 768.44 207.15 772.17 208.68"/><polyline class="cls-2" points="453.35 218.3 453.35 241.68 476.53 241.68"/><polygon class="cls-3" points="453.35 215.66 451.82 219.39 453.35 218.5 454.87 219.39 453.35 215.66"/><polygon class="cls-3" points="479.17 241.68 475.44 243.2 476.33 241.68 475.44 240.15 479.17 241.68"/><polyline class="cls-2" points="485.9 218.3 485.9 241.68 509.08 241.68"/><polygon class="cls-3" points="485.9 215.66 484.38 219.39 485.9 218.5 487.43 219.39 485.9 215.66"/><polygon class="cls-3" points="511.73 241.68 508 243.2 508.88 241.68 508 240.15 511.73 241.68"/><polyline class="cls-2" points="518.46 218.3 518.46 241.68 541.64 241.68"/><polygon class="cls-3" points="518.46 215.66 516.93 219.39 518.46 218.5 519.98 219.39 518.46 215.66"/><polygon class="cls-3" points="544.28 241.68 540.55 243.2 541.44 241.68 540.55 240.15 544.28 241.68"/><polyline class="cls-2" points="551.01 218.3 551.01 241.68 574.19 241.68"/><polygon class="cls-3" points="551.01 215.66 549.49 219.39 551.01 218.5 552.54 219.39 551.01 215.66"/><polygon class="cls-3" points="576.84 241.68 573.11 243.2 574 241.68 573.11 240.15 576.84 241.68"/><polyline class="cls-2" points="583.57 218.3 583.57 241.68 606.75 241.68"/><polygon class="cls-3" points="583.57 215.66 582.05 219.39 583.57 218.5 585.09 219.39 583.57 215.66"/><polygon class="cls-3" points="609.4 241.68 605.66 243.2 606.55 241.68 605.66 240.15 609.4 241.68"/><polyline class="cls-2" points="616.13 218.3 616.13 241.68 639.3 241.68"/><polygon class="cls-3" points="616.13 215.66 614.6 219.39 616.13 218.5 617.65 219.39 616.13 215.66"/><polygon class="cls-3" points="641.95 241.68 638.22 243.2 639.11 241.68 638.22 240.15 641.95 241.68"/><polyline class="cls-2" points="648.68 218.3 648.68 241.68 671.86 241.68"/><polygon class="cls-3" points="648.68 215.66 647.16 219.39 648.68 218.5 650.21 219.39 648.68 215.66"/><polygon class="cls-3" points="674.51 241.68 670.78 243.2 671.66 241.68 670.78 240.15 674.51 241.68"/><polyline class="cls-2" points="681.24 218.3 681.24 241.68 704.41 241.68"/><polygon class="cls-3" points="681.24 215.66 679.71 219.39 681.24 218.5 682.76 219.39 681.24 215.66"/><polygon class="cls-3" points="707.06 241.68 703.33 243.2 704.22 241.68 703.33 240.15 707.06 241.68"/><polyline class="cls-2" points="713.79 218.3 713.79 241.68 736.97 241.68"/><polygon class="cls-3" points="713.79 215.66 712.27 219.39 713.79 218.5 715.32 219.39 713.79 215.66"/><polygon class="cls-3" points="739.62 241.68 735.89 243.2 736.77 241.68 735.89 240.15 739.62 241.68"/><polyline class="cls-2" points="746.35 218.3 746.35 241.68 769.53 241.68"/><polygon class="cls-3" points="746.35 215.66 744.82 219.39 746.35 218.5 747.87 219.39 746.35 215.66"/><polygon class="cls-3" points="772.17 241.68 768.44 243.2 769.33 241.68 768.44 240.15 772.17 241.68"/><circle class="cls-4" cx="61.6" cy="129.67" r="7.62"/><circle class="cls-4" cx="187.37" cy="156.78" r="7.44"/><circle class="cls-4" cx="119.31" cy="167.04" r="9.35"/><circle class="cls-4" cx="129.39" cy="130.13" r="8.08"/><circle class="cls-4" cx="160.24" cy="66.78" r="7.55"/><circle class="cls-4" cx="198.78" cy="124.2" r="7.55"/><circle class="cls-4" cx="194.81" cy="191.97" r="5.65"/><circle class="cls-4" cx="200.46" cy="171.92" r="3.77"/><circle class="cls-4" cx="227.49" cy="153.91" r="3.77"/><circle class="cls-4" cx="220.92" cy="192.87" r="4.75"/><circle class="cls-4" cx="161.64" cy="194.27" r="6.15"/><circle class="cls-4" cx="121.31" cy="203.55" r="4.64"/><circle class="cls-4" cx="99.95" cy="223.14" r="7.49"/><circle class="cls-4" cx="127.83" cy="98.3" r="8.03"/><circle class="cls-4" cx="133.23" cy="66.78" r="7.28"/><circle class="cls-4" cx="202.3" cy="94.75" r="7.99"/><circle class="cls-4" cx="239.48" cy="94.75" r="6.15"/><circle class="cls-4" cx="271.96" cy="63.67" r="6.15"/><circle class="cls-4" cx="257.36" cy="133.2" r="7.6"/><circle class="cls-4" cx="266.45" cy="193.46" r="7.64"/><circle class="cls-4" cx="245.02" cy="232.1" r="9.58"/><circle class="cls-4" cx="309.65" cy="134.82" r="9.21"/><circle class="cls-4" cx="300.44" cy="205.06" r="6.15"/><circle class="cls-4" cx="334.17" cy="232.1" r="6.15"/><circle class="cls-4" cx="97.14" cy="66.44" r="4.68"/><circle class="cls-4" cx="63.84" cy="92.51" r="8.39"/><circle class="cls-4" cx="73.78" cy="164.22" r="7.7"/><circle class="cls-4" cx="65.14" cy="223.88" r="8.22"/><circle class="cls-4" cx="27.39" cy="164.22" r="6.15"/><circle class="cls-4" cx="29.54" cy="193.51" r="4"/><circle class="cls-4" cx="27.46" cy="222.87" r="3.07"/><text class="cls-5" transform="translate(102.1 284.12)">Eule<tspan class="cls-6" x="38.3" y="0">r</tspan><tspan x="45.32" y="0">-Lag</tspan><tspan class="cls-7" x="82.2" y="0">r</tspan><tspan x="89.42" y="0">angian</tspan></text><text class="cls-5" transform="translate(563.12 284.12)">Eule<tspan class="cls-6" x="38.3" y="0">r</tspan><tspan x="45.32" y="0">-Euler</tspan></text><path class="cls-2" d="M466.35,267.91c1,.08,1.15-.87,1.66-1.63a13.61,13.61,0,0,0,1.13-3.79,40.49,40.49,0,0,0,1.05-6.56c.3-2.87.72-7.65,2-8.14,1.45-.54,1.94,7.36,2.05,8.91a16.4,16.4,0,0,0,2.74,9.24c1.2,1.77,4.77,1.46,6.85,2" transform="translate(-13 -26.24)"/><path class="cls-2" d="M498.9,267.91c1,.08,4-1.72,6.26-2.57s2.55-1.8,3.94-6.17c.88-2.76,2.24-11.26,3.62-11.28s2.07,8.45,2.18,10c.12,1.77.46,6.8,1.47,8.52.74,1.25,2.34,1,4.41,1.5" transform="translate(-13 -26.24)"/><path class="cls-2" d="M531.46,267.85c1,.08,4.24-1.25,6.26-2.57,1.76-1.16,2.2-1.81,3.59-6.19.88-2.75,1.46-11.24,2.84-11.26s2.15,11.19,2.46,12.71c.36,1.76,1.58,4.91,3.26,6a8.27,8.27,0,0,0,3.47,1.34" transform="translate(-13 -26.24)"/><path class="cls-2" d="M466.35,234.91c1,.08,1.36-.77,1.66-1.63.54-1.51,2.5-6.92,2.82-10,.3-2.87,1.16-8.51,2.54-8.54s2.05,7.26,2.15,8.81c.12,1.76,1.05,7.23,2.81,9.13,1.45,1.56,3.43,1.7,5.51,2.21" transform="translate(-13 -26.24)"/><path class="cls-2" d="M466.35,201.91c1,.08,4.24-1.25,6.26-2.57,1.76-1.16,2.19-1.81,3.59-6.19.88-2.75,1.46-11.24,2.84-11.26s2.15,11.19,2.46,12.71c.36,1.76,1.58,4.91,3.26,6a8.27,8.27,0,0,0,3.47,1.34" transform="translate(-13 -26.24)"/><path class="cls-2" d="M498.9,201.91c1,.08,4-1.72,6.26-2.57s2.55-1.8,3.94-6.17c.88-2.76,2.24-11.26,3.62-11.28s2.07,8.45,2.18,10c.12,1.77.46,6.8,1.47,8.52.74,1.25,2.34,1,4.41,1.5" transform="translate(-13 -26.24)"/><path class="cls-2" d="M498.9,168.91c1,.08,4-1.72,6.26-2.57s2.55-1.8,3.94-6.17c.88-2.76,2.24-11.26,3.62-11.28s2.07,8.45,2.18,10c.12,1.77.46,6.8,1.47,8.52.74,1.25,2.34,1,4.41,1.5" transform="translate(-13 -26.24)"/><path class="cls-2" d="M498.9,135.91c1,.08,5.28-1.13,7.53-2s2.71-2.87,3.66-7.37c.65-3.1,1.59-11.94,3-12s2.05,9.76,2.16,11.31c.12,1.77.15,6.79,1.16,8.51.74,1.25,2.34,1,4.41,1.5" transform="translate(-13 -26.24)"/><path class="cls-2" d="M531.46,102.91c1,.08,1.36-.77,1.66-1.63.54-1.52,2.5-6.92,2.82-10,.3-2.87,1.16-8.51,2.54-8.54s2,7.25,2.15,8.8c.12,1.77,1,7.24,2.81,9.13,1.45,1.57,3.43,1.71,5.51,2.22" transform="translate(-13 -26.24)"/><path class="cls-2" d="M564,102.91c1,.08,5.28-1.13,7.54-2s2.7-2.87,3.65-7.37c.65-3.1,1.59-11.94,3-12s2,9.76,2.15,11.31c.12,1.77.15,6.79,1.17,8.51.74,1.25,2.33,1,4.4,1.5" transform="translate(-13 -26.24)"/><path class="cls-2" d="M564,135.91c1,.08,5.28-1.13,7.54-2s2.7-2.87,3.65-7.37c.65-3.1,1.73-9.89,3.1-9.91s2.25,7.84,2.58,9.36c.42,1.92,1.16,6.4,1.4,8.15.2,1.44,1.54,1.25,3.61,1.76" transform="translate(-13 -26.24)"/><path class="cls-2" d="M563.94,168.91c1,.08,5.27-1.13,7.53-2s2.7-2.87,3.65-7.37c.65-3.1,1.73-9.89,3.11-9.91s2.24,7.84,2.57,9.36c.43,1.92,1.16,6.4,1.4,8.15.21,1.44,1.54,1.25,3.62,1.76" transform="translate(-13 -26.24)"/><path class="cls-2" d="M564,234.91c1,.08,1.37-.77,1.67-1.63.53-1.51,2.49-6.92,2.81-10,.3-2.87,1.17-8.51,2.55-8.54s2,7.26,2.15,8.81c.12,1.76,1,7.23,2.8,9.13,1.46,1.56,3.44,1.7,5.51,2.21" transform="translate(-13 -26.24)"/><path class="cls-2" d="M661.68,267.91a20.35,20.35,0,0,0,6.8-.89c2.16-.82,3.11-2,4.5-6.41.88-2.76,2.88-12.7,4.26-12.72s1.36,8.46,1.47,10c.12,1.77.3,6.82,1.32,8.53.74,1.25,1.46,1,3.53,1.48" transform="translate(-13 -26.24)"/><path class="cls-2" d="M759.35,267.85c1,.08,4.24-1.25,6.26-2.57,1.76-1.16,2.19-1.81,3.59-6.19.88-2.75,1.46-11.24,2.84-11.26s2.15,11.19,2.46,12.71c.36,1.76,1.58,4.91,3.26,6a8.27,8.27,0,0,0,3.47,1.34" transform="translate(-13 -26.24)"/><path class="cls-2" d="M726.79,234.85c1,.07,4.24-1.25,6.26-2.58,1.76-1.15,2.2-1.8,3.59-6.18.88-2.76,1.46-11.24,2.84-11.26s2.15,11.19,2.46,12.71c.36,1.76,1.58,4.91,3.26,6a8.32,8.32,0,0,0,3.47,1.34" transform="translate(-13 -26.24)"/><path class="cls-2" d="M694.24,234.78c1,.07,5.27-1.13,7.53-2s2.7-2.87,3.65-7.37c.65-3.1,1.73-9.89,3.11-9.91s2.24,7.84,2.57,9.36c.43,1.92,1.16,6.4,1.4,8.15.21,1.44,1.54,1.25,3.62,1.76" transform="translate(-13 -26.24)"/><path class="cls-2" d="M759.35,169.07c1,.08,5.27-1.13,7.53-2s3.36-2.28,4.3-6.78c.66-3.1,2.31-12.1,3.69-12.13s1.75,9.37,2,10.93c.25,2,.54,6.46.79,8.21.2,1.44,1.53,1.25,3.61,1.76" transform="translate(-13 -26.24)"/><path class="cls-2" d="M727.35,168.91c1,.08,5.27-1.13,7.53-2s3.36-2.28,4.3-6.77c.66-3.11,2.31-12.11,3.69-12.14s1.75,9.37,2,10.93c.25,1.95.54,6.46.79,8.21.2,1.44,1.53,1.25,3.61,1.76" transform="translate(-13 -26.24)"/><path class="cls-2" d="M694.24,169.07c1,.08,5.27-1.13,7.53-2s2.7-2.87,3.65-7.37c.65-3.1,1.73-9.89,3.11-9.91s2.24,7.84,2.57,9.36c.43,1.92,1.16,6.4,1.4,8.15.21,1.44,1.54,1.25,3.62,1.76" transform="translate(-13 -26.24)"/><path class="cls-2" d="M661.68,202c1,.08,1.15-.87,1.67-1.63a13.92,13.92,0,0,0,1.12-3.79,41.61,41.61,0,0,0,1.06-6.56c.3-2.87.71-7.65,2-8.14,1.45-.54,2,7.36,2.05,8.91a16.4,16.4,0,0,0,2.74,9.24c1.2,1.77,4.77,1.46,6.85,2" transform="translate(-13 -26.24)"/><path class="cls-2" d="M629.28,201.86a8.65,8.65,0,0,0,2.34-4.41c1.11-3.95,2.18-12.13,3.22-13.28,2-2.24,1.18,10.73,3.53,10.7.58,0,2.92-5.85,4.12-5.75,1,.08,1.28,4.73,1.59,5.65.64,2,.24,3.42,1.33,5.19s2.68,1.9,4.6,1.9" transform="translate(-13 -26.24)"/><path class="cls-2" d="M629.09,169.07c1,.08,5.27-1.13,7.53-2s2.7-2.87,3.65-7.37c.65-3.1,1.73-9.89,3.11-9.91s2.24,7.84,2.57,9.36c.43,1.92,1.16,6.4,1.4,8.15.21,1.44,1.54,1.25,3.62,1.76" transform="translate(-13 -26.24)"/><path class="cls-2" d="M628.71,135.91c1,.08,5.27-1.13,7.53-2s2.7-2.87,3.65-7.37c.65-3.1,1.73-9.89,3.11-9.91s2.24,7.84,2.57,9.36c.43,1.92,1.16,6.4,1.4,8.15.21,1.44,1.54,1.25,3.62,1.76" transform="translate(-13 -26.24)"/><path class="cls-2" d="M694.24,103.09c1,.08,1.36-.77,1.66-1.63.54-1.52,2.5-6.92,2.81-10,.3-2.87,1.17-8.51,2.55-8.54s2,7.25,2.15,8.8c.12,1.77,1,7.24,2.8,9.13,1.46,1.57,3.44,1.71,5.51,2.22" transform="translate(-13 -26.24)"/><path class="cls-2" d="M727.08,103.09c1,.08,1.36-.77,1.67-1.63.53-1.52,2.49-6.92,2.81-10,.3-2.87,1.17-8.51,2.54-8.54s2,7.25,2.16,8.8c.12,1.77,1,7.24,2.8,9.13,1.46,1.57,3.43,1.71,5.51,2.22" transform="translate(-13 -26.24)"/><path class="cls-2" d="M694.24,135.91c1,.08,5.27-1.13,7.53-2s1.47-2.12,2.42-6.62c.65-3.1,1.39-11.68,2.77-11.7s2.44,9.85,2.57,11.51a19.35,19.35,0,0,0,3,7c.9,1.14,1.54,1.25,3.62,1.76" transform="translate(-13 -26.24)"/><path class="cls-2" d="M596.57,102.91c1,.08,5.27-1.13,7.53-2s2.71-2.87,3.65-7.37c.66-3.1,1.59-11.94,3-12s2,9.76,2.15,11.31c.12,1.77.16,6.79,1.17,8.51.74,1.25,2.33,1,4.41,1.5" transform="translate(-13 -26.24)"/><path class="cls-2" d="M532,201.86a6.15,6.15,0,0,0,4.54-3.76c1.1-3.95,1.53-12.78,2.57-13.93,2-2.24,1.34,11,3.69,10.93.58,0,2.8-7.47,4-7.37,1,.08,1.24,6,1.27,7,.06,2.51,0,3.57,1.14,5.34s1.59,1.81,3.51,1.81" transform="translate(-13 -26.24)"/><path class="cls-2" d="M564,201.91c1,.08,4-1.72,6.26-2.57s2.55-1.8,3.94-6.17c.88-2.76,2.24-11.26,3.62-11.28s2.07,8.45,2.18,10c.12,1.77.46,6.8,1.48,8.52.74,1.25,2.33,1,4.4,1.5" transform="translate(-13 -26.24)"/><path class="cls-2" d="M596.86,235.3c1,.07,5.27-1.13,7.53-2s1.47-2.12,2.42-6.62c.65-3.1,1.39-11.68,2.77-11.7s2.45,9.84,2.58,11.51a19.09,19.09,0,0,0,3,7c.9,1.14,1.53,1.25,3.61,1.76" transform="translate(-13 -26.24)"/><path class="cls-2" d="M629.09,235c1,.08,5.27-1.13,7.53-2s1.47-2.13,2.42-6.62c.65-3.1,1.39-11.68,2.77-11.71s2.44,9.85,2.57,11.51a19.4,19.4,0,0,0,3,7.05c.9,1.14,1.54,1.25,3.62,1.76" transform="translate(-13 -26.24)"/><path class="cls-2" d="M661.66,235.3c1,.07,5.28-1.13,7.53-2s1.48-2.12,2.42-6.62c.65-3.1,1.4-11.68,2.77-11.7s2.45,9.84,2.58,11.51a19.09,19.09,0,0,0,3,7c.9,1.14,1.54,1.25,3.61,1.76" transform="translate(-13 -26.24)"/><path class="cls-2" d="M662.05,135.91a5.48,5.48,0,0,0,3.71-3.58c1.11-4,2.06-13.23,3.1-14.37,2-2.25,1.76,11.07,4.11,11,.58,0,1.37-3.65,2.57-3.55,1,.08,1.55,6.79,2.64,8.56s2.67,1.9,4.6,1.9" transform="translate(-13 -26.24)"/><path class="cls-2" d="M694.24,267.84A20.41,20.41,0,0,0,701,267c2.15-.82,3.11-2,4.5-6.41.88-2.75,2.88-12.69,4.25-12.72s1.37,8.46,1.47,10c.12,1.77.31,6.82,1.32,8.53.74,1.25,1.46,1,3.54,1.49" transform="translate(-13 -26.24)"/><text class="cls-8" transform="translate(695.43 10.04)"><tspan class="cls-9">C</tspan><tspan x="6.83" y="0">omput</tspan><tspan class="cls-10" x="40.84" y="0">a</tspan><tspan x="46.57" y="0">tional </tspan><tspan class="cls-11" x="77.76" y="0">c</tspan><tspan x="83.06" y="0">ells</tspan></text><path class="cls-2" d="M765.67,39.91c-11,4.31-12.84,9-17.51,16.54-1.59,2.56-4.94,5.88-14.77,10.46-1.95.91-3.48,2.33-5.2,3.27" transform="translate(-13 -26.24)"/><polygon class="cls-3" points="711.8 44.92 715.93 41.48 715.42 43.77 717.16 45.35 711.8 44.92"/></svg>