<?xml version="1.0" encoding="utf-8"?>
<!-- Generator: Adobe Illustrator 26.0.3, SVG Export Plug-In . SVG Version: 6.00 Build 0)  -->
<svg version="1.1" id="Layer_1" xmlns="http://www.w3.org/2000/svg" xmlns:xlink="http://www.w3.org/1999/xlink" x="0px" y="0px"
	 viewBox="0 0 145.8 29.1" style="enable-background:new 0 0 145.8 29.1;" xml:space="preserve">
<style type="text/css">
	.st0{fill:#EFF0F3;stroke:#B5B2B1;stroke-miterlimit:10;}
	.st1{fill-rule:evenodd;clip-rule:evenodd;}
	.st2{font-family:'Calibri';}
	.st3{font-size:12px;}
</style>
<g shape-rendering="crispEdges">
	<path class="st0" d="M3.2,0.6h139.4c1.4,0,2.6,1.1,2.6,2.4v23.1c0,1.3-1.1,2.4-2.6,2.4H3.2c-1.4,0-2.6-1.1-2.6-2.4V3
		C0.7,1.6,1.8,0.6,3.2,0.6z"/>
</g>
<path class="st1" d="M17.9,5.5c-5.1,0-9.3,4.2-9.3,9.3c0,4.1,2.7,7.6,6.4,8.8c0.5,0.1,0.6-0.2,0.6-0.4c0-0.2,0-0.8,0-1.6
	c-2.6,0.6-3.1-1.2-3.1-1.2c-0.4-1.1-1-1.4-1-1.4c-0.9-0.6,0-0.6,0-0.6c0.9,0.1,1.4,1,1.4,1c0.8,1.4,2.2,1,2.7,0.8
	c0.1-0.6,0.3-1,0.6-1.2c-2.1-0.2-4.2-1-4.2-4.6c0-1,0.4-1.8,1-2.5c-0.1-0.2-0.4-1.2,0.1-2.5c0,0,0.8-0.3,2.6,1
	c0.7-0.2,1.5-0.3,2.3-0.3s1.6,0.1,2.3,0.3c1.8-1.2,2.6-1,2.6-1c0.5,1.3,0.2,2.2,0.1,2.5c0.6,0.7,1,1.5,1,2.5c0,3.6-2.2,4.4-4.3,4.6
	c0.3,0.3,0.6,0.9,0.6,1.7c0,1.2,0,2.3,0,2.6c0,0.2,0.2,0.5,0.6,0.4c3.7-1.2,6.4-4.7,6.4-8.8C27.2,9.6,23.1,5.5,17.9,5.5z"/>
<text transform="matrix(1 0 0 1 30.9783 18.0929)" class="st2 st3">Follow @kasperbilde</text>
</svg>
