<?xml version="1.0" encoding="utf-8"?>
<!-- Generator: Adobe Illustrator 26.0.3, SVG Export Plug-In . SVG Version: 6.00 Build 0)  -->
<svg version="1.1" id="Layer_1" xmlns="http://www.w3.org/2000/svg" xmlns:xlink="http://www.w3.org/1999/xlink" x="0px" y="0px"
	 viewBox="0 0 123 29.1" style="enable-background:new 0 0 123 29.1;" xml:space="preserve">
<style type="text/css">
	.st0{fill:#0A66C2;}
	.st1{fill:none;stroke:#B5B2B1;stroke-miterlimit:10;}
	.st2{enable-background:new    ;}
</style>
<path class="st0" d="M24.4,24.4h-4.1v-6.5c0-1.5,0-3.5-2.1-3.5c-2.2,0-2.5,1.7-2.5,3.4v6.6h-4.1V11.1h4v1.8h0.1
	c0.8-1.4,2.3-2.2,3.9-2.1c4.2,0,5,2.8,5,6.3L24.4,24.4z M6.8,9.3c-1.3,0-2.4-1.1-2.4-2.4c0-1.3,1.1-2.4,2.4-2.4s2.4,1.1,2.4,2.4
	c0,0,0,0,0,0C9.2,8.2,8.1,9.3,6.8,9.3L6.8,9.3 M8.9,24.4H4.8V11.1h4.1L8.9,24.4z M26.4,0.6H2.7c-1.1,0-2,0.9-2.1,2c0,0,0,0,0,0v23.9
	c0,1.1,0.9,2,2.1,2l25.9,0c0-0.9-0.1-27-0.1-27.9"/>
<g shape-rendering="crispEdges">
	<path class="st1" d="M0.6,26.5V2.6c0-1.1,0.9-2,2-2l26.5,0H120c1.2,0,2.2,1.1,2.2,2.4v23.1c0,1.3-0.9,2.4-2.2,2.4H29.2H2.6
		C1.5,28.5,0.6,27.6,0.6,26.5z"/>
</g>
<g>
	<g class="st2">
		<path d="M42.5,9.3h2.1v10h4.9v1.8h-7V9.3z"/>
		<path d="M51.1,9.5c0-0.7,0.5-1.2,1.3-1.2c0.7,0,1.3,0.5,1.3,1.2c0,0.7-0.5,1.2-1.3,1.2C51.7,10.7,51.1,10.2,51.1,9.5z M51.4,12.2
			h2.1v8.8h-2.1V12.2z"/>
		<path d="M56.1,12.2h1.7l0.2,1.2H58c0.8-0.8,1.7-1.4,2.9-1.4c1.9,0,2.7,1.3,2.7,3.5v5.5h-2.1v-5.3c0-1.5-0.4-2-1.4-2
			c-0.8,0-1.3,0.4-2,1.1v6.2h-2.1V12.2z"/>
		<path d="M66.2,8.4h2v7.9h0.1l3.3-4.1h2.3l-3,3.6l3.3,5.2h-2.3l-2.3-3.8l-1.4,1.6v2.2h-2V8.4z"/>
		<path d="M75,16.7c0-2.9,2-4.6,4.1-4.6c2.4,0,3.7,1.7,3.7,4.2c0,0.4,0,0.8-0.1,1H77c0.2,1.6,1.2,2.5,2.6,2.5c0.8,0,1.4-0.2,2.1-0.6
			l0.7,1.3c-0.8,0.6-1.9,1-3,1C76.9,21.3,75,19.6,75,16.7z M80.9,15.8c0-1.4-0.6-2.2-1.8-2.2c-1,0-1.9,0.8-2.1,2.2H80.9z"/>
		<path d="M84.2,16.7c0-2.9,1.8-4.6,3.7-4.6c1,0,1.6,0.4,2.3,1l-0.1-1.4V8.4h2.1v12.7h-1.7l-0.2-1h-0.1c-0.7,0.7-1.6,1.2-2.5,1.2
			C85.6,21.3,84.2,19.6,84.2,16.7z M90.1,18.6v-4.1c-0.6-0.5-1.2-0.7-1.8-0.7c-1.1,0-2.1,1.1-2.1,2.9c0,1.9,0.7,2.9,2,2.9
			C89,19.6,89.6,19.3,90.1,18.6z"/>
		<path d="M95,9.3h2.1v11.8H95V9.3z"/>
		<path d="M99.9,12.2h1.7l0.2,1.2h0.1c0.8-0.8,1.7-1.4,2.9-1.4c1.9,0,2.7,1.3,2.7,3.5v5.5h-2.1v-5.3c0-1.5-0.4-2-1.4-2
			c-0.8,0-1.3,0.4-2,1.1v6.2h-2.1V12.2z"/>
	</g>
</g>
</svg>
