<svg id="Layer_1" data-name="Layer 1" xmlns="http://www.w3.org/2000/svg" xmlns:xlink="http://www.w3.org/1999/xlink" viewBox="0 0 237.92 272.75"><defs><style>.cls-1,.cls-16,.cls-2,.cls-3,.cls-4,.cls-7,.cls-8,.cls-9{fill:none;}.cls-2{stroke:#b3b3b3;}.cls-16,.cls-2,.cls-3,.cls-4,.cls-7,.cls-8,.cls-9{stroke-miterlimit:10;}.cls-2,.cls-4,.cls-7{stroke-width:0.5px;}.cls-16,.cls-3,.cls-4,.cls-9{stroke:#000;}.cls-16,.cls-3{stroke-width:0.75px;}.cls-20,.cls-5{fill:#fff;}.cls-6{clip-path:url(#clip-path);}.cls-7,.cls-8{stroke:#ccc;}.cls-8{stroke-width:0.35px;}.cls-10{opacity:0.15;}.cls-11{clip-path:url(#clip-path-2);}.cls-12{clip-path:url(#clip-path-3);}.cls-13{clip-path:url(#clip-path-4);}.cls-14{opacity:0.5;}.cls-15{clip-path:url(#clip-path-5);}.cls-16{stroke-dasharray:3 3;}.cls-17{clip-path:url(#clip-path-6);}.cls-18{clip-path:url(#clip-path-7);}.cls-19,.cls-20,.cls-36{font-size:9px;font-family:Calibri;}.cls-21{letter-spacing:-0.01em;}.cls-22{letter-spacing:-0.02em;}.cls-23{letter-spacing:-0.02em;}.cls-24{letter-spacing:-0.01em;}.cls-25{letter-spacing:-0.02em;}.cls-26{letter-spacing:-0.03em;}.cls-27{letter-spacing:0em;}.cls-28{letter-spacing:0em;}.cls-29{letter-spacing:0em;}.cls-30{letter-spacing:0em;}.cls-31{letter-spacing:0em;}.cls-32{letter-spacing:-0.01em;}.cls-33{letter-spacing:-0.01em;}.cls-34{letter-spacing:-0.01em;}.cls-35{letter-spacing:-0.01em;}.cls-36{fill:#777676;}.cls-37{letter-spacing:-0.02em;}.cls-38{letter-spacing:-0.01em;}.cls-39{letter-spacing:-0.02em;}</style><clipPath id="clip-path" transform="translate(-3.5 -1.77)"><rect class="cls-1" x="100.22" y="96.62" width="71.26" height="71.26"/></clipPath><clipPath id="clip-path-2" transform="translate(-3.5 -1.77)"><rect class="cls-1" x="109.71" y="84.45" width="12.23" height="8.65"/></clipPath><clipPath id="clip-path-3" transform="translate(-3.5 -1.77)"><rect class="cls-1" x="149.72" y="84.45" width="12.23" height="8.65"/></clipPath><clipPath id="clip-path-4" transform="translate(-3.5 -1.77)"><rect class="cls-1" x="129.72" y="84.45" width="12.23" height="8.65"/></clipPath><clipPath id="clip-path-5" transform="translate(-3.5 -1.77)"><rect class="cls-1" x="63.01" y="112.26" width="95.87" height="71.24"/></clipPath><clipPath id="clip-path-6" transform="translate(-3.5 -1.77)"><rect class="cls-1" x="57.29" y="136.08" width="12.23" height="8.65"/></clipPath><clipPath id="clip-path-7" transform="translate(-3.5 -1.77)"><rect class="cls-1" x="57.29" y="158.09" width="12.23" height="8.65"/></clipPath></defs><line class="cls-2" x1="77.3" y1="169.66" x2="86.88" y2="169.66"/><line class="cls-2" x1="75.97" y1="108.77" x2="86.88" y2="108.77"/><line class="cls-2" x1="167.98" y1="64.25" x2="177.56" y2="64.25"/><line class="cls-2" x1="167.98" y1="183.61" x2="177.56" y2="183.61"/><line class="cls-2" x1="174.77" y1="143.94" x2="174.77" y2="183.61"/><line class="cls-2" x1="174.77" y1="64.49" x2="174.77" y2="108.52"/><polyline class="cls-3" points="120 32.55 120 38.09 96.72 48.55 96.72 193.61 119.51 199.37 119.51 203.98"/><line class="cls-3" x1="74.05" y1="110.52" x2="77.39" y2="171.36"/><line class="cls-3" x1="45.72" y1="110.52" x2="42.39" y2="171.36"/><line class="cls-3" x1="42.38" y1="171.36" x2="36.55" y2="171.36"/><line class="cls-3" x1="36.55" y1="171.36" x2="36.55" y2="191.36"/><line class="cls-3" x1="36.55" y1="191.36" x2="53.39" y2="195.36"/><line class="cls-4" x1="53.39" y1="195.36" x2="59.89" y2="195.36"/><line class="cls-3" x1="53.39" y1="195.36" x2="53.39" y2="197.02"/><line class="cls-3" x1="77.39" y1="171.36" x2="83.22" y2="171.36"/><line class="cls-3" x1="83.22" y1="171.36" x2="83.22" y2="191.36"/><line class="cls-3" x1="83.22" y1="191.36" x2="66.39" y2="195.36"/><line class="cls-4" x1="66.39" y1="195.36" x2="59.89" y2="195.36"/><line class="cls-3" x1="66.39" y1="195.36" x2="66.39" y2="197.02"/><rect class="cls-3" x="43.8" y="108.77" width="32.17" height="1.75"/><rect class="cls-3" x="51.72" y="197.02" width="16.33" height="1.75"/><line class="cls-4" x1="119.51" y1="199.37" x2="132.35" y2="199.37"/><line class="cls-4" x1="120" y1="38.09" x2="132.35" y2="38.09"/><line class="cls-4" x1="42.38" y1="171.36" x2="77.39" y2="171.36"/><line class="cls-3" x1="83.22" y1="171.36" x2="96.72" y2="171.36"/><line class="cls-3" x1="83.22" y1="191.36" x2="96.72" y2="191.36"/><polyline class="cls-3" points="144.7 32.55 144.7 38.09 167.98 48.55 167.98 193.61 145.19 199.37 145.19 203.98"/><polyline class="cls-4" points="167.98 193.61 132.35 193.61 96.72 193.61"/><line class="cls-4" x1="145.19" y1="199.37" x2="132.35" y2="199.37"/><polyline class="cls-4" points="167.98 48.55 132.35 48.55 96.72 48.55"/><line class="cls-4" x1="144.7" y1="38.09" x2="132.35" y2="38.09"/><rect class="cls-3" x="117.44" y="203.98" width="29.81" height="1.75"/><rect class="cls-3" x="118.79" y="30.8" width="27.13" height="1.75"/><rect class="cls-5" x="96.72" y="94.85" width="71.26" height="62.26"/><g class="cls-6"><line class="cls-7" x1="93.4" y1="166.11" x2="164.66" y2="94.85"/><line class="cls-7" x1="80.11" y1="166.11" x2="151.37" y2="94.85"/><line class="cls-7" x1="66.82" y1="166.11" x2="138.08" y2="94.85"/><line class="cls-7" x1="53.54" y1="166.11" x2="124.79" y2="94.85"/><line class="cls-7" x1="40.25" y1="166.11" x2="111.5" y2="94.85"/><line class="cls-7" x1="106.69" y1="166.11" x2="177.94" y2="94.85"/><line class="cls-7" x1="26.96" y1="166.11" x2="98.22" y2="94.85"/><line class="cls-7" x1="86.76" y1="166.11" x2="158.01" y2="94.85"/><line class="cls-7" x1="73.47" y1="166.11" x2="144.72" y2="94.85"/><line class="cls-7" x1="60.18" y1="166.11" x2="131.44" y2="94.85"/><line class="cls-7" x1="46.89" y1="166.11" x2="118.15" y2="94.85"/><line class="cls-7" x1="113.33" y1="166.11" x2="184.59" y2="94.85"/><line class="cls-7" x1="33.6" y1="166.11" x2="104.86" y2="94.85"/><line class="cls-7" x1="100.04" y1="166.11" x2="171.3" y2="94.85"/><line class="cls-7" x1="159.84" y1="166.11" x2="231.1" y2="94.85"/><line class="cls-7" x1="146.55" y1="166.11" x2="217.81" y2="94.85"/><line class="cls-7" x1="133.27" y1="166.11" x2="204.52" y2="94.85"/><line class="cls-7" x1="119.98" y1="166.11" x2="191.23" y2="94.85"/><line class="cls-7" x1="166.48" y1="166.11" x2="237.74" y2="94.85"/><line class="cls-7" x1="153.2" y1="166.11" x2="224.45" y2="94.85"/><line class="cls-7" x1="139.91" y1="166.11" x2="211.16" y2="94.85"/><line class="cls-7" x1="126.62" y1="166.11" x2="197.88" y2="94.85"/><line class="cls-7" x1="93.4" y1="94.85" x2="164.66" y2="166.11"/><line class="cls-7" x1="80.11" y1="94.85" x2="151.37" y2="166.11"/><line class="cls-7" x1="66.82" y1="94.85" x2="138.08" y2="166.11"/><line class="cls-7" x1="53.54" y1="94.85" x2="124.79" y2="166.11"/><line class="cls-7" x1="40.25" y1="94.85" x2="111.5" y2="166.11"/><line class="cls-7" x1="106.69" y1="94.85" x2="177.94" y2="166.11"/><line class="cls-7" x1="26.96" y1="94.85" x2="98.22" y2="166.11"/><line class="cls-7" x1="86.76" y1="94.85" x2="158.01" y2="166.11"/><line class="cls-7" x1="73.47" y1="94.85" x2="144.72" y2="166.11"/><line class="cls-7" x1="60.18" y1="94.85" x2="131.44" y2="166.11"/><line class="cls-7" x1="46.89" y1="94.85" x2="118.15" y2="166.11"/><line class="cls-7" x1="113.33" y1="94.85" x2="184.59" y2="166.11"/><line class="cls-7" x1="33.6" y1="94.85" x2="104.86" y2="166.11"/><line class="cls-7" x1="100.04" y1="94.85" x2="171.3" y2="166.11"/><line class="cls-7" x1="159.84" y1="94.85" x2="231.1" y2="166.11"/><line class="cls-7" x1="146.55" y1="94.85" x2="217.81" y2="166.11"/><line class="cls-7" x1="133.27" y1="94.85" x2="204.52" y2="166.11"/><line class="cls-7" x1="119.98" y1="94.85" x2="191.23" y2="166.11"/><line class="cls-7" x1="166.48" y1="94.85" x2="237.74" y2="166.11"/><line class="cls-7" x1="153.2" y1="94.85" x2="224.45" y2="166.11"/><line class="cls-7" x1="139.91" y1="94.85" x2="211.16" y2="166.11"/><line class="cls-7" x1="126.62" y1="94.85" x2="197.88" y2="166.11"/></g><rect class="cls-4" x="96.72" y="94.85" width="71.26" height="71.26"/><line class="cls-2" x1="84.09" y1="144.98" x2="84.09" y2="169.66"/><line class="cls-2" x1="84.09" y1="108.77" x2="84.09" y2="133.6"/><line class="cls-8" x1="155.47" y1="64.25" x2="166.79" y2="52.93"/><line class="cls-8" x1="152.96" y1="64.25" x2="164.29" y2="52.93"/><line class="cls-8" x1="150.46" y1="64.25" x2="161.78" y2="52.93"/><line class="cls-8" x1="147.96" y1="64.25" x2="159.28" y2="52.93"/><line class="cls-8" x1="145.46" y1="64.25" x2="156.78" y2="52.93"/><line class="cls-8" x1="142.95" y1="64.25" x2="154.28" y2="52.93"/><line class="cls-8" x1="140.45" y1="64.25" x2="151.78" y2="52.93"/><line class="cls-8" x1="137.95" y1="64.25" x2="149.27" y2="52.93"/><line class="cls-8" x1="135.45" y1="64.25" x2="146.77" y2="52.93"/><line class="cls-8" x1="132.94" y1="64.25" x2="144.27" y2="52.93"/><line class="cls-8" x1="130.44" y1="64.25" x2="141.77" y2="52.93"/><line class="cls-8" x1="127.94" y1="64.25" x2="139.26" y2="52.93"/><line class="cls-8" x1="125.44" y1="64.25" x2="136.76" y2="52.93"/><line class="cls-8" x1="122.94" y1="64.25" x2="134.26" y2="52.93"/><line class="cls-8" x1="120.43" y1="64.25" x2="131.76" y2="52.93"/><line class="cls-8" x1="117.93" y1="64.25" x2="129.25" y2="52.93"/><line class="cls-8" x1="115.43" y1="64.25" x2="126.75" y2="52.93"/><line class="cls-8" x1="112.93" y1="64.25" x2="124.25" y2="52.93"/><line class="cls-8" x1="110.42" y1="64.25" x2="121.75" y2="52.93"/><line class="cls-8" x1="107.92" y1="64.25" x2="119.24" y2="52.93"/><line class="cls-8" x1="105.42" y1="64.25" x2="116.74" y2="52.93"/><line class="cls-8" x1="102.92" y1="64.25" x2="114.24" y2="52.93"/><line class="cls-8" x1="100.41" y1="64.25" x2="111.74" y2="52.93"/><line class="cls-8" x1="97.91" y1="64.25" x2="109.23" y2="52.93"/><line class="cls-8" x1="155.47" y1="52.93" x2="166.79" y2="64.25"/><line class="cls-8" x1="152.96" y1="52.93" x2="164.29" y2="64.25"/><line class="cls-8" x1="150.46" y1="52.93" x2="161.78" y2="64.25"/><line class="cls-8" x1="147.96" y1="52.93" x2="159.28" y2="64.25"/><line class="cls-8" x1="145.46" y1="52.93" x2="156.78" y2="64.25"/><line class="cls-8" x1="142.95" y1="52.93" x2="154.28" y2="64.25"/><line class="cls-8" x1="140.45" y1="52.93" x2="151.78" y2="64.25"/><line class="cls-8" x1="137.95" y1="52.93" x2="149.27" y2="64.25"/><line class="cls-8" x1="135.45" y1="52.93" x2="146.77" y2="64.25"/><line class="cls-8" x1="132.94" y1="52.93" x2="144.27" y2="64.25"/><line class="cls-8" x1="130.44" y1="52.93" x2="141.77" y2="64.25"/><line class="cls-8" x1="127.94" y1="52.93" x2="139.26" y2="64.25"/><line class="cls-8" x1="125.44" y1="52.93" x2="136.76" y2="64.25"/><line class="cls-8" x1="122.94" y1="52.93" x2="134.26" y2="64.25"/><line class="cls-8" x1="120.43" y1="52.93" x2="131.76" y2="64.25"/><line class="cls-8" x1="117.93" y1="52.93" x2="129.25" y2="64.25"/><line class="cls-8" x1="115.43" y1="52.93" x2="126.75" y2="64.25"/><line class="cls-8" x1="112.93" y1="52.93" x2="124.25" y2="64.25"/><line class="cls-8" x1="110.42" y1="52.93" x2="121.75" y2="64.25"/><line class="cls-8" x1="107.92" y1="52.93" x2="119.24" y2="64.25"/><line class="cls-8" x1="105.42" y1="52.93" x2="116.74" y2="64.25"/><line class="cls-8" x1="102.92" y1="52.93" x2="114.24" y2="64.25"/><line class="cls-8" x1="100.41" y1="52.93" x2="111.74" y2="64.25"/><line class="cls-8" x1="97.91" y1="52.93" x2="109.23" y2="64.25"/><line class="cls-8" x1="165.48" y1="64.25" x2="167.98" y2="61.75"/><line class="cls-8" x1="162.97" y1="64.25" x2="167.98" y2="59.25"/><line class="cls-8" x1="160.47" y1="64.25" x2="167.98" y2="56.75"/><line class="cls-8" x1="157.97" y1="64.25" x2="167.98" y2="54.24"/><line class="cls-8" x1="96.72" y1="62.94" x2="106.73" y2="52.93"/><line class="cls-8" x1="96.72" y1="60.44" x2="104.23" y2="52.93"/><line class="cls-8" x1="96.72" y1="57.93" x2="101.73" y2="52.93"/><line class="cls-8" x1="96.72" y1="55.43" x2="99.22" y2="52.93"/><line class="cls-8" x1="165.48" y1="52.93" x2="167.98" y2="55.43"/><line class="cls-8" x1="162.97" y1="52.93" x2="167.98" y2="57.93"/><line class="cls-8" x1="160.47" y1="52.93" x2="167.98" y2="60.44"/><line class="cls-8" x1="157.97" y1="52.93" x2="167.98" y2="62.94"/><line class="cls-8" x1="96.72" y1="54.24" x2="106.73" y2="64.25"/><line class="cls-8" x1="96.72" y1="56.75" x2="104.23" y2="64.25"/><line class="cls-8" x1="96.72" y1="59.25" x2="101.73" y2="64.25"/><line class="cls-8" x1="96.72" y1="61.75" x2="99.22" y2="64.25"/><rect class="cls-4" x="96.72" y="52.93" width="71.26" height="11.32"/><line class="cls-9" x1="152.33" y1="78.6" x2="96.47" y2="78.6"/><path d="M118,80.36a2.13,2.13,0,1,0-2.12,2.13A2.12,2.12,0,0,0,118,80.36" transform="translate(-3.5 -1.77)"/><g class="cls-10"><g class="cls-11"><path d="M115.83,84.45l-6.12,6.11a8.63,8.63,0,0,0,12.23,0Z" transform="translate(-3.5 -1.77)"/></g></g><line class="cls-9" x1="112.33" y1="78.6" x2="112.33" y2="82.68"/><path d="M158,80.36a2.13,2.13,0,1,0-2.13,2.13A2.12,2.12,0,0,0,158,80.36" transform="translate(-3.5 -1.77)"/><g class="cls-10"><g class="cls-12"><path d="M155.83,84.45l-6.11,6.11a8.62,8.62,0,0,0,12.22,0Z" transform="translate(-3.5 -1.77)"/></g></g><line class="cls-9" x1="152.33" y1="78.6" x2="152.33" y2="82.68"/><path d="M138,80.36a2.13,2.13,0,1,0-2.13,2.13A2.13,2.13,0,0,0,138,80.36" transform="translate(-3.5 -1.77)"/><g class="cls-10"><g class="cls-13"><path d="M135.83,84.45l-6.11,6.11a8.62,8.62,0,0,0,12.22,0Z" transform="translate(-3.5 -1.77)"/></g></g><line class="cls-9" x1="132.33" y1="78.6" x2="132.33" y2="82.68"/><path d="M22,67.36a1.7,1.7,0,1,0-1.7,1.7,1.7,1.7,0,0,0,1.7-1.7" transform="translate(-3.5 -1.77)"/><line class="cls-9" x1="27.63" y1="65.6" x2="16.8" y2="65.6"/><polygon points="34.7 65.6 24.75 61.53 27.11 65.6 24.75 69.66 34.7 65.6"/><path d="M135.83,225.3a1.7,1.7,0,1,1-1.7,1.7,1.7,1.7,0,0,1,1.7-1.7" transform="translate(-3.5 -1.77)"/><line class="cls-9" x1="132.33" y1="213.42" x2="132.33" y2="205.73"/><polygon points="132.33 220.48 136.4 210.53 132.33 212.89 128.26 210.53 132.33 220.48"/><line class="cls-9" x1="132.33" y1="225.26" x2="132.33" y2="213.42"/><path d="M63.39,225.3a1.7,1.7,0,1,1-1.71,1.7,1.7,1.7,0,0,1,1.71-1.7" transform="translate(-3.5 -1.77)"/><line class="cls-9" x1="59.89" y1="213.42" x2="59.89" y2="198.77"/><polygon points="59.89 220.48 63.95 210.53 59.89 212.89 55.82 210.53 59.89 220.48"/><line class="cls-9" x1="59.89" y1="225.26" x2="59.89" y2="213.42"/><line class="cls-9" x1="37.05" y1="130.23" x2="26.22" y2="130.23"/><line class="cls-9" x1="59.89" y1="130.23" x2="37.05" y2="130.23"/><polyline class="cls-9" points="38.38 130.23 38.38 152.24 59.89 152.24"/><path d="M22,132a1.7,1.7,0,1,0-1.7,1.7A1.7,1.7,0,0,0,22,132" transform="translate(-3.5 -1.77)"/><line class="cls-9" x1="27.63" y1="130.23" x2="16.8" y2="130.23"/><polygon points="34.7 130.23 24.75 126.17 27.11 130.23 24.75 134.3 34.7 130.23"/><path d="M135.83,15.51a1.7,1.7,0,1,1,1.7-1.7,1.7,1.7,0,0,1-1.7,1.7" transform="translate(-3.5 -1.77)"/><line class="cls-9" x1="132.33" y1="24.86" x2="132.33" y2="30.8"/><polygon points="132.33 17.8 128.26 27.75 132.33 25.39 136.39 27.75 132.33 17.8"/><line class="cls-9" x1="132.33" y1="12.02" x2="132.33" y2="24.86"/><line class="cls-9" x1="59.89" y1="108.77" x2="59.89" y2="97.93"/><path d="M63.39,92a1.7,1.7,0,1,0-1.71-1.7A1.7,1.7,0,0,0,63.39,92" transform="translate(-3.5 -1.77)"/><line class="cls-9" x1="59.89" y1="99.35" x2="59.89" y2="88.52"/><polygon points="59.89 106.41 63.95 96.46 59.89 98.82 55.82 96.46 59.89 106.41"/><polyline class="cls-9" points="27.63 65.6 84.06 65.6 84.06 78.6 96.47 78.6"/><line class="cls-4" x1="36.55" y1="191.36" x2="83.22" y2="191.36"/><g class="cls-14"><g class="cls-15"><path class="cls-16" d="M135.83,156.42v20.21a6.49,6.49,0,0,1-6.49,6.49H69.88a6.49,6.49,0,0,1-6.5-6.49V112.26" transform="translate(-3.5 -1.77)"/><polygon points="132.33 149.35 129.28 156.82 132.33 155.04 135.38 156.82 132.33 149.35"/><path class="cls-16" d="M155.83,156.42v20.21a6.49,6.49,0,0,1-6.49,6.49h-20" transform="translate(-3.5 -1.77)"/><polygon points="152.33 149.35 149.28 156.82 152.33 155.04 155.38 156.82 152.33 149.35"/><path class="cls-16" d="M115.83,156.42v20.21a6.49,6.49,0,0,1-6.49,6.49" transform="translate(-3.5 -1.77)"/><polygon points="112.33 149.35 109.28 156.82 112.33 155.04 115.38 156.82 112.33 149.35"/></g></g><path d="M65.55,132a2.13,2.13,0,1,0-2.12,2.13A2.13,2.13,0,0,0,65.55,132" transform="translate(-3.5 -1.77)"/><g class="cls-10"><g class="cls-17"><path d="M63.41,136.09l-6.12,6.11a8.65,8.65,0,0,0,12.23,0Z" transform="translate(-3.5 -1.77)"/></g></g><line class="cls-9" x1="59.91" y1="130.23" x2="59.91" y2="134.32"/><path d="M65.55,154a2.13,2.13,0,1,0-2.12,2.13A2.12,2.12,0,0,0,65.55,154" transform="translate(-3.5 -1.77)"/><g class="cls-10"><g class="cls-18"><path d="M63.41,158.09l-6.12,6.11a8.65,8.65,0,0,0,12.23,0Z" transform="translate(-3.5 -1.77)"/></g></g><line class="cls-9" x1="59.91" y1="152.24" x2="59.91" y2="156.32"/><text class="cls-19" transform="translate(116.74 7.34)">Gas out</text><rect class="cls-5" x="115.08" y="54.21" width="33.53" height="7.45"/><text class="cls-20" transform="translate(115.37 60.5)">Demi<tspan class="cls-21" x="19.27" y="0">st</tspan><tspan x="25.61" y="0">er</tspan></text><text class="cls-19" transform="translate(115.37 60.5)">Demi<tspan class="cls-21" x="19.27" y="0">st</tspan><tspan x="25.61" y="0">er</tspan></text><text class="cls-20" transform="translate(108.36 72.9)">Sp<tspan class="cls-22" x="8.86" y="0">r</tspan><tspan class="cls-23" x="11.82" y="0">a</tspan><tspan x="15.96" y="0">y n</tspan><tspan class="cls-24" x="26.8" y="0">o</tspan><tspan x="31.43" y="0">zzles</tspan></text><text class="cls-19" transform="translate(108.36 72.9)">Sp<tspan class="cls-22" x="8.86" y="0">r</tspan><tspan class="cls-23" x="11.82" y="0">a</tspan><tspan x="15.96" y="0">y n</tspan><tspan class="cls-24" x="26.8" y="0">o</tspan><tspan x="31.43" y="0">zzles</tspan></text><rect class="cls-5" x="112.35" y="113.42" width="42.13" height="18.19"/><text class="cls-20" transform="translate(112.17 119.62)"><tspan class="cls-25">P</tspan><tspan x="4.46" y="0">ac</tspan><tspan class="cls-26" x="12.57" y="0">k</tspan><tspan class="cls-27" x="16.37" y="0">ed bed</tspan><tspan x="0.99" y="10.8">a</tspan><tspan class="cls-28" x="5.3" y="10.8">b</tspan><tspan class="cls-27" x="9.98" y="10.8">sor</tspan><tspan class="cls-29" x="21.39" y="10.8">b</tspan><tspan x="26.08" y="10.8">tion</tspan></text><text class="cls-19" transform="translate(112.17 119.62)"><tspan class="cls-25">P</tspan><tspan x="4.46" y="0">ac</tspan><tspan class="cls-26" x="12.57" y="0">k</tspan><tspan class="cls-27" x="16.37" y="0">ed bed</tspan><tspan x="0.99" y="10.8">a</tspan><tspan class="cls-28" x="5.3" y="10.8">b</tspan><tspan class="cls-27" x="9.98" y="10.8">sor</tspan><tspan class="cls-29" x="21.39" y="10.8">b</tspan><tspan x="26.08" y="10.8">tion</tspan></text><text class="cls-19" transform="translate(176.81 142.8) rotate(-90)">A<tspan class="cls-30" x="5.21" y="0">b</tspan><tspan class="cls-31" x="9.89" y="0">sorber</tspan></text><text class="cls-19" transform="translate(115.53 234.11)">A<tspan class="cls-28" x="5.21" y="0">b</tspan><tspan x="9.89" y="0">sorber</tspan><tspan class="cls-32" x="-0.99" y="10.8">w</tspan><tspan class="cls-33" x="5.34" y="10.8">a</tspan><tspan class="cls-34" x="9.57" y="10.8">t</tspan><tspan x="12.49" y="10.8">er out</tspan></text><text class="cls-19" transform="translate(54.35 236.08)">J<tspan class="cls-35" x="2.87" y="0">e</tspan><tspan x="7.3" y="0">t</tspan><tspan class="cls-32" x="-12.65" y="10.8">w</tspan><tspan class="cls-33" x="-6.32" y="10.8">a</tspan><tspan class="cls-34" x="-2.09" y="10.8">t</tspan><tspan x="0.83" y="10.8">er out</tspan></text><text class="cls-19" transform="translate(85.78 144.37) rotate(-90)">J<tspan class="cls-35" x="2.87" y="0">e</tspan><tspan x="7.3" y="0">t</tspan></text><text class="cls-19" transform="translate(11.64 114.78)">J<tspan class="cls-35" x="2.87" y="0">e</tspan><tspan x="7.3" y="0">t</tspan><tspan class="cls-32" x="-9.8" y="10.8">w</tspan><tspan class="cls-33" x="-3.47" y="10.8">a</tspan><tspan class="cls-34" x="0.76" y="10.8">t</tspan><tspan x="3.67" y="10.8">er in</tspan></text><text class="cls-19" transform="translate(31.22 90.24)">Gas in</text><text class="cls-19" transform="translate(0 50.57)">A<tspan class="cls-28" x="5.21" y="0">b</tspan><tspan x="9.89" y="0">sorber</tspan><tspan class="cls-32" x="1.86" y="10.8">w</tspan><tspan class="cls-33" x="8.19" y="10.8">a</tspan><tspan class="cls-34" x="12.42" y="10.8">t</tspan><tspan x="15.34" y="10.8">er in</tspan></text><text class="cls-36" transform="translate(99.06 259.13)"><tspan class="cls-37">R</tspan><tspan x="4.73" y="0">epri</tspan><tspan class="cls-38" x="19.14" y="0">n</tspan><tspan class="cls-34" x="23.78" y="0">t</tspan><tspan x="26.7" y="0">ed with permission</tspan><tspan x="7.68" y="10.8">f</tspan><tspan class="cls-39" x="10.43" y="10.8">r</tspan><tspan x="13.42" y="10.8">om <a href="https://vbn.aau.dk/da/publications/modelling-and-analysis-of-seawater-scrubbers-for-reducing-sox-emi" target="_blank">Simonsen (2018)</a></tspan></text></svg>